<mxfile host="65bd71144e">
    <diagram id="dMY1llQlr1bIQIzZCWxC" name="Page-1">
        <mxGraphModel dx="3203" dy="1475" grid="1" gridSize="10" guides="1" tooltips="1" connect="1" arrows="1" fold="1" page="1" pageScale="1" pageWidth="850" pageHeight="1100" background="#ffffff" math="0" shadow="0">
            <root>
                <mxCell id="0"/>
                <mxCell id="1" parent="0"/>
                <mxCell id="2" value="" style="shape=image;verticalLabelPosition=bottom;labelBackgroundColor=default;verticalAlign=top;aspect=fixed;imageAspect=0;image=data:image/png,iVBORw0KGgoAAAANSUhEUgAABscAAAOrCAIAAACEDM9uAAAAKnRFWHRjb3B5bGVmdABHZW5lcmF0ZWQgYnkgaHR0cHM6Ly9wbGFudHVtbC5jb212zsofAAACpGlUWHRwbGFudHVtbAABAAAAeJytVk1v2zAMvetXELksOaTbumHYchi6pe0+kACF3fSuWKwnVJY8ifaQfz/Kjpu0aRJvbQ6BJfE9UnxPgs4CSU9VYYTMyHkYXMqsMrQCdwtTV5QVaZu/CpBSpdBSGIC8HxyBzDCjyqNvMd2oXx5IsPQY+EuSrpFDKptpA3Mslh1jmkzXZF9Uoa0O5CWPghBLjlbSr2CQYN7Oa2fhSubYILdn46TgPJprGSwCejiXJJcytKFxppsQmbPknVnHPeCetksG/U6GzZIQ3fbGn3eKmMDU6OwuALMNUp1bqMqBeBwFY4auWSZwrkNp5CpAGZfIQfbLuYBQxfpoVeLejJuiOG8D2vT+9Uas7uM/4SxRLyQr+VDDPqgGIfp2KFSaVTQIoW3t3pZBlFpFFTZd7NHES21MAG3B4+9Ke2ZQSFKb0E+CXelhWRE5K56GHCK7kUYrSdwiv23RW+cLEU+Mrnlxn0WloZbgvn7g3/4itg/IhDVRbdtklvEhpAa8HdKos6/wxRYSpFKoDibf1jlBxU3PKERJjctZiLI52YZz/rB17x09aR69Jui8U2AIkf0I0e4R39iRmcadC2Uuo5MjWw+vJDjmCL4FIXM+7rmnUgf46kOOiazHXNPEPHYODBMkvxo1q8920Us46bluivinHNV7p//srhd1WFO+bVuh8JimMfKM/+LjQFwZaWkxn0HNxoveeHty+ub03cmnJXfgdLiwd9b9sezIotR8yZIucCSG365mEFzlMwQVU2i+0xg8Ej9lLSFhcThuAnE0vJ6PIL3oJuHC1to7W8R3xs+beRsE3x2lpaMm+MP78VdNkKLnmuBmLs7xVvKbgqGZU/ycYBtcX44/ipm0edU0B62ILwmWitdS8RfqoStepeoWpAAAgABJREFUeF7s3Qt4VNW98P8E0ENuBEiISUADCggICCrX4yWCHtujctWqUcpLPR4VQm3roRRbpKAgvlgsErEVe7zRCgjKQeTyB0lFDaAolxbagFxCCAkEmjskQpj/erOafTb7lpnJkKw9+/t58vDsWXvttffav7XWTH5MZiJ8AAAAAAAAABCICGMBAAAAAAAAADgiqwgAAAAAAAAgMGQVAQAAAAAAAASGrCIAAAAAAACAwJBVdKvc3P0vv7xg9uy54ueFF15cuHDhgQMHjJWAcCGG94IFr8yZ86IY8OJfsc2AB9AYPI0C6uBZHgAAlyKr6D5Hjx575plns7L+sG9f/tGjpfJHbL/++lszZ846fvy48QDAzcSQfvbZXy9a9N+GAS9KRDkDHkCgeBoF1MGzPAAArkZW0WW+/PLrX/zi2YMHT2ovvPQ/hw8Xz5z53K5du4yHAe60c+fOX/3q13YDXpSLvaKO8TAAsMHTKKAOnuUBAHA7sopukpeXL34XMr/q0v/k55fOmvU8/7WLMCCGsfh1wjzIDT+iDgMegD94GgXUwbM8AABhgKyia1y44Js69Vd2/52r/8nLOzVr1izj8YDbTJ8+w58BL+qImsaDAeBiPI0CSuFZHgCAMEBW0TV27967aNGb5hdblj9vv71k//79xiYA9xAD+He/e8s8ti1/RE0GPABnPI0C6uBZHgCA8EBW0TXmzfut/nOsnX8OHixctGiRsQnAPRYuzPJ/wIuaor6xCQDQ4WkUUAfP8gAAhAeyiq4xY8Zs88ssu5+CgvKXXnrJ2ATgHnPmvGge2A4/or6xCQDQ4WkUUAfP8gAAhAeyiq7x7LPPm19j2f3k55fy6xBcbfbsueaB7fAj6hubAAAdnkYBdfAsDwBAeCCr6Bq8yQKewrsYAIQWT6OAOniWBwAgPJBVdA0+EAqewicuAQgtnkYBdfAsDwBAeCCr6Bp8eSU8hW+HBBBaPI0C6uBZHgCA8EBW0TUuXPBNnfqrgwdPml9sGX7y8k7NmjXLeDzgNtOnz/BnwIs6oqbxYAC4GE+jgFJ4lgcAIAyQVXSTvLz8X/ziWfPrLf1Pfn7prFnPHz9+3Hgw4DZiGP/qV782D3LDj6jDgAfgD55GAXXwLA8AQBggq+gyX375tfiNyO6/dg8fLp4587ldu3YZDwPcaefOneLXCbsBL8rFXlHHeBgA2OBpFFAHz/IAALgdWUX3OXr02DPPPJuV9Qf9p1yL7ddff2vmzFn8dy7CjBjSzz7760WL/tsw4EWJKGfAAwgUT6OAOniWBwDA1cgqulVu7v6XX14we/bcRx754QsvvLhw4cIDBw4YKwHhQgzvBQtemTPnRTHgxb9imwEPoDF4GgXUwbM8AAAuRVbR9V566SVjERC+GPAAQotVBVAH8xEAAHchq+h6vPyCpzDgAYQWqwqgDuYjAADuQlbR9Xj5BU9hwAMILVYVQB3MRwAA3IWsouvx8guewoAHEFqsKoA6mI8AALgLWUXX4+UXPIUBDyC0WFUAdTAfAQBwF7KKrsfLL3gKAx5AaLGqAOpgPgIA4C5kFV2Pl1/wFAY8gNBiVQHUwXwEAMBdyCqqa9myZS/5YcyYMcYiK6I14wkAlTDgAYQWqwqgDuYjAABhiayi673Ef+rCSxjwAEKLVQVQB/MRAMxqa2uNRYAyyCq6Hi+/4CkMeAChxaoCqIP5CAAGf/nLX9asWWMsBZRBVtH1ePkFT2HAAwgtVhVAHcxHANB79dVXu3fvXlJSYtwBKIOsouvx8guewoAHEFqsKoA6mI8AoHn88ceTk5MnTZpk3AGohKyi6/HyC57CgAcQWqwqgDqYjwAgVFdX33777cnJyV26dNm2bZtxN6ASsoqux8sveAoDHkBosaoA6mA+AsDRo0d79uyZnJycmpo6dOhQ425AMWQVXY+XX/AUBjyA0GJVAdTBfATgcX/+85+vvPLK5Dr9+/d//fXXjTUAxZBVdD1efsFTGPAAQotVBVAH8zHkli1bZiwKyoULvlOnSv/4x+W//vWcGTNmT5/+vPhXbIsSUS72IrS44d5UWlrWo0fPrl27yaxiamrqT3/6c+IOxZFVdD1efsFTGPAAQotVBVAH8zHkQnJL9+7dP23ajOee+7+bNm07erRU/yNKRLnYK+oYD0OwuOHeJOP+1FP/1atX73/911uTk5NTUlKmT59N3KE4soquF5LXCoBbMOABhBarCqAO5mPINfKWnj9//sUX58+bt/DQoWJDekv/I/aKOqKmqG9sAoHghnuTIe47dx644467br75tuTk5J49exF3KI6sous18rUC4C4MeAChxaoCqIP5GHKNuaVlZRVPP/2LTz/dYc5qWf6ImqK+OMrYEPzDDfcmy7h/++2J//N/HhswYFBqauqqVf8fcYfKyCq6XmNeKwCuw4AHEFqsKoA6mI8hF/QtPX++9umnf7Fnz2FzMsvhR9QXR4ljjc2hIdxwb3KO+69//UJKSurYsQ8Qd6iMrKLrBf1aAXAjBjyA0GJVAdTBfAy5oG/pvHm/9f9Nc/ofcZQ41tgcGsIN96YG4/722+9fe22Pv/41j7hDWWQVXS/o1wqAGzHgAYQWqwqgDuZjyAV3S7/99uBLLy00Jzj8/BHHihaMjcIeN9yb/Iz7pk1b33prubmcuEMRZBVdL7jXCoBLMeABhBarCqAO5mPIBXdLp0+fefDgSXMWw88fcaxowdgo7HHDvcn/uB858g9zIXGHIsgqul5wrxUAl2LAAwgtVhVAHczHkAvillZUVDz//DxzCiOgH9GCaMfYNKxww72JuCNskFV0vSBeKwDuxYAHEFqsKoA6mI8hF8Qt/eCDVZs2bTPnLwL6ES2IdoxNwwo33JuIO8IGWUXXC+K1AuBeDHgAocWqAqiD+RhyQdzSF1540Zy8COJHtGNsGla44d5E3BE2yCq625kzZx588EHxr3EHEI4Y8ABCi1UFUAfz8VIIIqs4e/Zcc+YiiB/RjrFpWOGGexNxR9ggq+hitbW106dP37t3r/hXbBt3A+GFAQ8gtFhVAHUwHy+Rp5566qUATZ78E3PmIogfkh1+IrvkTcQdYYOsoouJZ/39+/eLDfHvS4H/PyTgLgx4AKHFqgKog/l4iQRxM/nDzCbGDfcm4o6wQVbRrd5+++0vvvhCeyi2RYluPxBWGPAAQotVBVAH8/HSCSKr+OKL/9ecuQjiR7RjbBpWuOHeRNwRNsgqutL69etXrlxpKBQlotxQCIQBBjyA0GJVAdTBfLykgsgqrl69Ojt7uzl5EdCPaEG0Y2waVrjh3kTcETbIKrrPrl27Fi1aZCytI8rFXmMp4GYMeAChxaoCqIP5eKkFkVWsqKh48cXfmPMXAf2IFkQ7xqZhhRvuTcQdYYOsosvk5+c/99xzxlIdsVfUMZYC7sSABxBarCqAOpiPTSCIrKLv/9355w8dOmlOYfj5I44VLRgbhT1uuDcRd4QHsopuUlZW9swzz3z33XfGHTpir6gjahp3AG7DgAcQWqwqgDqYj00juKzi4cOHFy58zZzF8PNHHCtaMDYKe9xwbyLuCA9kFV3D/9dV/rxKAxTHgAcQWqwqgDqYj00muKyisHBh1tatO82JjAZ/xFHiWGNzaAg33JuIO8IAWUXXCOhvQBr8ixJAcQx4AKHFqgKog/nYZILOKtbW1v7qV9P/9rej5nSGw4+oL44SxxqbQ0O44d5E3BEGyCq6QxCfV+3w6deA4hjwAEKLVQVQB/OxKQWdVRQqKyunT5++bdsuc1LD8kfUFPXFUcaG4B9uuDcRd7gdWUUXWLly5fr1642lfhBHiWONpYDaGPAAQotVBVAH87GJNSar6Kt7I1VWVtaiRb8/evS0Obuh+zkt6oiavHmqkbjh3kTc4WpkFVX3xRdfvP3228ZSv4ljRQvGUkBVDHgAocWqAqiD+dj0GplVlA4dOjR79uz583+bk/N1UVFFQUH50aOl4l+xLUpEudgr6hgPQ7C44d5E3OFSZBWVtn///sa/FBAtiHaMpYB6GPAAQotVBVAH87FZLFu2zFgUrMrKylWrVr10MVHCX2JeItxwbyLucB2yiuo6efLk9Okh+BBW0YJoR7Rm3AGohAEPILRYVQB1MB8BAAhLZBXV9eabb545c8ZYGhTRjmjNWAqohAEPILRYVQB1MB8BO0uXLjW8MS04IXxfKgD4j6wiAAAAAAAAgMCQVQQAAAAAAAAQGLKKAAAAAAAAAALj7qxidnZ2REREcXGxcUfo/P73v+/cuXOLFi3EiYz7XKUJ7lUTkL0oKSkx7vCAJoggox2qaYJQMuyV4uVFvrmEx8jR6LvT7F1r9gtojOAmo59d9rMazJrl1jXLSdFIRC3kmuWWNstJm5i+j17ob1i6tL9EyWGh99RTTxkrNYJ5CAb66sfZsWPHxK+ar732WkFBQWFhoXG3z5efn/+f//mfV1555WWXXdahQ4f77rvvyy+/NFZqcpa3oqamRnThwoUL+sKABDTJv/322/vvvz8xMbFly5YJCQm33nrrunXr5C7Ly/NTY46VGt+CHUZ7s7C8FU082gOq7MyyOypj2DcLy1vRxMPevYu8ftC2adPmrrvu2rt3r7GSezTYXz3Lyo0fOXrNPmX03bEb0rI8Li6uqqpKK9y3b58cFX7eTH/YXUDz+vrrr8VVDR061LjjYpajpUF+DqcGqwV3dk0jDw8VeRlSqFabZrl1DZ40IPrb0q5du4ceekiFb/Q2z1bLWxES2h2IjIyMj48fMGDArFmzysvLjfVMArokc4+anfmSAupRQPTDjNmnF/KnacvLDoh+YJgHCVyhKbKKYg4X1vNnxfSfeQg2ZkCbffrpp6LNf/zjH8YddcTvVElJSSNGjBDVjh49umPHjmnTpv37v/+7sV6TuxS3whfIJD979mynTp2+//3vb9u2TfzSvnPnzgULFvzpT3+SextzeY05Vmp8C3YY7c3iUtwKXyCj3RdgZWeN6c65c+eMRfYCquyAYd8sLsWt8AUykl29yOsH7ddff33nnXdee+21xkqNFqop1qAG+6sXUOUgqDZl7Ia0LBe/U7311lta4dNPP33VVVeF9v7YXUCgQjucnnzyyQEDBrRo0WLfvn3GfTqXerQ48+fsDrfFn8MdOLQcEHkZl3q1MfCn7w4d9OfwRtLflq1bt1533XXi2cRYqcmZZ2sIb4XhhuvvQG5u7nvvvde/f/+uXbs2mF0N6JLMPWp25ksKqEfOHG4ys09zKZ6m/blsh177Lh4Y5kHiD+f20QSaIqtoHhbiZdz1119/+eWXt23b9uGHH9ZGYW1t7YsvvnjNNddcdtllKSkpM2fO9Jka0Q9c/a6Ii4kScbh4opJHSUOHDp08ebK+xFc3Cn/5y1+KX5DESbt37/7GG29ou8xt6v3bv/2beRJqfXFoVl72+vXrb7zxxn/5l38ZNGiQmOHid7ObbrpJPBT/7t+/X19z48aNQ4YMEbvE692FCxfqd1nelouv+p+Xra8vtzds2HDDDTeIKIgz/v3vf5fVampqfvKTnyQmJkZHR48aNUr8lqg1q2/hd7/7nXg53rJly9TU1Pnz58tjNeIlgqh5+PBhQ7l00cXVXZ5DX8RtFC/05fXce++97777rrZLEL/Hinsr7nDHjh2nT59+/vx5fQuWHbz45P+8Oc7d8ZOhFxpGe0RYj3af6fL07IaoZfR9Vt1x6LvcXrt2rfj9ULTz0UcfOZzRXLnBfvnDru8M+4iwHvauW+T1DBcjwiQenj17VqvgfFLLYGl7/ZyPdrfXrn6g/bWbgJaVtRvy+9//XvyyoZ1UeOihh0RQ5LbdtekFN2UchodDxy0XE0NrhpY1slz04tZbb5Ul3333nej7s88+q53aZ99leXgjJ7jkfIqQr9jCmTNn4uPjP/744zvuuENMPf0uh8kYaJcbXIj01Sy7FnEx/VH62xLQULcbgZYtW15VoPTd9AWy2jRmob6o5yG6dfqTNngbLSOuZ7gty5cvF10Qc9Bnv3Y53BCf/W0MiOGqtBJ5Fstb7bM/tfmGa4doe/XnEhPz2muvffLJJ+VDu/vwv4Gp41xZnsVu/bE7KtCeBsTc8Sa7ycw+KbinaZ9j+w6Xre91g41bPnHbhcncvtYamoXFC+4QMgwLzTvvvPPJJ58cPXr0z3/+c+/evR955BFZ/vOf/7xdu3bvvfee2PXVV1/J/0M2NCIfmuf2ypUrxXZubq58v4yv7v29Yqpv375dHiiGvqiwe/du+VAzceLEDh06rF69Oi8vb/HixWLZ/e///m+5y9ym5tSpU5GRkWJq6Qv1HJqVlz148OCcnBxxVeLXYPEqLT09Xbw+kw+HDx+ur9m1a1dzOw63xfKy9fXltjiR+M3wb3/7m7gScXZZ7YknnhCvzsXLTXG6P/zhD1dccYX5bovfJEXfX3jhhSNHjogwiWuTx2pEuagwd+5cy/83MF+eQ19+/OMfixf6svviFx6xxGu7ZsyYIZ6AxWoiAi2eMjt37vzMM8/oW7DsoPnsDXbHT4ZeaBjtEWE92vWVDeUOQ9Qy+j6r7jj0XW7369dPDC1xeaKOwxkNlb/55psG++UPu74z7CPCeti7a5E30F9MaWnpuHHjevbsqe1t8KSWwdL2+jMf7W6vXX2tcf/7azcBLStrN+Qf//iH+FVB+0v2iooK8TvVsmXLfI7Xpgl6yjgMD4eOWy4mhtYMLWtkubgPrVu3/vbbb0XJBx98cPXVV2/evNn/4dfICe7PKUK+Yvvqxob4Tbi2tnb58uUiHDKVIzlMxkC73OBCpFWzmw4OY1U/ywIa6nYj0NxyqG64/m4EtNo0ZqG27Hsjb52+Iw3eRsuI6+lbE/7nf/5HdKS6utpnv3Y53BCH2xgQw1VpJeIsdrfa4dTmG641q+01FL788suij3Lb7j5YRseusjyL3fpjeVQQPQ2IueNNc5OZfVLQT9M+x/YdLlvf6wYbl33UbzuEydy+LEdziTAWhJSMd4yOGEaGOh9++KEov3DhQnl5uRheb775pqGCfmxpD82/cOrLNXfffffjjz8ut8UL0Jtuukm/11e3ylx22WVibmslotq19W+QtmxTEi+kxC4xxI076vjTrFhN5EPxwk483LJli/awVatWMhMvaxra6dGjh7bL4bYYLtt8r8SrZ7lL/M4gzih+OSwrKxOXLV6ja0f94he/MDclVs8Iq1/d9RYsWCB+G4mNjb355puffvppcYi2y3x5dn0R1yN+w9F3/7/+67/krqqqqqioKPHqVtv1pz/9qX379nLbroPaLv3Z/emOP2TLjHafVbPhPdoNlyc5DFG76PusutNg37WXMg5nNFf2p1/+kM0y7H1WzYb3sHfRIm8gK8jhKja6d+8u80o+/yaRZbC0vf7MR8vb61Df17j+ahPQZ1NZFsrojBo1Svv15t13323Tps3Zs2edr00T9JTRX4D2UD/UzR23W0x8F7dmaNlc5wc/+IH8FUWsJM8995x2aucuy2qNnOD+nCLkK7Zw2223id/TfPVvz3z//fdlucNk9AXeZeeFSF/NrmtaLMyFdjk+56HuMAJ9ppbtripQstlAVxvnhbrpb51WKE7qz220jLie1prYFv+KMTl48GBDHZ/uqhxuiMNtDJT+qvQl4iyWt9r51M433HwuYd26daKwpqZGX+jzIzp65sqW64+BdlQQPQ2IueOX+iYz+7TKvkY8Tfsc23e4bK3X/jRueOJ2CJNWze6uouk1RVbxyy+/PFBPDr7PP/98+PDhHTp0EL+QtG7dWtQRLxC3b98uNsy/kerHmfbQMLcN5ZpVq1bFx8efOXNGvNZJSUl57bXX9Ht99bNLf9KPP/5YlMj/MbNsU3Kelv40e+LECblLPjx9+rT+oZh72rZlO/q+azX1t8VybuvvleECxBnlZR89elQ7Sp7O0JQI4oABA8SNFb97iJeSdu+BFzFds2aNeJl+xx13REZGvvzyy7LcfHl2fTEPCe16xKCKuDiXIQdSRUWF1oK5g/rGtTb97E6DZMuMdp9Vs+E92g2XJzkMUbvo+6y602DfCwoK5C6HM5or+9Mvf8hmGfY+q2bDe9j73LPIG8gKov2///3vixYtEi9zV65cKXf5c1Lz1eqD7s98tLy9DvW1xv3vr+UEtKssC2V03n//fXFIVd13mHzve9+bMGGCr6Fr0wQ9ZfQX4Lv4Iu06bh45Gn1rhpbNdTZs2NCpUycxIy6//HJx5dqpnbtseVWBTnB/ThHyFVss0S1bttSuR/xSJ6Ist823VL84BNpl54VIX82ua7KC5VjVbosvkKHuMAK1+iG/4bLZQFcb54W66W+dVihO6s9ttIy4niyXvRbPHTfddFNubq7cZXlVDjfE4TZqlf2k9dFQIs5ieaudT22+4Xrmcwlr166NqM8qWt4H7cCAFny7YFkeFURPA2Lu+KW+ycw+rbKvEU/TPsf2HS5b67U/jRueuB3CZG4fza4psoqGRVOMubi4uPHjx+fk5Ozfv//tt9+WA9H8gkb685//rG/kk08+0QaueQgaBrSY8+L3zHfffXf16tXR0dFlZWX6vT7/hrihTcn5LcT+NKv1yHAW/UO5bV7aRDsN3hbLuW2Yrvpdor55rZHPcOY78N1333300UeTJk1q167dqFGjDHvNZs2aJdbN2tpan9Xl2fVFDglz97VL/eyzz7RchqQ/hbmDhm1NoN2xZDipxGh3iIXhodw2h1v90W44heQwRO2i77PqToN913Y5nNFc2edHv/xhbtbHsDfdFsNZ9A/lthuHvYHii7ye4dinnnrqqquukn8H6s9JzVdrGXTnpsy317l+QP0tsZmAlpW1Qtm46Iv4NelPf/qT+M2hVatW8r1pztemCXrK2A0Pn33H7RYTrY7lRDDXEV0Q0U9PT5fJNa195y7bXZX5ody2HDMBncJnNWaCMHXqVNFsy3ot6sjLc5iMPtP1NNhly/tvV82ya4ZT6Au1BgMa6g4jUKsf8htuaNbP1cZ5oW76W6c/PKDbaNmUVv7ll19+++23Yt3Qyu2uyuGGONxGrbKfvvjiC9HUsWPHtBL55sEzZ874rG6186kNt8LAcu9vfvOb1NRUn/190A7U39IGK5sntQiWw1GB9jQgzXiTmX2+RjxN+xzbtzyXob7/jRv6axkmc/tods2QVZQLirbGzZs3Tw5Eu79n+eabb0SFv/3tb/LhggULDINYtr9ly5YI3X+caqZNm3b77beL2f7DH/7QsMtX/z5nuzeHW04SzZ133mn+zjJZ2Z9mLael4aHcFr8wy12+uleEsh2H22J5K/QntbuA0ro3Jy9dulQ7Stw9hzvgq/8rGPlk4GDVqlXaZ6aYL8+uL/LvcfTdnzJlitxVUVHRunXrP/7xj9ouPbsO+qzOrudndywZTiox2h1iYXgot9042g2nkByGqF30fVbdcei74bwOZ/SZKuvZ9csfls0y7O1Gnfmh3HbjsDdwyyLvMx0rXuO2bNnyT3VfYO3PSS2Dpe31cz5qtNvrXD+g/tpNQMvKPlPjP/rRj+6+++5XXnmlU6dO8rW787XpBTdl7IaHz3RtWsftFhOf40SwrCO/oUX+IbDWvnOX7a7K/FBuW46ZgE6h5+eUNDt37lxycvILL7zwF51+/frJL7pxmIw+0/U02GXL+29XTaPvmj9jNaCh7jACfaaW9YK+4T5Ts36uNs4LteWlXtJb59MdHtBtlA+1caKx7ILP/qocbojDbQxUUVGReBZbu3atViImi0zz6QW3aBuY956p+7aWiRMn+uzvg88qOg6V5Vks1x+HozR+9jQgzXiTmX1ScE/TPsf2nS9bPvS/cW3bIUw+U/tods2QVSwoKBCzWrxYOXz48IcffnjllVdqg1IMr/bt24uZfFT32ds1NTWJiYkZGRmi/rp166655hqtvr59sViIbfES8+TJk/ozHjx4sEWLFq1atfr000+1Qr1JkyYlJSV99NFH4qRvvPGG+aNDzRNS2r9/f4cOHbSvZhcvi6dPn659rVKDzVpOS8NDud2tW7c1a9aIdv7whz+I2SW/MsnhtljeCv1JHS7giSeeEIu7WO7F6cT9Fy9AI0xvn96+ffvChQvFLwAHDhwYN25cx44d5YdBaD7//PMHH3xw5cqVooJoR1y8eKbU7oz58hz6kpmZecUVV4gWxFGi4+KGa7t+/etfi9EilqcjR46IE4lhY/kVkNpDu5vTYHf8ZDipxGh3iIXhodx23Wj31bcp/t2pI34bdxiiltH3WXXHoe+GrvkCmRT+9Msf5mvwMexNt8VwFv1Due26Ye+uRd7AcKyv7sMEtU/1avCklsHS9vozH+1ur119c+PO/XWYgObK5sY3b94sZlOvXr1EC7LE53htesFNGYfh4dBxy8XEcIg5KOY63333XXHdmxa18sYMP8NDuW03Zvw/hd2YCciqVatEZPVvDRPmzp3buXNn2ZrDZAy0y5b337KaXdf8GauBDnW7EWhu2e6qAmVo1uf3auOwUDfLrdMf7v9tlA+1caIx3xbJ4aocbojDbQyUiE7Pnj3F8pWfny8uQDQbqkXbQO7du3dvYWGhWDbFgf379+/atau45z7H+2COjkNleRbL9cfuqCB6GqgmvsnMPvlQE9zTtM+x/QYvW/Kzcf22Q5jM7aN5NUNWURDrWkpKiljahg8fLqarNijFq7o5c+aI1zdison5+dxzz8n6GzZsEK8yxeAbNmyYGFhafUP7zz//vGhW/HoZUf+l5tLtt98ullR9id65c+eeeeYZcbrL6r7mfPHixdou/YSxJGbFf/zHf4hjxQs1MUXvv//+r7/+Wu5qsFnLaWl4KLdF9wcNGiS6L9adBQsWaO3Y3Raf1a3Qn9ThAsSL+6eeekpM4Ojo6HvuuUcsEBH1b07W7Nu3T9zSuLg40TVxYdvrv4BVc/z4cbEii+cMcW2iTpcuXX7yk5/o/zLRfHl2fREv93/6058mJCRERUV9//vff/fdd/Xd/P3vf9+3b9/LL788JiZm4MCB2k126KDPdPYGu+Mnw0k1jHaHWOgfym3XjXZffZsGFXWf+mE3RO2i77Pqjl3fDV2T7M5oqOxPv/xheQ0+hr39qDM8lNuuG/buWuQNDMf66v/k9qv6L5xxPqldsMzN+myacri9lvV9psYb7K/dBLSsbGhcTNJOnTpFmD6H3u7aDIKbMnbDw6HjdouJ/hDLoDRY3sjhp38ot+3GjM/vUziMGf/de++9d955p6Hw4MGD8gp9jpMx0C5b3n/Lag5da3Cs+gIc6g4j0NCyw1UFxHzBfq42Dgt1s9w6/eH+30b5UGtWY74Yjd1VOdwQn/1tDJR4Fnv88ceTkpLE8pWWljZr1iz5eXkOt9ru1A599NXvFSIjI9u0aXPTTTfNnDlT/xxqdx98VtGxqyzPYrf+WB4VRE8D1cQ3mdmnVdAE9zTt3L7zZUt+Nm440C5M5vbRvCxecIefa6+9du7cucZSN2j2CTN79myx4htLoTBGe9AY7e7FsA8aw95/zR4sAN7EQm3ADUGTYbAB/gjzrOLJkydfffXVqKgo7RuL3KXpf4fZtWvXu+++++233x4+fHjx4sUxMTEu/V3dgxjtgWK0hwGGfaAY9kFr+mAB8CYWagNuCJoMgw0IQphnFcUvAImJidqn7bhO0/8OI1bSm266SSygrVq16tq1q1hGg/iGLzQLRnugGO1hgGEfKIZ90Jo+WAC8iYXagBuCJsNgA4IQ5llFL/jiiy+MRUD4YsADCC1WFUAdzEfVEBFFEAhvIu5wBbKKrvfSSy8Zi4DwxYAHEFqsKoA6mI+qISKKIBDeRNzhCmQVXY+1Bp7CgAcQWqwqgDqYj6ohIoogEN5E3OEKZBVdj7UGnsKABxBarCqAOpiPqiEiiiAQ3kTc4QpkFV2PtQaewoAHEFqsKoA6mI+qISKKIBDeRNzhCmQVXY/PcIWnMOABhBarCqAO5qNqiIgiCIQ3EXe4AllFAAAAAAAAAIEhqwgAAAAAAAAgMGQVAQAAAAAAAASGrCIAAAAAAACAwJBVdD0+wxWewoAHEFqsKoA6mI+qISKKIBDeRNzhCmQVXY/vm4enMOABhBarCqAO5qNqiIgiCIQ3EXe4AllF12Otgacw4AGEFqsKoA7mo2qIiCIIhDcRd7gCWUXXY62BpzDgAYQWqwqgDuajaoiIIgiENxF3uAJZRddjrYGnMOABhBarCqAO5qNqiIgiCIQ3EXe4AllF1+MzXOEpDHgAocWqAqiD+agaIqIIAuFNxB2uQFbRc7766quIiIizZ89+8803MTEx1dXVxhp1tGrGHc3N+bIBAAAAAADQBMgqhrMdO3aMHDkyISEhOjo6LS0tMzOzuLjYz3Shn9VCSJ7xs88+E/+eO3dOlOTk5AwdOjQqKqpNmzZ9+/b94IMPjMc0FfO1AQAAAAAAeBlZxbCVnZ0dGxu7YMGCsrIy8TAvL2/q1Knr1q3zM13oZ7UQMmTuKisr27ZtO3fu3Orq6traWrH3008/NR7TVMgqAgAAAAAA6JFVDFu9e/eePXu2sVSXLtTnDSsqKp544omkpKSYmJhevXrt3LlTv3fPnj2dO3f+7W9/K7bnz5/fsWPHqKio1NRUy4+PPXHixOjRo+Pi4hISEjIzM2tqanz1J12xYkWPHj3EsTfccINo03CgIXO3e/dusXH69GnLavLC8vPzhw0bFh0dLTr7yiuvyAP9P5eWM5UPtWPfeOONtLS02NjY8ePHyzpkFQEAAAAAAPTIKrqe5We4FhQUREREHDx40LjDJqs4evToW265JT8/X2wfOHDg6NGj2t4NGzYkJyd/+OGHYtfhw4dF4aZNm8R2WVnZ7t27L277/xk+fLhorbKysqioqG/fvlOnTvXVnzQjI6OkpKS6unrcuHGDBw82HnmxqqqqDh063HPPPatWrTp+/LhWrr/s22677Qc/+IGoeeLECdGgPjPofC7nrOL9998vrr+wsFBc/9NPP33xoWhmlgMeAILGqgKog/moGiKiCALhTcQdrkBW0fUs3zC4a9euiIiIiooK4w6rrOLJkyfFhjjEXG3hwoWpqanbtm2ThcePH2/ZsmVWVlZpaam+sqawsFActW/fPvlw6dKlycnJvvrW8vLyZPmWLVtatWqlHWUnNzf30Ucf7dy5szh24MCBe/fu9emuX55L1JGV33//fX1m0PlczllF8/VDHZYDHgCCxqoCqIP5qBoioggC4U3EHa5AVtH1LNeaY8eORUREHDp0yLjDKqsoU5CVlZXmaldcccXPfvYzffnKlSvT09NjY2OHDBmSnZ2t3yXs3LlT39TWrVsjIyN99lk87UBnojujRo3q06ePT9eU4Vzbtm3TZwadz2VXR26Yrx/qsBzwABA0VhVAHcxH1RARRRAIbyLucAWyiq5nt9b07t17zpw5xlKrrKJ8r6Lhz5m1d+116dLll7/8pX6XUF1dPWPGjISEBEO54b2Ky5Yt079X0ZzF0w5s0JYtW1q0aOHTNXX8+PEI3XsVV6xY4X9Wcc+ePaKwuLhYPlyzZo3+WP31X3HFFf97GBRgN+ABIDisKoA6mI+qISKKIBDeRNzhCmQVXc9urcnOzo6Li8vKyiovL/fVfbHJtGnT1q9fb84qir1jxoxJT08vKCjwmT5X8dixYz179vzxj3984cKFQ4cObdy4saampra2dt68eUlJSYaTCsOGDRs7dqz8rMN+/fpNmTLFF1RW8ciRI6Jr8qMeS0tLx40bN3DgQN/FTd16660PPfTQmTNniouLhwwZ4n9WUeyNj4+fOXPm+fPnRWcNxz7wwAOVlZXy+n/605/qD0SzsxvwABAcVhVAHcxH1RARRRAIbyLucAWyiq7n8BmuO3bsGDFiREJCQkxMTFpa2uTJk0+dOmWZVSwvL3/ssccSExNjY2N79eq1a9cu/d6TJ0/279//Rz/60d/+9rdBgwbFxcVFRUWJEvNfQPvq3q44cuRIUad9+/YTJ06srq72BZVVFCe97777UlJSoqOj27VrJ9qUf9CtbyovLy89PV1+B/TLL78cGRl54cIFP8+1evXqLl26iGNFjxYvXqzPKsrvgBY37ZFHHqmqqjIciOblMOABIAisKoA6mI+qISKKIBDeRNzhCmQVESbee++9xn+ziiEjCQAAAISZoqKiJUuWlJSUGHcAABAgsopwsX379skvhj58+HCfPn0yMzONNQJEVhEAAABhLycnp1u3bk888cT27duN+wAA8BtZRbiYeD0k/4q5Xbt2EyZMMHyNdRDIKgIAAMAL1q5dm5qampKSMnjw4Ndff523LgIAgkBWEQAAAAA8Z+3atR07dkxOTr7uuuu6dOnCWxcBAIEiq+h6fIYrPIUBDyC0WFUAdTAfm56WWBS6dOnSo0cP/VsXiYgiCIQ3EXe4AllF15MvAgAAAACgkTp16iT+7d69++bNm1966SXj7x5oDgTCm4g7XIGsouux1sBTGPAAQotVBVAH87HpLV++PDU1VeYTr7/++r59+958883aexWJiCIIhDcRd7gCWUXXY62BpzDgAYQWqwqgDuZjE5MpxU6dOg0cOPCaa66ZNGmS4XMViYgiCIQ3EXe4AllF12Otgacw4AGEFqsKoA7mY1Navnx5x44dU1NT9W9ONCAiiiAQ3kTc4QpkFV2Pz3CFpzDgAYQWqwqgDuZjk8nJybn22mvNb040ICKKIBDeRNzhCmQVAQAAAMArioqKlixZYvnmRAAAAkJWEQAAAAAAAEBgyCoCAAAAAAAACAxZRQAAAAAAAACBIavoenyGKzyFAQ8gtFhVAHUwH1VDRBRBILyJuMMVyCq6Ht83D09hwAMILVYVQB3MR9UQEUUQCG8i7nAFsoqux1oDT2HAAwgtVhVAHcxH1RARRRAIbyLucAWyiq7HWgNPYcADCC1WFUAdzEfVEBFFEAhvIu5wBbKKrsdaA09hwAMILVYVQB3MR9UQEUUQCG8i7nAFsoquF/LPcP3mm29iYmKqq6uNOxx99dVXERERZ8+eNe7wJO7GpRPyAQ/A41hVAHUwH1VDRBRBILyJuMMVyCp6kcx5xcTExMXFtW3btl+/flOnTi0qKjLWC0R45NFC1YtQtaOssO8gAAAAAABwRlbRi/QpofPnz+/ateuHP/xhUlLSwYMHjVX9Fh5pplD1IlTtqKOmpkb/MPw6CAAAAAAAAkJW0YssU0Jjxox58MEHDXvnz5/fsWPHqKio1NRU+bEOcu8bb7yRlpYWGxs7fvx4WVN/1GuvvdajRw+xNz4+fvTo0YWFhaJw0aJFffv21U737bfftmzZ8siRI5Zn0bM7o8/mREJ+fv6wYcOio6N79+79yiuviMPPnTsnysvLyydMmNC+fXtRX7RTVVWlnUUoLS0V1yDfxSm8+uqrovDEiROi5bi4uISEhMzMTENyTaqoqHjiiSeSkpLEUb169dq5c6e85hUrVojLE23ecMMNe/bskZXtGrQrt7w5zh3xmUIsH8qb4H+D8qh33nmnW7dul19+uTzcZ3Wj7ILrEDvLMwIAAAAAALcgq+hFllnFDz/8MDExUb/38OHDYmPTpk2isKysbPfu3dre+++/v7KysrCwsG/fvk8//bShzY8++ujbb7/11WXKhg8ffu+998oWYmJivvzyS3m6adOm3XXXXWLD8ix6dmf02ZxIuO22237wgx9UVVWJ8sGDB2sJtbFjx44aNUqcpby8XNSfPHly/Un+yXxnRLXRo0eLUxcVFYlTT506VVf9n0SFW265JT8/X2wfOHDg6NGjsp2MjIySkpLq6upx48aJy5CV7Rq0LLe7OYF2RMsqBtSgPOqBBx4Q5WfOnKlv+38b1Nq3C65D7CzPCAAAAAAA3IKsousF8Rmu5tyZkJOT06JFC/3e48ePt2zZMisrq7S0VKsm9+7bt08+XLp0aXJysv4oraa0efPmqKgouf3oo48+/vjjvro/u05NTV2xYoXYtjyLnt0ZDbQTFRYWivq5ubmy/P3335cJteLi4sjISK187dq1MouqZ+iFbMr51CdPnhR1du3apS+U7eTl5cmHW7ZsadWqlc++Qbtyy5sTREe0rGJADcqjDhw4oNXUmMNtGVy72Nmd0R9BDHgAcMCqAqiD+agaIqIIAuFNxB2uQFbR9cx/Mtwgc0rIZ/VeRbG9cuXK9PT02NjYIUOGZGdna3srKyvlUVu3bo2MjDQfNWjQoHbt2rVp00YcK8rPnz8vyr/88ktRUlVVtXr16qSkpO+++042Yj6Lnt0ZfTYn2rlzp77+tm3bZEJt165dYiO+njikdevWtbW1sppkuDOGpvSn1shmtTqSXVLPrkG7cp/VzQmiI9oF+AJp0HKcSOZdlsG1i53dGbXWHAQx4AHAAasKoA7mo2qIiCIIhDcRd7gCWUXXC2KtMaeEfHV/kfrQQw9Z7q2urp4xY0ZCQoK2V3v32bJly6644gr9UfLdcO+99544SpR/8sknWj5L6N+//1tvvTVy5Mif//zn/2y9nv4senZntDuRKI/QvVdxxYoVsryoqEhsFBQU1DdsYceOHfq+G95CKE5t915Fwx9u2yX17Bq0K9fob44/HdmzZ4+oU1xcLB+uWbNGHwWffw2aR4LGcKMkc3DtYmd3Rn8EMeABwAGrCqAO5qNqiIgiCIQ3EXe4AllF1wtirdFni2pra/fs2TNhwoSkpCT5GYXa3kOHDm3cuLGmpkbUmTdvnqig7X3ggQcqKytPnDjRr1+/n/70p/qjDh48KDbWrVsnCvPy8m677TZ9Puu1117r06fPZZddtn//fllieRY9uzM6nOjWW2996KGHzpw5U1xcPGTIEK18xIgRGRkZp0+f9tUl8sR5LzpT/ecY7t27VysZNmzY2LFj5Uc0ilNPmTJFV/2fxowZk56eLnNk+s9VNGcVffYNWpbb3ZwGOyJOHR8fP3PmzPPnz4vr0W5CQA06ZBXNN8pnFVy72PlszuiPIAY8ADhgVQHUwXxUDRFRBIHwJuIOVyCr6HpBrDUy1xMTExMXFxcfH3/99ddPmTKlqKhIv/fs2bO5ubmDBg0SdaKiovr376//C2j5rb6ihUceeUT/fcEyAzV37twOHTrExsYOGDDgtdde02cVy8vLRXl6erp8KFieRc/ujD77E+Xl5YlTyO+AfvnllyMjIy9cuOCr+1KRxx57LDExURzSvXv3+fPn608kTZw4Uf5Z7qJFi3x1Ca+RI0eKy2vfvr3YJd8XaSA6pTXbq1evXbt2OWQV7Rq0LLe7Of50ZPXq1V26dBE3QbSwePFieQEBNeiQVfSZbpTPKrgOsbM8oz+CGPAA4IBVBVAH81E1REQRBMKbiDtcgayi6zX4Ga4lJSVLlizRkoaN5JxpatCFCxe6dOnyxz/+0bjDXiPP+N5775n/bBmXgjm4jYydpQYHPAAEhFUFUAfzUTVERBEEwpuIO1yBrGI42759+/jx43v27JmTk2PcF6xG5omWL1+enJxs+Y4/O0Gccd++ffKPcw8fPtynT5/MzExjDVwC5uAGETsAAAAAAOAKZBXDUElJyYIFC/r06ZOSktK5c+cQphR9jcsTJSUlJScnr1692rjDURBnFF2Wf/zbrl27CRMmGL6gGZeCZXCDiB0AAAAAAHAFsophZfv27Q8++OCVV16ZmpratWvX0L5LEQAAAAAAAJDIKoYD7c2JV111VXKdnnVIKQIAAAAAAOBSIKvoellZWZ07d5bJRI0oWbRo0UsvvSS25VdHsc12eGw/9dRTluVss80228Fti1XFspxtttlu+m3mo1LbAl8WoQgC4U3EHa5AVtH1xPN9SUnJ7Nmze/bs2bFjx+Q6N954Y69evXivIsKPfKULAKHCqgKog/moGiKiCALhTcQdrkBW0fX0a83nn39+7733ytziddddR2IR4YcnVwChxaoCqIP5qBoioggC4U3EHa5AVtH1zGuN9tbFlJSULl26kFhEODEPeABoDFYVQB3MR9UQEUUQCG8i7nAFsoqu57DWfP755xkZGXxtC8KJw4AHgCCwqgDqYD6qhogogkB4E3GHK5BVdL0GP8O1pKRkyZIlRUVFxh2ACzU44AEgIKwqgDqYj6ohIoogEN5E3OEKZBUBAAAAAAAABIasIgAAAAAAAIDAkFUEAAAAAAAAEBiyigAAAAAAAAACQ1bR9fgMV3gKAx5AaLGqAOpgPqqGiCiCQHgTcYcrkFV0Pb5vHp7CgAcQWqwqgDqYj6ohIoogEN5E3OEKZBVdj7UGnsKABxBarCqAOpiPqiEiiiAQ3kTc4QpkFV2PtQaewoAHEFqsKoA6mI+qISKKIBDeRNzhCmQVXY+1Bp7CgAcQWqwqgDqYj6ohIoogEN5E3OEKZBVdL9DPcP3qq68iIiLOnj1r3BFGZB/PnTtn3AH3C3TAA4AzVhVAHcxH1RARRRAIbyLucAWyiuFsx44dI0eOTEhIiI6OTktLy8zMLC4uVjarmJOTM3To0KioqDZt2vTt2/eDDz7wBZsDDTqr6M/prrnmmm3btmkP/TnEWeNbAAAAAAAAaGJkFcNWdnZ2bGzsggULysrKxMO8vLypU6euW7dOzRxWZWVl27Zt586dW11dXVtbKy7y008/9QWbcbt0WcU9e/akpqZeuHBBK2nwkAYF0UJNTY2xyIqf1QAAAAAAAAJFVjFs9e7de/bs2cbS+hzWihUrevToERUVdcMNN+zZs0fuOnHixOjRo+Pi4hISEjIzM7WclF35/PnzO3bsKBpJTU3VPvShvLx8woQJ7du3j4+PHz9+fFVVlUNlze7du8VVnT59Wl9YWloq6ovymDqvvvqqIQGnzx4WFBTccccd0dHRouOvvPKKVm55PZY3wXw63bX806xZs5588kl9iV1O0PK8QkVFxRNPPJGUlCRO0atXr88++8zPPsqNd955p1u3bpdffrkosTyFuZp2SQAAAAAAAKFCVjE8FRQUREREHDx40LijPuuUkZFRUlJSXV09bty4wYMHy13Dhw8fPXp0ZWVlUVFR3759p06d6lB++PBh0c6mTZvEdllZ2e7du2XlsWPHjho1SpSUl5eLAydPnuxQWVNVVdWhQ4d77rln1apVx48f18otU2zmjJvYHjZsmHaRAwYM0Motr8fuJtilCDX9+/ffsGGDvsTuEMvzCuIib7nllvz8fLF94MCBo0ePWnbK3Ee58cADD4g2z5w5Y3cKczUAAAAAAICQI6voepaf4bpr166IiIiKigrjjvqsU15enny4ZcuWVq1aiY3CwkJRvm/fPlm+dOnS5ORkh/Ljx4+3bNkyKyurtLRU7hKKi4sjIyNzc3Plw7Vr1yYmJtpVNhBHPfroo507dxanGzhw4N69e302KTZzxs1wkcuXL5fldtdjdxPsUoSSqN+2bdvvvvtOX2h5iN15T548KSqL6OgrW3bK3Ee5ceDAAVludwpDtfBjOeABIGisKoA6mI+qISKKIBDeRNzhCmQVXc/818TCsWPHIiIiDh06ZNxhn7TauXOn2KisrJTlW7dujYyMFBt25cLKlSvT09NjY2OHDBmSnZ3tq89mxtdr06ZN69ata2trLSvbERc/atSoPn36+Gyu1p+Ll+V212PXjmWKULNgwYKMjAxDoeUhdueV5dp1SpYX0+C12Z3C8nrCieWAB4CgsaoA6mA+qoaIKIJAeBNxhyuQVXQ9u7Wmd+/ec+bMMZbaJ60Mb/dbtmyZ5XsVtXJNdXX1jBkzEhISxHZRUZGoXFBQoK+gp6/sYMuWLS1atPDVfY21/mr37NkjHhYXF8uHa9assbx47b2KdtdjdxMMpzNIT08XLRsKLbN4dueV71U0/AG4n300nMjuFJbXE07sBjwABIdVBVAH81E1REQRBMKbiDtcgayi69mtNdnZ2XFxcVlZWeXl5eJhfn7+tGnT1q9fb5dQ89V9NOHYsWOrqqpOnDjRr1+/KVOmyDqW5YcOHdq4cWNNTU1tbe28efOSkpJk5REjRmRkZMjvXSksLBR1HCprjhw5IjoiP22wtLR03LhxAwcO9NV/IKP8a2hBXHZ8fPzMmTPPnz9/9OjRIUOGaBefnp6uXeSgQYO0csvrsbsJhtPpnTp1KiYmxvxH5fJYcc1n68k/kbY8rzBmzBhxqTIbKD9X0c8+mtOFlqcwVwszdgMeAILDqgKog/moGiKiCALhTcQdrkBW0fUc1podO3aMGDEiISEhJiYmLS1t8uTJp06dskuo+eoyUyNHjoyLi2vfvv3EiROrq6tlHcvy3NzcQYMGicKoqKj+/ftrf9RcVlb22GOPJSYmxsbGdu/eff78+Q6VNSdPnrzvvvtSUlKio6PbtWsnTqf9+bY4o/wj30WLFomHq1ev7tKli6gmGly8eLF28fn5+cOGDTN/B7Tl9TjcBMPpNG+++ebdd9+tL5HksXoPP/ywz+a8vrrvhtbKe/XqJT9j0Z8+mtOFlqcwVwszDgMeAILAqgKog/moGiKiCAIRToqKipYsWVJSUmLcYULc4QpkFV2Pz3BtGiNHjly8eLGxFE2OAQ8gtFhVAHUwH1VDRBRBIMJMTk5Ojx49Jk6cuH37duM+HeIOVyCrCPjlxRdf1D7rEAAAAACA4Hz22WedOnVKTU0dOnTo66+/7s9bFwE1kVUEAAAAAABoOp999tlVV12Vmprav3//q6++usG3LgJqIqsIAAAAAADQpGRiMblO9+7dr7vuOt66CNchq+h6cg0CAAAAAADulZKSIv7t2rXr5s2bjb/5A0oiq+h6fIYrPIUBDyC0WFUAdTAfVUNEFEEgwlVOTk737t07deokU4pi47rrrvvNb34j36tI3OEKZBVdj++bh6cw4AGEFqsKoA7mo2qIiCIIRFiSKcWOHTumpKR06tRpzJgxW7du1Vcg7nAFsoqux1oDT2HAAwgtVhVAHcxH1RARRRCI8JOTk5OWlpaSkqJ/c6IBcYcrkFV0PdYaeAoDHkBosaoA6mA+qoaIKIJAhJmcnJwePXrcd999hjcnGhB3uAJZRddjrYGnMOABhBarCqAO5qNqiIgiCEQ4KSoqWrJkieWbEw2IO1yBrKLr8Rmu8BQGPIDQYlUB1MF8VA0RUQSB8CbiDlcgqwgAAAAAAAAgMGQVAQAAAAAAAASGrCIAAAAAAACAwJBVBAAAAAAAABAYsoqux2e4wlMY8ABCi1UFUAfzUTVERBEEwpuIO1yBrKLr8X3z8BQGPIDQYlUB1MF8VA0RUQSB8CbiDlcgq+h6rDXwFAY8gNBiVQHUwXxUDRFRBIHwJuIOVyCr6HqsNfAUBjyA0GJVAdTBfFQNEVEEgfAm4g5XIKvoeqw18JQgBvxXX30VERFx9uxZ444wIvt47tw54w4ADQliVQFwiTAfVUNEFEEgvIm4wxXIKroen+EKT3Ee8Dt27Bg5cmRCQkJ0dHRaWlpmZmZxcbGyWcWcnJyhQ4dGRUW1adOmb9++H3zwgS/YHGjQWUV/TnfNNdds27ZNe+jPIc4a3wIQQs6rCoCmxHxUDRFRBIHwJuIOVyCrCCBMZGdnx8bGLliwoKysTDzMy8ubOnXqunXr1MxhVVZWtm3bdu7cudXV1bW1teIiP/30U1+wGbdLl1Xcs2dPamrqhQsXtJIGD2lQEC3U1NQYi6z4WQ0AAAAA0HhkFQGEid69e8+ePdtYWp/DWrFiRY8ePaKiom644YY9e/bIXSdOnBg9enRcXFxCQkJmZqaWk7Irnz9/fseOHUUjqamp2p8klJeXT5gwoX379vHx8ePHj6+qqnKorNm9e7e4qtOnT+sLS0tLRX1RHlPn1VdfNSTg9NnDgoKCO+64Izo6WnT8lVde0cotr8fyJphPp7uWf5o1a9aTTz6pL7HLCVqeV6ioqHjiiSeSkpLEKXr16vXZZ5/52Ue58c4773Tr1u3yyy8XJZanMFfTLgkAAAAAcOmQVQQQDgoKCiIiIg4ePGjcUZ91ysjIKCkpqa6uHjdu3ODBg+Wu4cOHjx49urKysqioqG/fvlOnTnUoP3z4sGhn06ZNYrusrGz37t2y8tixY0eNGiVKysvLxYGTJ092qKypqqrq0KHDPffcs2rVquPHj2vllik2c8ZNbA8bNky7yAEDBmjlltdjdxPsUoSa/v37b9iwQV9id4jleQVxkbfcckt+fr7YPnDgwNGjRy07Ze6j3HjggQdEm2fOnLE7hbkaAAAAAKAJkFUEEA527doVERFRUVFh3FGfdcrLy5MPt2zZ0qpVK7FRWFgoyvft2yfLly5dmpyc7FB+/Pjxli1bZmVllZaWyl1CcXFxZGRkbm6ufLh27drExES7ygbiqEcffbRz587idAMHDty7d6/PJsVmzrgZLnL58uWy3O567G6CXYpQEvXbtm373Xff6QstD7E778mTJ0VlER19ZctOmfsoNw4cOCDL7U5hqAYAAAAAaBpkFV2Pz3CFp9gN+GPHjkVERBw6dMi4wz5ptXPnTrFRWVkpy7du3RoZGSk27MqFlStXpqenx8bGDhkyJDs721efzYyv16ZNm9atW9fW1lpWtiMuftSoUX369PHZXK0/Fy/L7a7Hrh3LFKFmwYIFGRkZhkLLQ+zOK8u165QsL6bBa7M7heX1AP6zW1UAND3mo2qIiCIIhDcRd7gCWUXXM39eGxDGHAZ8796958yZYyy1T1oZ3u63bNkyy/cqauWa6urqGTNmJCQkiO2ioiJRuaCgQF9BT1/ZwZYtW1q0aOGr+xpr/dXu2bNHPCwuLpYP16xZY3nx2nsV7a7H7iYYTmeQnp4uWjYUWmbx7M4r36to+ANwP/toOJHdKSyvB/Cfw6oCoIkxH1VDRBRBILyJuMMVyCq6HmsNPMVhwGdnZ8fFxWVlZZWXl4uH+fn506ZNW79+vV1CzVf30YRjx46tqqo6ceJEv379pkyZIutYlh86dGjjxo01NTW1tbXz5s1LSkqSlUeMGJGRkSG/d6WwsFDUcaisOXLkiOiL/LTB0tLScePGDRw40Ff/gYzyr6EFcdnx8fEzZ848f/780aNHhwwZol18enq6dpGDBg3Syi2vx+4mGE6nd+rUqZiYGPMflctjxTWfrSf/RNryvMKYMWPEpcpsoPxcRT/7aE4XWp7CXA0IiMOqAqCJMR9VQ0QUQSC8ibjDFcgquh5rDTzFecDv2LFjxIgRCQkJMTExaWlpkydPPnXqlF1CzVeXmRo5cmRcXFz79u0nTpxYXV0t61iW5+bmDho0SBRGRUX1799f+6PmsrKyxx57LDExMTY2tnv37vPnz3eorDl58uR9992XkpISHR3drl07cTrtz7fFGeUf+S5atEg8XL16dZcuXUQ10eDixYu1i8/Pzx82bJj5O6Atr8fhJhhOp3nzzTfvvvtufYkkj9V7+OGHfTbn9dV9N7RW3qtXL/kZi/700ZwutDyFuRoQEOdVBUBTYj6qhogogkCEk6KioiVLlpSUlBh3mBB3uAJZRddjrYGnMOCbzMiRIxcvXmwsBcIOqwqgDuajaoiIIghEmMnJyenZs+ekSZO2b99u3KdD3OEKZBVdj89whacw4JvMiy++qH3WIRDGWFUAdTAfVUNEFEEgws8nn3xy5ZVXpqam3nLLLa+//rrlWxeJO1yBrCIAAAAAAEDTkYnFzp0733zzzddcc02Db10E1ERWEQAAAAAAoEnJxGJynYEDB/br18/hrYuAmsgqAnAT+aQLAAAAAGGmc+fO4t+uXbtu3rzZ+IsQoCSyigAAAAAAAE0qJyenR48eV199tUwppqSkdO/effr06bxXES5CVtH1+AxXeAoDHkBosaoA6mA+qoaIKIJAhCWZUkxLS0tOTk5NTb3rrrsM708k7nAFsoqux/fNw1MY8ABCi1UFUAfzUTVERBEEIvzk5OR07tzZ+c2JxB2uQFbR9Vhr4CkMeAChxaoCqIP5qBoioggCEWbkuxTvuece5w9PJO5wBbKKrsdaA09hwAMILVYVQB3MR9UQEUUQiHBSVFS0ZMkSyzcnGhB3uAJZRddjrYGnMOABhBarCqAO5qNqiIgiCIQ3EXe4AllF1+MzXOEpDHgAocWqAqiD+agaIqIIAuFNxB2uQFYRAAAAAAAAQGDIKgIAAAAAAAAIDFlFAAAAAAAAAIEhqwgAAAAAAAAgMGQVXY/PcIWnMOABhBarCqAO5qNqiIgiCIQ3EXe4AllF1+P75uEpDHgAocWqAqiD+agaIqIIAuFNxB2uQFbR9Vhr4CkMeAChxaoCqIP5qBoioggC4U3EHa5AVtH1WGvgKQx4AKEV6Kry1VdfRUREnD171rgDQKMFOh9xqRERRRAIbyLucAWyiq7HWgNPYcADCC2HVWXHjh0jR45MSEiIjo5OS0vLzMwsLi5WNquYk5MzdOjQqKioNm3a9O3b94MPPvDV50Bj6ojyO++8869//av+KMs+6isATclhPqJZEBFFEAhvIu5wBbKKrsdnuMJTGPAAQstuVcnOzo6NjV2wYEFZWZl4mJeXN3Xq1HXr1qmZVaysrGzbtu3cuXOrq6tra2vFRX766ae+i99ZWVpaOmHChD59+mhH2fVRqwA0Mbv5iOZCRBRBILyJuMMVyCoCAAAY9e7de/bs2cbS+jzdihUrevToERUVdcMNN+zZs0fuOnHixOjRo+Pi4hISEjIzM2tqapzL58+f37FjR9FIamqq9n6E8vLyCRMmtG/fPj4+fvz48VVVVQ6VNbt37xZXdfr0aUO5IQf6+eeft2zZUttr10cAAADAH2QVAQAALlJQUBAREXHw4EHjjvo8XUZGRklJSXV19bhx4wYPHix3DR8+fPTo0ZWVlUVFRX379p06dapD+eHDh0U7mzZtEttlZWW7d++WlceOHTtq1ChRUl5eLg6cPHmyQ2VNVVVVhw4d7rnnnlWrVh0/flwr12cVT58+/cMf/nDo0KFyl0MfAQAAAH+QVQQAALjIrl27IiIiKioqjDvq83R5eXny4ZYtW1q1aiU2CgsLRfm+fftk+dKlS5OTkx3Kjx8/3rJly6ysrNLSUrlLKC4ujoyMzM3NlQ/Xrl2bmJhoV9lAHPXoo4927txZnG7gwIF79+711V9tfHx8bGys2EhLSysoKJD1HfoIAAAA+IOsIgAAwEWOHTsWERFx6NAh4w7T3xTLh+fOndu5c6fYqKyslOVbt26NjIwUG3blwsqVK9PT02NjY4cMGZKdne2rz/TF12vTpk3r1q1ra2stK9sRFz9q1Cj5+Yna1V64cGHbtm0JCQnPPvusVs2ujwAAAIA/yCq6Hp/hCk9hwAMILbtVpXfv3nPmzDGW2mcVDe9JXLZsmeV7FbVyTXV19YwZMxISEsR2UVGRqKy9ndBMX9nBli1bWrRo4TNd7eLFi1u3bq39ibRdH4HmYjcf0VyIiCIIhDcRd7gCWUXXM39kOxDGGPAAQstuVcnOzo6Li8vKyiovLxcP8/Pzp02btn79erusotgeNmzY2LFjq6qqTpw40a9fvylTpsg6luWHDh3auHFjTU1NbW3tvHnzkpKSZOURI0ZkZGTI710pLCwUdRwqa44cOSI6Ii7SV/ddz+PGjRs4cKDPlFUU19mtW7ef/exn8qFdH//ZKNDk7OYjmgsRUQSB8CbiDlcgq+h6rDXwFAY8gNByWFV27NgxYsSIhISEmJiYtLS0yZMnnzp1yiGrWFhYOHLkyLi4uPbt20+cOLG6ulrWsSzPzc0dNGiQKIyKiurfv7/2R81lZWWPPfZYYmJibGxs9+7d58+f71BZc/Lkyfvuuy8lJSU6Orpdu3bidPJPmw1XK/zxj38U3SkuLpYPLfuoVQaamMN8RLMgIoogEOGkqKhoyZIlJSUlxh0mxB2uQFbR9Vhr4CkMeAChxaoCqIP5qBoioggCEWZycnJ69uw5adKk7du3G/fpEHe4AllF12Otgacw4AGEFqsKoA7mo2qIiCIIRPjZsGHDlVdemZqaeuutt77++uuWb10k7nAFsoqux2e4wlMY8ABCi1UFUAfzUTVERBEEIiytWbOmY8eOvXv3vuuuu7p162Z+6yJxhyuQVQQAAAAAAGhSMrGYnJyclpZ21113DRgwwOGti4CayCoCAADvSgYAAFBD7969xb/dunXbvHmz8SULoCSyigAAAAAAAE1Kfm1Lr169tKxily5dMjMzi4qKjFUBVZFVBAAAAAAAaDoypditW7fk5OSUlJSbb7555cqVxkqA8sgquh6f4QpPYcADCC1WFUAdzEfVEBFFEIjwk5OT06VLl5SUFIc3JxJ3uAJZRdfj++bhKQx4AKHFqgKog/moGiKiCAIRZnJycnr06HHnnXc6vzmRuMMVyCq6HmsNPIUBDyC0WFUAdTAfVUNEFEEgwklRUdGSJUv8+ZZn4g5XIKvoeqw18BQGPIDQYlUB1MF8VA0RUQSB8CbiDlcgq+h6rDXwFAY8gNBiVQHUwXxUDRFRBIHwJuIOVyCr6Hp8his8hQEPILRYVQB1MB9VQ0QUQSC8ibjDFcgqAgAAAAAAAAgMWUUAAAAAAAAAgSGrCAAAAAAAACAwZBUBAAAAAAAABIasouvxGa7wFAY8gNBiVQHUwXxUDRFRBIHwJuIOVyCr6Hp83zw8hQEPILRYVQB1MB9VQ0QUQSC8ibjDFcgquh5rDTyFAQ8gtFhVAHUEMR+/+uqriIiIs2fPGne4hLz+c+fOGXfY+Oabb2JiYqqrq407Lo0gIoJLgUB4E3GHK5BVdD3WGngKAx5AaLGqAOpwno87duwYOXJkQkJCdHR0WlpaZmZmcXGx4lnF559/XlzeW2+9ZdxRL9CsYhNzjgiaDIHwJuIOVyCr6HqsNfAUBjyA0GJVAdThMB+zs7NjY2MXLFhQVlYmHubl5U2dOnXdunUqZxVra2vT0tKuv/76oUOHGvfVI6sIfxAIbyLucAWyiq7HZ7jCUxjwAEKLVQVQh8N87N279+zZs42l9Vm5FStW9OjRIyoq6oYbbtizZ4/cdeLEidGjR8fFxSUkJGRmZtbU1DiXz58/v2PHjqKR1NRU7Zf58vLyCRMmtG/fPj4+fvz48VVVVQ6VDdauXRsTE/PXv/41MjLyL3/5i1ZeUFBwxx13REdHi0698sorMqsoO/L+++/36tVL7LrxxhtFR1atWiXqiLP0799ftOPT/cW3Q8dDyCEiaEoEwpuIO1yBrCIAAAAAdRUUFERERBw8eNC4oz7LlpGRUVJSUl1dPW7cuMGDB8tdw4cPHz16dGVlZVFRUd++fadOnepQfvjwYdHOpk2bxHZZWdnu3btl5bFjx44aNUqUlJeXiwMnT57sUNlAHPjII4+IjVtvvTUzM1MrHzZsmHYBAwYM0GcVH3zwwX/84x+iI+PHj09LS3v44Ye1h//6r//qM2UVLTsOAECTIasIAAAAQF27du2KiIioqKgw7qjPsuXl5cmHW7ZsadWqldgoLCwU5fv27ZPlS5cuTU5Odig/fvx4y5Yts7KySktL5S6huLg4MjIyNzdXPly7dm1iYqJdZYOCggJxJRs2bBDbixcvbtu27ZkzZ3ymC1i+fLk+q6h15LPPPhMPRSPaQ9kvQ1bR3HEAAJoSWUUAAAAA6jp27FhERMShQ4eMO0zfAa19TOHOnTvFRmVlpSzfunVrZGSk2LArF1auXJmenh4bGztkyJDs7GxffTYzvl6bNm1at25dW1trWdlg1qxZKSkp58+fF9ulpaXiwDfffNNndQH6rKK5I4aHhqyiXX0AAJoGWUUAAAAASuvdu/ecOXOMpfZZRcNbApctW2b5XkWtXFNdXT1jxoyEhASxXVRUFKF7w6CZvrKe/J6Wyy+//Ip6rVq1kn+h7PxeRXNHDA/JKgIAlEJW0fX4DFd4CgMeQGixqgDqcJiP2dnZcXFxWVlZ5eXl4mF+fv60adPWr1/vkFwbNmzY2LFjq6qqTpw40a9fvylTpsg6luWHDh3auHFjTU1NbW3tvHnzkpKSZOURI0ZkZGScPn3aV5cQFHUcKms+/vjjFi1a7Nixo7CeuFRxYfILVdLT07ULGDRokMpZRYeIoCkRCG8i7nAFsoquZ/etc0BYYsADCC1WFUAdzvNxx44dI0aMSEhIiImJSUtLmzx58qlTpxySa4WFhSNHjoyLi2vfvv3EiROrq6tlHcvy3NzcQYMGiUL5hcvaHzWXlZU99thjiYmJsbGx3bt3nz9/vkNljbjOMWPGGAqHDBkyadIkX11KdNiwYZbfAW3ZEf3DJs4qOkcETYZAeBNxhyuQVXQ91hp4CgMeQGixqgDqYD6qhogogkCEk6KioiVLlpSUlBh3mBB3uAJZRddjrYGnMOABhBarCqAO5qNqiIgiCESYycnJ6dGjx/e+972PP/7YuE+HuMMVyCq6HmsNPIUBDyC0WFUAdTAfVUNEFEEgwk9OTk7nzp1TUlKuueaan/3sZ6dOnTLWIO5wCbKKrsdnuMJTGPAAQotVBVAH81E1REQRBCIsyXcsXn311cnJySkpKbfffrvhrYvEHa5AVhEAAAAAAKBJycRi9+7dk+s5vHURUBNZRQAAAADNT/u9GgC8qVu3bvLfzZs3G5dIQElkFQEAAAAAAJrU+vXrO3XqlJycLP5NT0+/8cYbb7311tdff92fb4gGFEFWEQAAAAAAoOnIlGL37t2HDRvWtWvXSZMmbd++3VgJUB5ZRdfjM1zhKQx4AKHFqgKog/moGiKiCAIRfjZu3HjllVempqY6vDmRuMMVyCq6Ht83D09hwAMILVYVQB3MR9UQEUUQiDCTk5PTs2fPBt+cSNzhCmQVXY+1Bp7CgAcQWqwqgDqYj6ohIoogEOGkqKhoyZIllm9ONCDucAWyiq7HWgNPYcADCC1WFUAdzEfVEBFFEAhvIu5wBbKKrsdaA09hwAMILVYVQB3MR9UQEUUQCG8i7nAFsoqux2e4wlP+f/buPriq6t7/eEIokicCSYgQlBAKTKBAgU4aolfIBDpt71QgpAqkIjd6aRHB1lrKtU6ldlrHFibeIg+94FivTSfIQ/WiBR0QfhdtEKEQotJLeWqgIQdSmgcTSArh/FazZHezz94rJ+HkZO2z368/nH3WWnvth+/e+5RPT87hggcQWjxVAH1wP+qGimiCQngTdYcrkCoCAAAAAAAA6BxSRQAAAAAAAACdQ6oIAAAAAAAAoHNIFQEAAAAAAAB0Dqmi6/EdrvAULngAocVTBdAH96NuqIgmKIQ3UXe4Aqmi64X89+YPHz4cHx/f0tJi7VA6ePBgVFTUlStXrB3h1dmdd9ptp/bgdXZP4A/utIf8go8wwZzDUJHbunr1qrUDcBWeKoA+uB91Q0U0QSG8ibrDFUgVXa8LzxqZBcTHxycmJvbv33/ChAnLly/3+XzWcZ0RziwjGEHuj9Mwp3bYCtXpCmaeLlzw+gjmAG9RGDZhcF2qGM6TAxdx9VMFiDDcj7qhIpqgEN5E3eEKpIqu14Vnjfmf1teuXauoqHjwwQfT0tJOnTplHRo03f65HuT+OA1zaoetUJ2uYObpwgXfg1pbW80vgznAWxSGTRj0TxXDf/7hRu56qgCRjftRN1REExTCm6g7XIFU0fW68Kyx/af17Nmz586da+ktKSkZMmRIbGxsenq63JDsffHFFzMyMhISEhYsWCBHmtdav359VlaW6E1KSiooKKipqRGN69atGz9+vLG5kydPxsTE/PnPf7bdikXgAMshGOmGXPD5fGJwVPvnMYW1a9f6HfYqmMNpbGwsLi5OTk4WK4oBzc3Nxo4Z1Ht47ty5/Pz8uLi4sWPHrl692ryrW7duFXslVpw0aVJlZaVlWvVhBu62mWKM7anwO+ynv6MzUF9fH3i2L1y4IGZOTExMSUlZsmSJJdyRPvnkk0WLFqWlpYm1xowZc+TIEcU5MSYUu2ee0GlDgRXxd3QgfucT7u/MhHKtV155ZeTIkX369DFCt8AT5XRTKGpnu0UzxbpOdQ/+0ITq6urp06cHXiRmtkVRFNcQAecfbmT7vgOgR3A/6oaKaIJCeBN1hyuQKrpeF77D1fJPd+m1115LTU019545c0Ys7N69WzQ2NDQcPXrU6L3vvvuamppqamrEv8mfeOIJy5xvvPGG+Pe5vz1cmDZt2r333itnEP+S/+CDD+TmnnzyyS9/+ctiwXYrZrYDnNIHoz3wGG33KpjDKSwsnDVrlth0Y2OjWHHp0qXGnFKHezh16tT777+/ublZbHry5MnmXS0qKqqrq2tpaZk/f77ossysPszA3TZTjLE9FX6H/fQHcQYCz7YYVlBQIDbt8/nEppcvX24a/ikx4J577jl37pxYPnHixNmzZxXnxJhQ7Lx5QtsN2VbE3/kDMU54pyaUa82ZM0e0X758+cbc/5zQmN/pplDUznaLZop1beveqUMT8vPzjROenZ1tXCRmtkVRFNcQAecfbtSFt1EA3YT7UTdURBMUwpuoO1yBVNGLAjMgoby8vFevXube8+fPx8TErFmzpr6+3hgme48dOyZfbtq0adCgQea1jJHSnj17YmNj5fLDDz/8rW99y9/+Z9fp6elbt24Vy7ZbMbMd4JQ+GO1O+yMZe9Xh4dTW1kZHRx8/flwO2LFjh8xezdR7WFNTIxaMGbZs2WLe1aqqKtm+b9++3r17G6tL6sMM3G2zYMb4TafCaT+DOQOW/ZRTqTd98eJFMaaiosLc6HROnCZ0aretSBcOxDjhnZpQrnXixAljpCHwsrS9KZxq57RFM6d1LYy6d+rQLCd88+bN8vwYKwaOsdxTgcU1i4DzDwAAAADeQaroRYH/tPbbfVZRLG/bti0vLy8hISE3N3fv3r1Gb1NTk1xr//794p/ZgWvl5OQMGDCgX79+Yl3RLv7FLto/+OAD0dLc3Lx9+/a0tLS///3vcpLArVgEDnBKH4z2wGO03asOD6eiokIsJN0g1u3bt29bW5sxraTYwyNHjpg38f7771t2VbYbh3Bjyn82Bo5x2m0zxRjbU+G0n8GcAct+Wqay3T05rTFGcjpepwmd2v12FenCgZiLEvyEgdeeIbDL9qZwqp3TFo3ZFOv6Heou24M8tMATbpwfQ+CYwEeE8TLIC97fmZ0MPMmGwK6Qn38AAAAA8A5SRS8K/Ke1v/0v++bNm2fb29LSsmLFipSUFKPX+BTPq6++evvtt5vXkp8qKisrE2uJ9nfeececHUycOPHll1+eOXPm97///U9nv8G8FVvmAZWVlWLa2tpa2fXmm2/KrRi7cejQIfNROO1Vh4fj8/nEQnV1tRygFnii5AmJMn0GcOvWrZZdle22IYv6MAN328xpjNOpcNrPYM6A5WxbPq0mNh34cTn5WUXLH7w7nROnCZ3aDeaKBHMgTifcGBDMhIF3kMFyoqTAm8Kpdk5bNHNa16nuxorBHFoXPqtoFMWpuMaK/og4/wAAAADgHaSKXmT+V3dbW5v4l3xxcXFaWpr8zjWj9/Tp07t27WptbRVjVq5cKQYYvXPmzGlqarpw4cKECRMef/xx81qnTp0SCzt37hSNVVVVU6dONecC69evHzdu3Gc+85k//elPssV2K2a2A8SGkpKSnnnmmWvXrp09ezY3N1duxdgN+UVsH3/8sZzEaa86PByxPGPGjKKiokuXLvnbExOxM8a+SbZ7aJ5hypQp8+bNu3z5cm1tbeCuyklsQxb1YQbutpnTGKdT4XfYT38QZ8Bytv3t375XWFgov6JRbHrZsmWm4Z+aPXt2Xl6ezGjM36toe06cJrRtt62IP4gDcTrhnZpQkWoFnii/3U3hVDu/wxbNnNZ1qnunDk0QJTNOeE5OjlEgM9uiKIpriIDzDwAAAADeQaroel34Dlf5b+b4+PjExETxb/jPf/7z4p/9Pp/P3Cv+TX78+PGcnBwxJjY2duLEieY/7JW/jipmeOCBB8y/uyr/Jf/cc88NHDgwISEhOztb/IvdnB00NjaK9ry8PPlSsN2KmdOA7du3Z2ZmxsXFid6NGzfKrZh3Y/HixfIPFdetW+d32KtgDqehoWHhwoWpqali3VGjRpWUlBj7JtnuoXmGqqoqccjyZ3Off/756Ojo69evBxOy+JWHGbjbZooxtqfC77Cf/iDOgD/gbNfU1MycOVOck+TkZNElPx9nIS4GY9oxY8ZUVFQozokxYb9+/cwT2m7ItiL+4A7E9oR3akJFquUPOFF+u5tCUTvbLZop1rWte6cOze/8Q+FmtkVRFNfM7ecfbtSFt1EA3YT7UTdURBMUwpuoO1yBVNH1Ovy9+bq6utLSUiM0vEXqf7F36Pr165mZmb/5zW+sHZ5RVlYW+OfAnRVMFYIZoxCS/ewOHV7wrhN4U9xi7dApnH9E3lMFcC/uR91QEU1QCG+i7nAFUkXXUzxrNm/e/PWvf3306NHl5eXWvq66xX9vi10aNGiQ7SfXItixY8fkH12eOXNm3LhxS5YssY7opGCqEMwYi5DvZ3dQXPAuFXhTdKF26DLOPyLvqQK4F/ejbqiIJiiEN1F3uAKpousFPmt8Pt/ixYszMzMHDx48fPjwEEaK/lv793ZaWpr41/v27dutHZFOlED+UeeAAQOKi4stP3zcBcFUIZgxFiHfz+4QeMG7mu1N0YXaoWs4//BH3FMFcDXuR91QEU1QCG+i7nAFUkXXMz9rNm/efPfddw9q9y//8i9jx44NbaQI9DjeXAGEFk8VQB/cj7qhIpqgEN5E3eEKpIqu9/vf/974cKLME4Wvfe1rRIqISHxpMYDQ4qkC6IP7UTdURBMUwpuoO1yBVNH19uzZY84TpYyMjHXr1q1atUosy/+Lg2WWWWaZZZZZZplllllmOchluQAAgAKpYiSoq6vbsGFDdnb2qFGj7rzzTvG/BsR/xTKfVQQAAAAAAEB3IFWMKAcOHPjmN785bNiwUaNGDRkyhGARAAAAAAAA3YFUMQIZH10cPHhwRkYGwSIAAAAAAABCi1TR9RTf4XrgwIFFixaNHj2aYBERQ3HBA0AX8FQB9MH9qBsqogkK4U3UHa5Aquh6HX6Pcl1dXWlpqc/ns3YALtThBQ8AncJTBdAH96NuqIgmKIQ3UXe4Aqmi6/GsgadwwQMILZ4qgD64H3VDRTRBIbyJusMVSBVdj2cNPIULHkBo8VQB9MH9qBsqogkK4U3UHa5Aquh6PGvgKVzwAEKLpwqgD+5H3VARTVAIb6LucAVSRdfjO1zhKVzwAEKLpwqgD+5H3VARTVAIb6LucAVSRQAAAAAAAACdQ6oIAAAAAAAAoHNIFQEAAAAAAAB0DqkiAAAAAAAAgM4hVXS94L/D9fDhw/Hx8S0tLQcPHoyKirpy5YqxYB0awFjX2hFGt7gP8mCvXr1q7TAJZkwwAk+1dQS6KvgLHgCCwVMF0Af3o26oiCYohDdRd7gCqaLr2f7evAyz4k0qKystvZ1KFSNAMIlhh2M6e8Y6Ox4dsr3gAaDLeKoA+uB+1A0V0QSF8CbqDlcgVXQ922eNOswKZ6rY2tpqbQqp4OfvMDH0BzGms2ess+PRIdsLHgC6jKcKoA/uR91QEU1QCG+i7nAFUkXXs33W2IZZgWGieVhJScmQIUNiY2PT09MD57SssnXr1qysLDF40qRJ5k9Bmge/8sorI0eO7NOnz9WrVxsbG4uLi5OTk5OSkhYsWNDc3CxHVldXT58+PS4ubuzYsatXr5aJnmXnjaTPsg9dnl92GZzGBM5ZX18vDjnqxodA165dK4atX79enIqEhAQxrKCgoKamxh9wuoI5wwgSpw5AaPFUAfTB/agbKqIJCuFN1B2uQKroerbPms6mimfOnBELu3fvFsMaGhqOHj1qXjFw3aKiorq6upaWlvnz50+ePNl28Jw5c8RUly9fFi2FhYWzZs0SLxsbG6dNm7Z06VI5Mj8/v6CgoKmpyefzZWdnW9JD82yBqWKX55ddBqcxtnMGntg33njj5MmTYuHChQti2L333mseFvwZRpBsL3gA6DKeKoA+uB91Q0U0QSG8ibrDFUgVXc/2O1xlmJV0w/Tp041G21Tx/PnzMTExa9asqa+vt87VzrJKVVWVbN+3b1/v3r1vHvvp4BMnTsiXtbW10dHRx48fly937NiRmpoqFmpqasSwY8eOyfbNmzfLRC/IVLHL88uXktMYpzkDU0WzPXv2xMbG+gNOVzBnGEGyveABoMt4qgD64H7UDRXRBIXwJuoOVyBVjEy24Vdg1GUetm3btry8vISEhNzc3L1795pXtF3X3G6J6ixjKioqokwRZ79+/fr27dvW1nbkyBHR3tTUJIft379fTuW0Cad96Oz88qXkNMZpzsATK85bTk7OgAEDxBhx9kTvtWvXbHdVfYYBAAAAAABchFQxMgWGX+bGwAVjTEtLy4oVK1JSUkzr/YPTKsGkij6fT7ysrq42j/E7f06wsrJSLNTW1sr2N998U7Y77UNn5w9mjNOchw4dMm9afgKxrKxMnDfx8p133lHvqt/5DAMAAAAAALgIqWJkCgyzzI2BC6dPn961a1dra2tbW9vKlSvT0tLMK9qua25Xp4rCjBkzioqKLl265G8P8sS2ZHteXl5hYWFzc/OFCxdycnLkVGLFpKSkZ5555tq1a2fPns3Nze0wquvU/MZa6jG2c8qvR/z444/luqdOnRIvd+7cKZarqqqmTp3qtKsdnmEAAAAAAAAXIVWMTIG5m7kxcOH48eM5OTmJiYmxsbETJ04M/PvcwFXM7R2mig0NDQsXLkxNTU1ISBg1alRJSYlsP3fuXH5+fuDvL2/fvj0zM1O0i73auHGjU1TX5fnNnMY4zbl48WL5Z9Hr1q0TL5977rmBAweKMdnZ2evXr3fa1Q7PMAAAAAAAgIuQKrpexHyHq21ACVhEzAUPQBM8VQB9cD/qhopogkJEEp/PV1paWldXZ+0IQN3hCqSKrhcxvzdPqohgRMwFD0ATPFUAfXA/6oaKaIJCRJjy8vKsrKy5c+ceOHDA2mdC3eEKpIquFzHPGlJFBCNiLngAmuCpAuiD+1E3VEQTFCLylJeXDx06dPDgwePGjfvFL35h+9FF6g5XIFV0PZ418BQueAChxVMF0Af3o26oiCYoREQqLy8fOXJkers777xzzpw5lo8uUne4Aqmi6/GsgadwwQMILZ4qgD64H3VDRTRBISKVESwOajd06FDzRxepO1yBVNH15AMIAAAAAAC43ciRI/fs2cOvtcAVSBUBAAAAAADC6r333svIyJBJ4vDhw0ePHj158uQNGzbYfs0ioCdSRQAAAAAAgPAxIsWxY8dmZmY+8sgj6p+EBvREqggAAAAAABAm77333h133DF48GA+nAi3I1UEAAAAAAAIh/Ly8qysLD6ciMhAquh6fIcrPIULHkBo8VQB9MH9qBsqogkKEUl8Pl9paWkwH06k7nAFUkXX4/fm4Slc8ABCi6cKoA/uR91QEU1QCG+i7nAFUkXX41kDT+GCBxBaPFUAfXA/6oaKaIJCeBN1hyuQKroezxp4Chc8gNDiqQLog/tRN1REExTCm6g7XIFU0fV41sBTuOABhBZPFUAf3I+6oSKaoBDeRN3hCqSKrsd3uMJTuOABhBZPFUAf3I+6oSKaoBDeRN3hCqSKAAAAAAAAADqHVBEAAAAAAABA55AqAgAAAAAAAOgcUkXPOXjwYFRU1JUrVw4fPhwfH9/S0mId0c4YZu3oaerdDj9tTxQAAAAAAED3IVV0PcV3uB46dGjmzJkpKSlxcXEZGRlLliypra0NMgULclgIyS2+++674r9Xr14VLeXl5XfddVdsbGy/fv3Gjx//29/+1rpOuATum6Ur+BNlGd/Z1aG44AGgC3iqAPrgftQNFdEEhfAm6g5XIFV0Paffm9+7d29CQsIvfvGLhoYG8bKqqmr58uU7d+4MMsYKclgIWZK7pqam/v37P/fccy0tLW1tbaL3f//3f63rhAupoj6cLngA6BqeKoA+uB91Q0U0QSG8ibrDFUgVXc/pWTN27Nif/vSn1lZTjGXOsz755JNFixalpaXFx8ePGTPmyJEj5t7Kysphw4b953/+p1guKSkZMmRIbGxsenq67aYvXLhQUFCQmJiYkpKyZMmS1tZW/42Nbt26NSsrS6w7adIkMadlRUtyd/ToUbFw6dIl22Fyx86dO5efnx8XFycOdvXq1XLF4LdlifaMdV988cWMjIyEhIQFCxbIMR2mik6rWDbx17/+VeySWIhvJ06g+eXatWv9t3ACPcL2qgOALuOpAuiD+1E3VEQTFMKbqDtcgVTR9WyfNdXV1VFRUadOnbJ2OKSKBQUF99xzz7lz58TyiRMnzp49a/S+/fbbgwYNeu2110TXmTNnROPu3bvFckNDw9GjR2+e+x+mTZsmZmtqavL5fOPHj1++fLn/xkaLiorq6upaWlrmz58/efJk65o3a25uHjhw4Ne+9rXXX3/9/PnzRrt5t6dOnXr//feLkRcuXBATysgvmG3ZRn7Guvfdd5/Y/5qaGrH/TzzxxM2rWjmtot6E4rOKoTqBkcr2ggeALuOpAuiD+1E3VEQTFMKbqDtcgVTR9WyfNRUVFVFRUZ988om1wy5VvHjxolgQqwQOe+GFF9LT099//33ZeP78+ZiYmDVr1tTX15sHG2pqasRax44dky83bdo0aNAg/43ZqqqqZPu+fft69+5trOXk+PHjDz/88LBhw8S6X/ziFz/++GO/af/ltsQYOXjLli3m2E69Ldtoz1g3cP8VnFZRb8IpVQztCYxIthc8AHQZTxVAH9yPuqEimqAQ3kTd4Qqkiq5n+x2uf/nLX6Kiok6fPm3tsEsVZQTZ1NQUOOz222//7ne/a27ftm1bXl5eQkJCbm7u3r17zV3CkSNHzFPt378/OjraH5CdGRGbsaKaOJxZs2aNGzfOb5rKsq33339fEdvZ/tly4Bi5ELj/Ck6rqDfhlCp20wmMJLYXPAB0GU8VQB/cj7qhIpqgEN5E3eEKpIoRa+zYsc8++6y11S5VlJ9VtPw5s+w9duxYZmbmU089Ze4SWlpaVqxYkZKSYmm3fNTu1VdfVX9wz1ixQ/v27evVq5ffNNX58+ejTJ9V3Lp1qyK2s2yrsrJSNNbW1sqXb775pnld8/7ffvvt/1zNjtMqTps4dOiQefcsL7vvBAIAAAAAAIQQqWLE2rt3b2Ji4po1axobG/3tP2zy5JNPvvXWW4GpouidPXt2Xl5edXW1P+B7Ff/yl7+MHj36scceu379+unTp3ft2tXa2trW1rZy5cq0tDTLRoX8/PzCwkL5XYcTJkxYtmyZv0uh2J///OdVq1bJr3qsr6+fP3/+F7/4Rf/NU02ZMmXevHmXL1+ura3Nzc01J4PqbYnepKSkZ5555tq1a+JgLevOmTOnqalJ7v/jjz9uXjGQ0ypOm5DfTSn/mtt/46sqjZf+0J1AAAAAAACA7kOqGMkOHTo0Y8aMlJSU+Pj4jIyMpUuX/vWvf7VNFRsbGxcuXJiampqQkDBmzJiKigpz78WLFydOnPjQQw/98Y9/zMnJSUxMjI2NFS2BfwHtb/+03cyZM8WY5OTkxYsXt7S0+LsUiomNfv3rXx88eHBcXNyAAQPEnPIPus1TVVVV5eXlyd+Afv7556Ojo69fvx7ktrZv356ZmSnWFUe0ceNGc6oof9BZnLQHHnigubnZsqKFYhXbTYh2cVqS2q1bty7wZahOIAAAAAAAQPchVUSEKCsr6/CXVTpkCe8AAAAAAAgVn89XWlpaV1dn7QDciVTR9bz8Ha7Hjh2Tfzt85syZcePGLVmyxDqik0gV9eflCx5Ad+CpAuiD+1E3VEQTFCLClJeXZ2VlPfTQQwcOHLD2mVB3uAKpout5+ffmxeNY/onxgAEDiouLLT9j3QWkivrz8gUPoDvwVAH0wf2oGyqiCQoRecS/ZO+8887BgwdPmjTpl7/8pe1HF6k7XIFU0fV41sBTuOABhBZPFUAf3I+6oSKaoBARqby8fPjw4YMGDRo2bFhGRkbgRxepO1yBVNH1eNbAU7jgAYQWTxVAH9yPuqEimqAQkcoIFoX09PTPfvaz5o8uUne4Aqmi68lnEAAAAAAAcLuRI0fu2bOHVBGuQKroenyHKzyFCx5AaPFUAfTB/agbKqIJChGpzJ9VHDJkyIgRI77whS/813/9l/ysInWHK5AqAgAAAAAAhI8RKWZmZtp+ryLgCqSKAAAAAAAAYWL8BrT5w4mAG5EqAgAAAAAAhEN5eXlWVhYfTkRkIFUEAAAAAADodj6fr7S0lA8nImKQKroe3+EKT+GCBxBaPFUAfXA/6oaKaIJCeBN1hyuQKroevzcPT+GCBxBaPFUAfXA/6oaKaIJCeBN1hyuQKroezxp4Chc8gNDiqQLog/tRN1REExTCm6g7XIFU0fV41sBTuOABhBZPFUAf3I+6oSKaoBDeRN3hCqSKrsezBp7CBQ8gtHiqAPrgftQNFdEEhfCm7qv7wYMHo6Kirly5cvjw4fj4+JaWFtsBV69etbTrxmn/QyiEm/jpT3+anJwsZtu7d6+1z81IFV2P73CFp3DBAwgtniqAPrgfdUNFNEEhvCnIus+YMWP+/PmWxry8vEcffdTSaDBSRWvHDR2mih3OoIOu7WTX1uqQz+eLjo4+cOCAtcP9SBUBAAAAAADc53e/+11sbGxdXZ3R8qc//Sk6OrqystI06iYdBmc9kiq2trZam26NYicV21KsdSv+8Ic/dGpaxR7qhlQRAAAAAADAfdra2oYOHbp69Wqj5Xvf+97kyZPl8vr167OyshISEpKSkgoKCmpqavym4MycoFVXV0+fPj0uLm7s2LFiNiNVDJyhvr4+NjZWDIhvt3btWjGssbGxuLg4OTlZDFuwYEFzc7PcgZKSkiFDhojx6enpgX/TLXfglVdeGTlyZJ8+fcQWneY5d+5cfn6+ZffM+2/ZUOBOBm4rmEMzb+LChQtiWGJiYkpKypIlS2TwJwds3bpVTCXWnTRpUmCe+9prrxnT3n777eqpjD18//33xcstW7aMGTNGHPgXvvAFMfPrr78uzoCYbeLEiR999JFlQz2CVBEAAAAAAMCVfvzjH48bN04ut7a2Dhw48Fe/+pV8+cYbb5w8edLfHmNNmzbt3nvv9Tukivn5+QUFBU1NTT6fLzs720gV1TPIrQiFhYWzZs1qaGhobGwUw5YuXSoaz5w5I4bt3r1bLIuuo0ePGuMlOc+cOXNE7+XLl53mEaZOnXr//fc3NzeL3Zg8ebIlVbTdkGUnA7cVzKGZX4oxxikaP3788uXLjQFFRUV1dXUtLS3z5883Il0zy7SKqYw9lC/nzp37t7/9Tcy8YMGCjIyMb3zjG8bLu++++6Zt9BBSRQAAAAAAAFeqrq7u3bv3+++/L5Y3bdrUv39/mZpZ7NmzJzY21m+XKtbU1IiFY8eOyZGbN2+Wsd1N69vNINtra2ujo6OPHz8uX+7YsSM1NVUsnD9/PiYmZs2aNfX19TfmuImc58SJE/Kl0zxy94z2LVu2yN0zdsN2Q7b5oLEtC6dDczpF4jwPGjTIGFBVVSXb9+3bJ2ohl83M06qnMvbQMvO7774rXopaGy9tNxR+pIquF+R3uAKRgQseQGjxVAH0wf2oGyqiCQrhTZ2q+6xZsx566CF/+0cOlyxZYrRv27YtJydnwIAB/fr1S0hIiIqKunbtWmCqeOTIEbHQ1NQk19q/f3/UjVRRPYMcX1FRIV4m3SBG9u3bt62tTa6el5cnVszNzQ387eMg57HsnvzTYMtfQAduyCkflC/lKh0emuIURUdHB04rXwYGsuZhnZrKaWanDYUfqaLrBX43ARDBuOABhBZPFUAf3I+6oSKaoBDe1Km679ixIz4+/vDhw9HR0R9++KFslJ/gKysra2lpES/feecdSxhnLDh9VtFphkOHDpkDL5/PF2X6GF0gsfqKFStSUlIs7ZbgzGkesRtRps8qbt261XIgxkjzhiw7aRkc5KE5naJXX33V/AFDp+zPYB7WqamcZnbaUPiRKrpep541gNtxwQMILZ4qgD64H3VDRTRBIbypU3Vva2vLyMjIzMy86667jMZTp05FRUXt3LlTLFdVVU2dOlXmUIGpohiQl5dXWFgov7gwJydHjnSaQX6P4ccff2xsa8aMGUVFRZcuXfK3p2a7du0SC6dPnxYLra2tYvdWrlyZlpZmjJcCY0HbeYQpU6bMmzfv8uXLtbW1ubm5lgOx3ZBlJy3bCvLQzGvl5+cbp2jChAnLli0LnNYp7LMMC34qp5mdNhR+pIqu16lnDeB2XPAAQounCqAP7kfdUBFNUAhv6mzdf/KTn0RFRb388svmxueee27gwIEJCQnZ2dnr16+3hHHm3Mr2R5adZhDtixcvln+nvG7dOn/7b6QsXLgwNTVVjBw1alRJSYloPH78eE5OTmJiovzN4g7/AtrvMI+/PfjLy8uTu/f8889HR0dfv37dWN1pQ+adDNxWMIdmXqumpmbmzJliK8nJyWKM/JCjOvszWIYFP5XTzE4bCj9SRdfr7LMGcDUueAChxVMF0Af3o26oiCYohDdRdydlZWXyT4ahA1JF1+vUd7gCbscFDyC0eKoA+uB+1A0V0QSF8Cbqbnbs2DH5V8lnzpwZN26c+Rdp0LNIFQEAAAAAAKCp8vLyzMzMuLi4AQMGFBcXGz+gjB5HqggAAAAAAACgc0gVAQAAAAAANDJIM9b9A9qRKgIAAAAAAMAeqSKckCq6Ht/hCk/hggcQWjxVAH1wP+qGimiCQniTVnUnVYQTUkXX4/fm4Slc8ABCi6cKoA/uR91QEU1QCG/Squ6kinBCquh6Wj1rgO7GBQ8gtHiqAPrgftQNFdEEhfAmrepOqggnpIqup9WzBuhuXPAAQounCqAP7kfdUBFNUAhv0qrupIpwQqroelo9a4DuxgUPILR4qgD64H7UDRXRBIXwJq3qTqoIJ6SKrqfVd7gC3Y0LHkBo8VQB9MH9qBsqogkK4U1a1Z1UEU5IFQEAAAAAAFysrq6utLTU5/NZO0KBVBFOSBUBAAAAAABc6cCBA4sWLcrKyiovL7f2hQipIpyQKgIAAAAAALhJXV3dhg0bcnJyBg8efMcdd7z33nvWEaFDqggnpIoAAAAAAADuID+cmJmZOWbMmEGDBg0bNqxbI0U/qSKckSq6nlbf4Qp0Ny54AKHFUwXQB/ejbqiIJiiENwXW3fhwYlZW1rBhwwa1C0Ok6CdVhDNSRdfT6vfmge7GBQ8gtHiqAPrgftQNFdEEhfAImRJqy7q7QDtSRdfjPQaewgUPILR4qgD64H7UDRXRBIXwCHVyJ3rr6upWr149fvz4jIwMmfSlp6ePGDGi+36kBegQqaLr8R4DT+GCBxBaPFUAfXA/6oaKaIJCeESHqaKxfODAgblz5955551DhgwZPHgwwSJ6EKmi6/EeA0/hggcQWjxVAH1wP+qGimiCQnhE8KmiZHx0cfDgwUOHDiVYRI8gVXS9wO9wBSIYFzyA0OKpAuiD+1E3VEQTFMIjAnNDM0XvgQMH5s2bl5WVRbCI8CNVBAAAAAAA6EmK3NDfUa+//aOLpaWlPp/P2gF0J1JFAAAAAACAnqTODdW9QE8hVQQAAAAAAOhJ6txQ3Qv0FFJFAAAAAACAnqTODdW9QE8hVXQ9vrsXnsIFDyC0eKoA+uB+1A0V0QSF8Ah1bqjuBXoKqaLrrVq1ytoERC4ueAChxVMF0Af3o26oiCYohEeoc0N1L9BTSBVdj/cYeAoXPIDQ4qkC6IP7UTdURBMUwiPUuaG6F+gppIqux3sMPIULHkBo8VQB9MH9qBsqogkK4RHq3FDdC/QUUkXX4z0GnsIFDyC0eKoA+uB+1A0V0QSF8Ah1bqjuBXoKqaLr8d298BQueAChxVMF0Af3o26oiCYohEeoc0N1L9BTSBUBAAAAAAB6kjo3VPcCPYVUEQAAAAAAoCepc0N1L9BTSBUBAAAAAAB6kjo3VPcCPYVUEQAAAAAAoCepc0N1L9BTVKliZWXlo5Hi2WeffT5Cfec737E2AZGLCx5AaPFUAfTB/agbKqIJCuERycnJe52JXusKQE84e/asOTlUpYqPPvpoFAAAAAAAAADP+8UvfmFODjtOFb/2ta8962YLFy4UR7FkyZJfRKiCggJrExC5uOABhBZPFUAf3I+6oSKaoBAekZyc/P+ciV7rCkB4zZo1qyup4rPPPvs3N9u+fbs4ir1791oPL1KsWrXK2gRELi54AKHFUwXQB/ejbqiIJiiER6i/OVHdC4TB888/T6oYgXiPgadwwQMILZ4qgD64H3VDRTRBITxCnRuqe4Ew6OFUUf4B9po1a6wd3SziU8Xf//731iYgcnHBAwgtniqAPrgfdUNFNEEhPEKdG6p7gTDQK1UMW8jYhVRR7pvw1FNP3X333WLhf/7nf4zeiRMnipZdu3aZ1rCSqwcumzm1mwUzRljRztpqJ5gdk8SEcoBiDAAAAAAAuHXq3FDdC4QBqWKw5L6VlZVVVlZu2LBBLN93332y69ixY+LlHXfc0dbWdvNKN5EzyOWydjf3/4N5jJNgxviDHua/eWfUa3344YdipHoMAAAAAAC4dercUN0LhEE4UsW33nprwoQJ/fr169WrV2Ji4t133/3mm2/KLplPyRhRLpvdNEtIyd+Afvfdd62H50zuklxuaGiIjY3t27dvfX29ePmDH/xAdD355JOyd8uWLRkZGZ/5zGfEgNzc3MOHDwfOYF4+ceLE+PHj4+Pjn376aXO7mdOY5ubmb3/724MHD+7du/dnP/vZdevWyXY5xiAbO7tjv/zlL4cOHRoTEyNqJ8bLRssYAAAAAADQHdS5oboXCINwpIqvvPLK3Xff/eCDDy5cuDAnJ0esHhsb+6c//elvN6eKixYtki/z8vIWtbNOFCKPPPKI2Mp3vvMd67EpWaK0efPmiZcbN268fv36sGHDxPL//d//ya49e/aIE7p+/fof/vCHt91228SJEwNnMC9/5StfEcvi5Dz88MOWrRicxhQXF4vlWbNmiUIWFhaK5W3btvnbP34oh5k/h9jZHYuPjx81atTLL7/8wgsvFBUVyUbLGAAAAAAA0B3UuaG6FwiDcKSKwmuvvfaDH/xg8eLF//7v/y4zqf/+7//+W8CfPFtedoeuRYr+gCjt7bffFi+nTJny7rvvioWcnByjq6ysLD09XY4XYmJiZLt5BvNyXFycWG5sbGxoaDC3mzmNSUxMlC8NDz/8sL/9u3vlS/Mknd2x7OxsMf/cuXN/9KMf7d+/XzZaxgA64MuqAYQWTxVAH9yPuqEimqAQHqHODdW9QBiEI1V86KGHZA5ltnbt2r8FxIiWlyHX5UjRHxCltbW1DRkyJDo6+l//9V9Fu/Gnx0JycrI8il27dvXv399YyzyDeVkmhg0NDfX19ZatGJzG9OvXL+rGtqTKykrRvmrVqsCpOrtjYlsvvfTSE088MWLECNH4+uuvB44BdCAueGsTANwCniqAPrgfdUNFNEEhPEKdG6p7gTAIR6rYt29fscojjzxSU1Pzxz/+UWZS5u9SNGLE6Oho8fKFF164af0QuZVI0W8Xpf3Hf/yHbLztttvE/EZ7amqqaPzZz3722GOPmddyWnb662YzpzHyCyInTJiwYcOGjRs3it5Fixb5299jZOAoTubOnTvl4M7u2Lx589atW/frX/966tSporGkpCRwDKAD/kcVgNDiqQLog/tRN1REExTCI9S5oboXCINwpIrDhw8Xq2TRwhk/AACAAElEQVRmZhYXF48aNUpmUrap4tChQ8XLESNGfPOb3wzt9yreYqTot4vSjIT061//url906ZNaWlpCQkJy5Yty8jIMNYyz2BePnHixLhx4+Li4sR4c7uZ05iWlpYnn3xy2LBhvXv3TkxMzMnJKS0t9be/x/z85z9PSkoSIz/3uc/JwZ3dsS996Uupqam9evXq37//nDlz5E/TWMYAOuB/VAEILZ4qgD64H3VDRTRBITxCnRuqe4EwCEequGvXrs997nO9e/cePnz4b37zG5lJ2aaKZWVlI0aMiImJke03zXILbj1S9N+I0mpra5ubm619+umm9xhx7OIMyFNh7QN6Tjdd8AA8i6cKoA/uR91QEU1QCI9Q54bqXiAMwpEq9qyQRIr+G6mi8NRTT1n79NNN3927YsUK4zxY+4Ce000XPADP4qkC6IP7UTdURBMUwiPUuaG6FwiDCE8VQxUpCsbPoZw8edLa5xmnTp0yzoO1DwAAAAAAhI46N1T3AmHQxVRx4cKF27Unf8kkJJEiAAAAAABAOKlzQ3UvEAZdTBXdgkgRAAAAAAC4kTo3VPcCYdDpVPHZZ58VKyxZsmSv9t59913r3gMAAAAAALiBOjdU9wJh0OlU0XYF6Ibv7oWncMEDCC2eKoA+uB91Q0U0QSE8Qp0bqnuBMLANCUkVXW/VqlXWJiByccEDCC2eKoA+uB91Q0U0QSE8Qp0bqnuBMLANCUkVXY/3GHgKFzyA0OKpAuiD+1E3VEQTFMIj1LmhuhcIA9uQkFTR9XiPgadwwQMILZ4qgD64H3VDRTRBITxCnRuqe4EwsA0JSRVdj/cYeAoXPIDQ4qkC6IP7UTdURBMUwiPUuaG6FwgD25CQVNH1+O5eeAoXPIDQ4qkC6IP7UTdURBPdXYiDBw+Kf/hfvXo1yHZ0E3VuqO4FwsA2JCRVBAAAAAAgMv3kJz8R/65/+eWXrR03OKWHTu0eIQ//ypUr1o5uo84N1b1AGNiGhKSKAAAAAABEoLa2toyMjM9//vN33XWXte8Gp/TQqT20WltbrU16IFUELGxDQlJFAAAAAAAi0I4dO+Lj4z/66KPo6OgPP/zQaK+urp4+fXpcXNzYsWNXr15tpIdO7QZL1mZOHktKSoYMGRIbG5uenm58F2RjY2NxcXFycnJSUtKCBQuam5uNtV555ZWRI0f26dPHson169dnZWUlJCSIVQoKCmpqamT7J598smjRorS0NHFEY8aMOXLkiFPjhQsXxIqJiYkpKSlLliyRwaXTnsuFrVu3io2KnZ80aVJlZWV9fb1YFu3x7dauXfvpznUndW6o7gXCwDYkJFUEAAAAACACzZo164EHHhALU6ZMWbJkidGen59fUFDQ1NTk8/mys7ONZNCp3eCUzZ05c0Ys7N69WzQ2NDQcPXpUDigsLBT7IFoaGxunTZu2dOlSY605c+aI9suXL9+Y+1NvvPHGyZMn/e3hoFjl3nvvle1ix+65555z586J5RMnTpw9e9apUaxlHMX48eOXL1/ud95zuVBUVFRXV9fS0jJ//vzJkycHjg8DdW6o7gXCwDYkJFV0ve7+7l5AK1zwAEKLpwqgD+5H3VARTXS5ENXV1b1793777bfF8saNG/v37y8jvJqaGvEv/WPHjslhmzdvlvmaU/uN+f7BKZs7f/58TEzMmjVr6uvrjcG1tbXR0dHHjx+XL3fs2JGammqsdeLECWOkkz179sTGxoqFixcvilUqKirMvbaNlqPYtGmTzOOc9lwuVFVVyfZ9+/aJkxY4PgzUuaG6FwgD25CQVNH1jM+WA17ABQ8gtHiqAPrgftQNFdFElwvx4x//ePDgwdeuXRPL9fX1ffv2/dWvfiWWjxw5Iv6l39TUJIft379f5mtO7Z9O184pmxPL27Zty8vLS0hIyM3N3bt3r2ipqKgQvUk39OvXT+xDW1ubOrAT8+Tk5AwYMECMF7OJkeIQ5FTGvkm2jYFHER0d7Xfe8yDbw0CdG6p7gTCwDQlJFV2vy+8xgBtxwQMILZ4qgD64H3VDRTTRtULI32np06fP7Tf07t1b/m2v02cSndqNOYXKykrRWFtbK1+++eabljEtLS0rVqxISUkRyz6fT/RWV1cbvZIisJOfeSwrKxPziJfvvPOOnF9+LNH4w2rJttFyFK+++qrM45z23ClVPHTokNNOdhN1bqjuBcLANiQkVXS9rr3HAC7FBQ8gtHiqAPrgftQNFdFE1wrxu9/9rlevXocOHaq54a233hL/wK+srBS9eXl5hYWFzc3NFy5cyMnJMZJBp3bDlStXkpKSnnnmmWvXrp09ezY3N1eOOX369K5du1pbW9va2lauXJmWlibHz5gxo6io6NKlS/72vE+M8StTxVOnTomunTt3iuWqqqqpU6ca+zB79myxezKjNL5C0bYxPz/fOIoJEyYsW7bM77znTqmi/KbIjz/++NM9637q3FDdC4SBbUhIquh6XXuPAVyKCx5AaPFUAfTB/agbKqKJDgtRV1dXWlrq8/nMjTNmzJg9e7a5RcjNzX300UfFwrlz5/Lz8wN/69mp3Wz79u2ZmZliTE5OzsaNG+WY48ePi5eJiYmxsbETJ06UfwHtb//lloULF6ampiYkJIwaNaqkpMSvTBWF5557buDAgWJ8dnb2+vXrjX1obGw0phozZoz8OkXbxpqampkzZ4qdSU5OXrx4sfzYo99hz51SRbEs1pV/u71u3TrZ263UuaG6FwgD25CQVNH1uvzdvYAbccEDCC2eKoA+uB91Q0U0oSjEgQMHHn300dGjR5eXl1v74Dbq3FDdC4SBbUhIqggAAAAAgGvU1dVt2LBhypQp6enpd955p/yzYridOjdU9wJhYBsSkioCAAAAAOAC8sOJI0aMyMvLGzly5B133PH2229bB8Gd1LmhuhcIA9uQkFQRAAAAAAB9GR9OnDRp0tSpU9PT0wcNGkSkGGHUuaG6FwgD25CQVBEAAAAAAE3t2bNn5MiRgwYNGjFixCBENGvtTdS9QBjYhoSkiq6n+O5eIPJwwQMILZ4qgD64H3VDRTQhCnHp0qXvfe97I0aMGDx4sIyfRo0alZWVxY+0RBJ1bqjuBcLANiQkVXS9VatWWZuAyMUFDyC0eKoA+uB+1A0V0YS5EDt37pw2bZrMFocPH06wGEnUuaG6FwgD25CQVNH1eLOHp3DBAwgtniqAPrgfdUNFNBFYCPNHF4cNG0awGBnUuaG6FwgD25CQVNH1At9jgAjGBQ8gtHiqAPrgftQNFdGEohA7d+786le/yicWI4M6N1T3AmFgGxKSKrqe4j0GiDxc8ABCi6cKoA/uR91QEU10WIi6urrS0lKfz2ftgKuoc0N1LxAGtiEhqaLr8SXK8BQueAChxVMF0Af3o26oiCYohEeoc0N1LxAGtiEhqSIAAAAAAEBPUueG6l4gDGxDQlJFAAAAAACAnqTODdW9QBjYhoSkigAAAAAAAD1JnRuqe4EwsA0JSRUBAAAAAAB6kjo3VPcCYWAbEpIquh7f3QtP4YIHEFo8VQB9cD/qhopogkJ4hDo3VPcCYWAbEpIqut6qVausTUDk4oIHEFo8VQB9cD/qhopogkJ4hDo3VPcCYWAbEpIquh7vMfAULngAocVTBdAH96NuqIgmKIRHqHNDdS8QBrYhIami6/EeA0/hggcQWjxVAH1wP+qGimiCQniEOjdU9wJhYBsSkiq6Hu8x8BQueAChxVMF0Af3o26oiCYoREgcPHgwKirq6tWrQbY76ez44KlzQ3UvEAa2ISGpouvx3b3wFC54AKHFUwXQB/ejbqiIJpwKIeOtK1euWFq6I/DqcYEH21lOJ8ep3UlnxwdPnRuqe4EwsA0JSRUBAAAAAHCZwKDt1gOv1tZWa5MeAg+2s5xOjlO7k86OD546N1T3AmFgGxKSKgIAAAAA4DKBQZs58CopKRkyZEhsbGx6errxN9SNjY3FxcXJyclJSUkLFixobm421nrllVdGjhzZp08fS162fv36rKyshIQEsUpBQUFNTY1s/+STTxYtWpSWlhYfHz9mzJgjR444NV64cEGsmJiYmJKSsmTJEhlcWnbe2HO5sHXrVrFRsfOTJk2qrKysr68Xy6I9vt3atWs/3bkbnHayurp6+vTpcXFxY8eOXb16tXFynNptz49ifGipc0N1LxAGtiEhqSIAAAAAAC6jSBXPnDkjFnbv3i0aGxoajh49KgcUFhbOmjVLtDQ2Nk6bNm3p0qXGWnPmzBHtly9fNmaT3njjjZMnT/rbw0Gxyr333ivbCwoK7rnnnnPnzonlEydOnD171qlRrCXam5qafD7f+PHjly9f7g/YeUuqWFRUVFdX19LSMn/+/MmTJweOt3Dayfz8fGPT2dnZRhro1G57fhTjQ0udG6p7gTCwDQlJFQEAAAAAcJnAoM3I5s6fPx8TE7NmzZr6+nqjt7a2Njo6+vjx4/Lljh07UlNTjbVOnDhhjHSyZ8+e2NhYsXDx4kWxSkVFhbnXtrGmpkY0Hjt2TL7ctGmTTMfUqWJVVZVs37dvX+/evQPHKxg7adn05s2b5Sac2p3Oj9N4+TKE1LmhuhcIA9uQkFTR9Zy+uxeISFzwAEKLpwqgD+5H3VARTTgV4g9/+IP4B7vxV7rCgQMHREtbW5tY3rZtW15eXkJCQm5u7t69e0VLRUWF6E26oV+/fn379hWD1YGdmCcnJ2fAgAFivJhNjLx27ZqcqqmpyTzStvHIkSPmxv3790dHR/sDUkJLqthhu4XtTgZuWk7l1O50fpzGy5chpM4N1b1AGNiGhKSKrmd8RwbgBVzwAEKLpwqgD+5H3VARTTgV4vz581Gmz9D5TZ8ENLS0tKxYsSIlJUUs+3w+Mb66uto8wB8Q8JnJzzyWlZWJecTLd955RwZq8mOJxh9WS7aNlg/6vfrqq3IPKysrRXttba1sf/PNN+XMTqnioUOHOruTTp8xdGp3Oj9O428eFQLq3FDdC4SBbUhIquh6Tu8xQETiggcQWjxVAH1wP+qGimhCUYhp06bNnDnz4sWLYvnkyZPjx4///ve/L5ZPnz69a9eu1tbWtra2lStXpqWlyfEzZswoKiq6dOmSvz0sE2P8ylTx1KlTomvnzp1iuaqqaurUqUagNnv27Ly8PJnBGV+haNuYn59fWFjY3Nx84cKFCRMmLFu2TDSKzSUlJT3zzDPXrl0Tw3Jzc+XMTqmi/KbIjz/++NM9M1HspNgZY9M5OTkdttueH8X40FLnhupeIAxsQ0JSRddTvMcAkYcLHkBo8VQB9MH9qBsqoglFIf7617/+27/928CBA+Pj44cOHfqDH/zg73//u2g/fvx4Tk5OYmJibGzsxIkT5V9A+9t/uWXhwoWpqakJCQmjRo0qKSnxK1NF4bnnnhPzi/HZ2dnr1683ArXGxkZjqjFjxsivU7RtrKmpmTlzptiZ5OTkxYsXy08UCtu3b8/MzIyLixO7unHjRnWqKJbFuvJvk9etWyd7DU47ee7cufz8/MDfbnZqtz0/ivGhpc4N1b1AGNiGhKSKrqd4jwEiDxc8gNDiqQLog/tRN1REExTC1Xw+X2lpaV1dnbUjgDo3VPcCYWAbEpIqup7Td/cCEYkLHkBo8VQB9MH9qBsqogkK4Xbl5eVZWVnTp0/fvHmztc9EnRuqe4EwsA0JSRUBAAAAAAC6S3l5eWZm5uDBg8V/H3nkEZ/PZx3RUW6o7gXCwDYkJFUEAAAAAADoRuXl5aNHjx41atSgdnfffbflo4vq3FDdC4SBbUhIqggAAAAAANC9ZLA4duxYGSwK5o8uqnNDdS8QBrYhIakiAAAAAACaWrVq1aBBg+RvtrDs9uVZs2YNGTJk0A3jxo0T/x05cuSePXsGKXNDdS8QBrYhIami6/HdvfAULngAocVTBdAH96NuqIgmKETE2L59u4wUhw0b9tWvfvWLX/zilClTNmzYIH8hWp0bqnuBMLANCUkVXU/+/x6AR3DBAwgtniqAPrgfdUNFNEEhIoOMFMeNG/eVr3xl5MiRjz766IEDB8wD1LmhuhcIA9uQkFTR9XiPgadwwQMILZ4qgD64H3VDRTRBISLAW2+9deedd6anp5s/nGihzg3VvUAY2IaEpIqux3sMPIULHkBo8VQB9MH9qBsqogkK4XbyR1oCP5xooc4N1b1AGNiGhKSKrsd7DDyFCx5AaPFUAfTB/agbKqIJCuFqPp+vtLTU9sOJFurcUN0LhIFtSEiq6Hp8dy88hQseQGjxVAH0wf2oGyqiCQrhEercUN0LhIFtSEiqCAAAAAAA0JPUuaG6FwgD25CQVBEAAAAAAKAnqXNDdS8QBrYhIakiAAAAAABAT1LnhupeIAxsQ0JSRQAAAAAAgJ6kzg3VvUAY2IaEpIqux3f3wlO44AGEFk8VQB/cj7qhIpqgEB6hzg3VvUAY2IaEpIqut2rVKmsTELm44AGEFk8VQB/cj7qhIpqgEB6hzg3VvUAY2IaEpIqux3sMPIULHkBo8VQB9MH9qBsqogkK4RHq3FDdC4SBbUhIquh6PfIec/DgQXFtXL169fDhw/Hx8S0tLdYRmpE7fOXKFWtHR9xygN7RIxc8gAjGUwXQB/ejbqiIJiiER6hzQ3UvEAa2ISGpout14T1GRmzx7fr16/elL33po48+sg5SMlJFa0eXdDby6+x4f5dWgZ66cMEDgAJPFUAf3I+6oSKaoBAeoc4N1b1AGNiGhKSKrteF7+41R2z19fXFxcXjxo2zDlJSp4qtra3WJqXORn6dHe/v0irQUxcueABQ4KkC6IP7UTdURBMUwiPUuaG6FwgD25CQVNGLLBHbe++9FxMTY/Q2NjYWFxcnJycnJSUtWLCgublZtldXV0+fPj0uLm7s2LGrV6+WqaIxlVx45ZVXRo4c2adPH9HlNM8nn3yyaNGitLS0+Pj4MWPGvPvuu7GxsVE3Pju5du1aMaakpGTIkCGiPT093fJ/zdXX1weOv3DhQkFBQWJiYkpKypIlSwJjTfMhOw0+d+5cfn6++gC3bt2alZUldmDSpEmVlZU3bePGVl588cWMjIyEhARx1MZJXr9+vVhRNIqzIbZeU1Mj22036neuAgAAAAAg8qhzQ3UvEAa2ISGpoheZI7ZLly49+OCDd911l9FbWFg4a9ashoaGxsbGadOmLV26VLbn5+cXFBQ0NTX5fL7s7Gzb0G3OnDlixcuXLyvmEZPcc889586dE8snTpw4e/asJeU8c+aMeLl7926xLFY/evSobDcEfvBQzG/s2/jx45cvX24a/g/mVZwGT5069f77729ubr5w4cLkyZNtD7CoqKiurq6lpWX+/PlizE3buLGV++67T0xeU1MjJn/iiSdk1xtvvHHy5El/e6YpduDee++V7bYb9TufPQAAAABA5FHnhupeIAxsQ0JSRS+S4VdSUlJCQoJYyMjIqK6ull21tbXR0dHHjx+XL3fs2JGamioWampqxMhjx47J9s2bN9uGbidOnFDPc/HiRTGsoqJCtkuWlPD8+fMxMTFr1qypr683DzNYxlv2bdOmTYEPXGMVp8Gy3djhLVu22B5gVVWVHLBv377evXvLZYMcEzi5xZ49e2JjY/3OG3U6ewAAAACAiGT7j0eDuhcIA9uQkFTRi4yk7Pr16++//35KSsrTTz8tuyoqKqLaA0epX79+ffv2bWtrO3LkiGhvamqSw/bv328buhlJn9M8st2YR7KsK2zbti0vLy8hISE3N3fv3r3/HNrOMj5w36Kjo/85up2xitNgS7s4LeoDlC8t3ywpGwMn97cfUU5OzoABA8SpkGHutWvXnDbqdPbkMAAAAABAhFHnhupeIAxsQ0JSRdfrwnf3WgKyjRs39u3b9/z582LZ5/OJLuOji4YgP6tozOk0j/ysouWPmg8dOmRe19DS0rJixYqUlBRLu2W8Zd9effXVwAeusXtOg8XhR5k+Nrh161b1ASpSRfPkt99+u//Gpy/LysrEEYmX77zzjlzXaaNOZw/+Ll3wAKDAUwXQB/ejbqiIJiiERwT+M9ZM3QuEgW1ISKroepYfMwmGJSC7evXqyJEjv/vd78qXM2bMKCoqunTpkr89sNu1a5dsz8vLKywslN8AmJOTow7dFPPMnj1bTCUjM/m9ivKLFD/++GM54PTp02Jwa2trW1vbypUr09LSbkz5Kct4f/t3Phr7NmHChGXLlpmG/4N595wGT5kyZd68eZcvX66trc3NzVUfoCJVnDNnTlNTk5z88ccfF+2nTp0S7Tt37hTLVVVVU6dONda13ajf+eyhCxc8ACjwVAH0wf2oGyqiCQrhEercUN0LhIFtSEiq6HpdeI8JTAB/85vfxMfH19bW+tt/IGXhwoWpqakJCQmjRo0qKSmRY2x/rdgpdFPM09jYaLSPGTNGfsfi4sWL5V/7rlu37vjx4zk5OYmJibGxsRMnTgz8C2j/zeP97bnbzJkzxSrJycmiS34k0My8e06Dq6qq8vLy5AGKiz86Ovr69etOB6hIFeVvQIvz+cADDxi/3fzcc88NHDhQHHJ2dvb69euNdW036nc+e+jCBQ8ACjxVAH1wP+qGimiCQniEOjdU9wJhYBsSkiq6XofvMXV1daWlpT6fz9oBZ2VlZV14agdGq53StY16TYcXPAB0Ck8VQB/cj7qhIpqgEB6h/seguhcIA9uQkFTR9RTvMS+99FJhYeHo0aPLy8utfQhw7Ngx+VfVZ86cGTdu3JIlS6wjOtKFVPHWN+o1igseALqApwqgD+5H3VARTVAIj1DnhupeIAxsQ0JSRdcL/O7eM2fOFBcXDx06dPDgwcOHDydSDJI4UZmZmXFxcQMGDBAn0PJD1cHoQqp46xv1msALHgBuBU8VQB/cj7qhIpqgEB6hzg3VvUAY2IaEpIoR5aWXXsrOzh7ULj8/f+zYsUSKAAAAAABoTp0bqnuBMLANCUkVI4Hx4USZJwr3338/kSIAAAAAAK6gzg3VvUAY2IaEpIqut2fPnszMTCNPlDIyMtatW7dq1SqxLL+Gg2WWWWaZZZZZZplllllmmWWWWdZzeZAyN1T3AmFgGxKSKkaCurq6DRs2TJ48efTo0cOHDxePm/T09JEjR/JZRQAAAAAA9KfODdW9QBjYhoSkiq5n/u7eAwcOPPLII5mZmWPHjiVYRETiy6oBhBZPFUAf3I+6oSKaoBAeoc4N1b1AGNiGhKSKric/LG1mfHQxPT09IyODYBGRJPCCB4BbwVMF0Af3o26oiCYohEeoc0N1LxAGtiEhqaLrKd5jDhw4sHjx4tGjRxMsImIoLngA6AKeKoA+uB91Q0U0QSE8Qp0bqnuBMLANCUkVXa/D95i6urrS0lKfz2ftAFyowwseADqFpwqgD+5H3VARTVAIj1DnhupeIAxsQ0JSRdfjPQaewgUPILR4qgD64H7UDRXRBIXwCHVuqO4FwsA2JCRVdD2+uxeewgUPILR4qgD64H7UDRXRBIXwCHVuqO4FwsA2JCRVBAAAAAAA6Enq3FDdC4SBbUjYcaoo/OhHPxIvxX9ZZplllllmmWWWWWaZZZZZZpllllkO5/KgQYNs21lmOWzLX/nKV6K6kCryWUUAAAAAAIDuo/40oroXCAPbkLDTqWLUDU899ZTx0jzgFpkndJrcqd0smDHCinbWVjvB7JgkJpQDFGMAAAAAAAAkdW6o7gXCwD4kNL+wsF+hXVlZWWVlpfHSPOAWmScsa3dz/z8Es9FgxviDHua/eWfUa3344YdipHpMCPHdvfAULngAocVTBdAH96NuqIgmKIRHqHNDdS8QBvYhofmFhf0KN4dl5pdy+Yc//GFSUtLAgQN/+9vfisb58+eLxrffflssnzt3rlevXuPHjxfLW7ZsycjI+MxnPtO3b9/c3NzDhw87TSiXT5w4IVaMj49/+umnze1mTmOam5u//e1vDx48uHfv3p/97GfXrVsn2+UYg2zs7I798pe/HDp0aExMTL9+/cR42WgZ061WrVplbQIiFxc8gNDiqQLog/tRN1REExTCI9S5oboXCAP7kND8wsJ+hZvDMvNLuTx79uwf/vCHYmHYsGGicd++fWJ5/vz5YvlnP/uZWF6zZo1Y3rNnj5h5/fr1YvBtt902ceJEpwnlsvxWyIULFz788MPmdjOnMcXFxWJ51qxZ4ogKCwvF8rZt2/ztHz+Uw8yfQ+zsjsXHx48aNerll19+4YUXioqKZKNlTLfiPQaewgUPILR4qgD64H7UDRXRBIXwCHVuqO4FwsA+JDS/sLBf4eawzPxSLtfW1l69elUsREdHy/asrKz4+PimpqZx48bFxsbW1dX52xO99PR0uYoQExPjNKFcjouLE8uNjY0NDQ3mdjOnMYmJifKl4eGHH5Zd8uU/p+j8jmVnZ4v5586d+6Mf/Wj//v2y0TKmW/EeA0/hggcQWjxVAH1wP+qGimiCQniEOjdU9wJhYB8Sml9Y2K9wc1hmfum0vHLlSrG8bNky8d8HH3xQNiYnJ0e1f25x165d/fv3t13RvCwTw4aGhvr6enO7mdOYfv36Rd3YliS/FNIfcDj+zu+Y2NZLL730xBNPjBgxQjS+/vrrgWO6Fe8x8BQueAChxVMF0Af3o26oiCYohEeoc0N1LxAG9iGh+YWF/Qo3h2Xml07LFy9e7NOnT3R0tGh57733ZGNqaqp4+bOf/eyxxx5zWtG87PTXzWZOY0SLWJ4wYcKGDRs2btwoehctWiS7ZOD4wgsv7Ny5U7Z0dsfmzZu3bt26X//611OnThWNJSUlgWO6Fd/dC0/hggcQWjxVAH1wP+qGimiCQniEOjdU9wJhYB8Sml9Y2K9wc1hmfum0LNx3333i5ejRo42WTZs2paWlJSQkLFu2LCMjw3ZF8/KJEyfGjRsXFxcnP/NontzgNKalpeXJJ58cNmxY7969ExMTc3JySktLZdfPf/7zpKQkMfJzn/ucbOnsjn3pS19KTU3t1atX//7958yZU19fHzgGAAAAAADAiTo3VPcCYWAfEppfWNiv0K62tra5udncDoM4M+L8kCoCAAAAAIBgqHNDdS8QBvYhofmFhf0KNzz11FPmdhhWrFhhnCVrHwAAAAAAwM3UuaG6FwgD+5DQ/MLCdgXjB09Onjxpbofh1KlTxlmy9gEAAAAAANxMnRuqe4EwsA0JO50qQjd8dy88hQseQGjxVAH0wf2oGyqiCQrhEercUN0LhIFtSEiq6HqrVq2yNgGRiwseQGjxVAH0wf2oGyqiCQrhEercUN0LhIFtSEiq6Hq8x8BTuOABhBZPFUAf3I+6oSKaoBAeoc4N1b1AGNiGhKSKrsd7DDyFCx5AaPFUAfTB/agbKqIJCuER6txQ3QuEgW1ISKroerzHwFO44AGEFk8VQB/cj7qhIpqgEB6hzg3VvUAY2IaEpIqux3f3wlO44AGEFk8VQB/cj7qhIpqgEB6hzg3VvUAY2IaEpIoAAAAAAAA9SZ0bqnuBMLANCUkVYXX48OH4+PiWlhZrh9LBgwfF1XLlyhVrxy3r2v4oGLvqNLMccPXqVUt7IKcZAAAAAAAInjo3VPcCYWAbEpIqepFMzeLj4xMTE/v37z9hwoTly5f7fD7ruM7ovlQx5Drc1eBTRQAAAAAAbp06N1T3AmFgGxKSKnqROVa7du1aRUXFgw8+mJaWdurUKevQoHUY1emjw10lVQQAAAAAhJM6N1T3AmFgGxKSKrpeF7671zZWmz179ty5cy29JSUlQ4YMiY2NTU9Plz89JntffPHFjIyMhISEBQsWyJHmtdavX5+VlSV6k5KSCgoKampqROO6devGjx9vbO7kyZMxMTF//vOfbbdiZswsF7Zu3SomF4MnTZpUWVkpBqxZs+bzn/+8Mf706dO9evU6c+aM32FPLBPKfa6urp4+fXpcXNzYsWNXr15tmyoG7qd5hnPnzuXn51tmcNpnM0s5jEzT6VSbyTFbtmwZM2aM2PQXvvAFMf/rr78u9kFsbuLEiR999JEc2djYWFxcnJycLE6FmKq5uVm2Bx6UU6PtyfQ7HLjfeYu3qAsXPAAo8FQB9MH9qBsqogkK4RHq3FDdC4SBbUhIquh6gTFch2xTxddeey01NdXce+bMGbGwe/du0djQ0HD06FGj97777mtqaqqpqRk/fvwTTzxhmfONN944efKkWLhw4cK0adPuvfdeOUN8fPwHH3wgN/fkk09++ctfFgu2WzGzhIBFRUV1dXUtLS3z58+fPHmyGPC3v/3ttttuO3LkiBz/9NNP5+fny2XbPbFNFcUqBQUF4qB8Pl92drYRjRls99M8w9SpU++///7m5maxLbFjcganfTZTp4qBp9pMjpk7d644CWL+BQsWZGRkfOMb3zBe3n333XJkYWHhrFmzxJ43NjaKU7F06VK/w0HZNvodTqbf4cCdtnjrunDBA4ACTxVAH9yPuqEimqAQHqHODdW9QBjYhoSkiq7XhfcY21SxvLy8V69e5t7z58/HxMSsWbOmvr7eGCZ7jx07Jl9u2rRJPt1s5xT27NkTGxsrlx9++OFvfetb/vY/u05PT9+6datYtt2KmSUErKqqku379u3r3bu3XL7//vsfe+wxsXD9+vWMjIzS0lJjdYOxJ4GpYk1NjfmgNm/ebERjBtv9tMxw/Phx2b5lyxY5g2KfDepUMfBUm1nmf/fdd8XL6upq46XcXG1tbXR0tLF7O3bskAmy7UHZNloYJ9PpwJ22eOu6cMEDgAJPFUAf3I+6oSKaoBAeEfjPPTN1LxAGtiEhqaLrdeE9xjYBDPysoljetm1bXl5eQkJCbm7u3r17jd6mpia51v79+6OjowPXysnJGTBgQL9+/cS6ov3atWui/YMPPhAtzc3N27dvT0tL+/vf/y4nCdyKWWAIaG6X2d/OnTvFzosJd+/enZSUdPnyZTnGdk8CJzxy5IjloIyZzQL302mG999/X86g2GeD0xinU23mtK7lZUVFhVhIukGcjb59+7a1tfntDkrRGHgynQ5cscVb1IULHgAUeKoA+uB+1A0V0QSF8Ah1bqjuBcLANiQkVXS9LrzHWKIoqbCwcN68eba9LS0tK1asSElJMXqND9C9+uqrt99+u3kt+Um3srIysZZof+edd8w518SJE19++eWZM2d+//vf/3T2G8xbMQsMAc3tcuZr164NGTJk27ZtDzzwgPw4pP/GZ+4C9yRwwmA+q2gIPBvyqKNMH9nbunWrZVuy3ZL6SZWVlaKxtrZWvnzzzTfN6waeajP1/MZLn88XZfoMYyDbk29udDqZTgfe4Ra7rAsXPAAo8FQB9MH9qBsqogkK4RHq3FDdC4SBbUhIquh6XfjuXnMU1dbWVllZWVxcnJaWJr81z+g9ffr0rl27WltbxZiVK1eKAUbvnDlzmpqaLly4MGHChMcff9y81qlT/5+9ew+vqjrwPk4IILkRCSGSBIlcC0i49ckTopXkCTq9KNdUgZRLU4fWcrHTOkiprdR5ZnxsyaTPKBIH+lhr4xPkMjrogD4gvIM0iFrBVGnD1UAhwQxNiAlJJOG8q1llu9ln7Z3LuWSds7+fP/qsvdbaa++z1t77yK/nnJwShd27d4vKysrK7Oxsc85VXFycnp7et2/f48ePyxrlUcy8Q0BzvTHy2rVrxbGio6MPHz4sa+zORDlgTk5OXl6e/HHAzMxM88iS8jzNI0yfPn3hwoVXrlypqanJysqyHEsOokwVRWt8fPwTTzzR2tp69uxZy77eU23mPL55c9asWfn5+ZcuXfK0f21ZvBaPzYtSVtpNpsfmhdsd0XfduOABwAFPFUAf3I+6YUU0wUK4hHNu6NwKBIEyJCRVdCMZNsXExMTFxcXHx0+aNGn16tXV1dXm1qampoqKiszMTNFH/jVh83d+5R8mFiMsWrRI/m1fc7z11FNPDR48ODY2NiMjo7i42Jxz1dfXi/qcnBy5KSiPYqYMAY16Y+Tjx4+Lzdtvv/2LPW3ORDmg3R8yNijP0zxCZWWleF1yBHHvREREXLt2zfmcDTt37hw+fLjYVxxi8+bN5vP0nmoz5/HNm5cvX162bFliYqKYjTFjxhQVFXlsXpSy0mMzmR6bF253RAAAAACAN+fc0LkVCAJlSEiqGP5qa2tLSkqM0NBHlhirq65duzZ8+PCXXnrJ2hBeSktLfX/o+zjVPcIvLxwAAAAA3Mb5X1LOrUAQKENCUsWw1dra+swzz8ybN2/cuHFlZWXW5u7yMeraunWreBrK3+YLM8eOHfv4449F4cyZM+np6StXrrT26CIfpzpo/P7CAQAAAMBtnHND51YgCJQhIaliGPrTn/60YMGCoUOHJicnjxgxwo+Rose3qCspKUk8Cnfu3GltCAtinuW3mAcOHFhQUGD8WeRu82Wqg8nvLxwAAAAA3MY5N3RuBYJAGRKSKoY847d75YcTJ0+ePKTd17/+9QkTJvg3UgR6HD9WDcC/eKoA+uB+1A0rogkWwiWcc0PnViAIlCEhqWLIKywsND6cKPNE4dvf/jaRIsKSuOCtVQDgA54qgD64H3XDimiChXAJ59zQuRUIAmVISKoY8lasWDFixAjxiElJSTFSxWHDhm3cuFG8/YiyfBOiTDk8yvPmzVPWU6ZMmXL3yuKpoqynTJly8Mvcj7qV+e8uypSDWR7imBs6twJBoAwJSRVDnngA1dbWbtq06Y477rj99tu/9KUvicdNcnLyqFGj+Kwiwo98xwUAf+GpAuiD+1E3rIgmWAiXcM4NnVuBIFCGhKSKIc/8HnP48OHly5ePGDFiypQpqampBIsIP/xHFQD/4qkC6IP7UTesiCZYCJdwzg2dW4EgUIaEpIohz/u3e42PLqakpKSlpREsIpx4X/AA4AueKoA+uB91w4pogoVwCefc0LkVCAJlSEiqGM4OHz68YsWKcePGESwCAAAAAKAt59zQuRUIAmVISKoY/mpra0tKSqqrq60NAAAAAABAA865oXMrEATKkJBUEQAAAAAAoCc554bOrUAQKENCUkUAAAAAAICe5JwbOrcCQaAMCUkVQx6/3QtX4YIH4F88VQB9cD/qhhXRBAvhEs65oXMrEATKkJBUMeQVFhZaq4DwxQUPwL94qgD64H7UDSuiCRbCJZxzQ+dWIAiUISGpYsjjPQauwgUPwL94qgD64H7UDSuiCRbCJZxzQ+dWIAiUISGpYsjjPQauwgUPwL94qgD64H7UDSuiCRbCJZxzQ+dWIAiUISGpYsjjPQauwgUPwL94qgD64H7UDSuiCRbCJZxzQ+dWIAiUISGpYsjjt3vhKlzwAPyLpwqgD+5H3bAimmAhXMI5N3RuBYJAGRKSKgIAAAAAAu6DDz6IiYlpbm62Njh67733xD9Lm5qarA2B0b2TBPPmO+fc0LkVCAJlSEiqCAAAAADwA5kAxsTExMXF3XzzzZMnT16zZk11dbW1X1cEOVUEeopzbujcCgSBMiQkVQQAAAAA+IE5AWxtbT169OiSJUuSkpJOnTpl7dpppIpwCefc0LkVCAJlSEiqCAAAAADwA2UCOG/evAULFlhai4qKUlNTo6KiUlJS5F8jka2//vWv09LSYmNjly5dKnua9youLh47dqxojY+Pnzt3blVVlajcuHHjxIkTjcOdPHkyMjLyk08+UR7FwruD+XDnzp3Lzc2Njo6eMGHC008/LeqvXr0qO2zfvl2cidhx6tSp5eXl1nG9pkJuGrt7v0wzhz7KGfDYnKqor6+vLygoSEhIEP3FOI2NjcZRDF0dU9nfeL2dnB94c84NnVuBIFCGhKSKIY/f7oWrcMED8C+eKoA+uB91040VUaaKr7zySmJiorn1zJkzorB3715Refny5Q8//NBovf/++xsaGqqqqiZOnPjII49YxnzttddOnjwpChcvXpwxY8bMmTPlCDExMe+++6483Nq1a7/61a+KgvIoZsoO5sNlZ2c/8MADjY2N4nDTpk2TsZrskJ+fX1tb29zcvHjxYtFkGdnjNRWWVNH7ZZpZ+owaNcroo5wBj82pivq8vLw5c+aIV1dfXy/6r1q16vpBvtDVMZX9Lalih/MDb865oXMrEATKkJBUMeQp/z83IFxxwQPwL54qgD64H3XTjRVRpoplZWW9e/c2t164cCEyMnLDhg11dXVGN9l67NgxubllyxYZoyjHFPbt2xcVFSXLDz744Pe+9z1P+9euU1JStm/fLsrKo5gpOxiHq6qqEoWKigpZv23bNnMsWFlZKesPHDjQp08fY3eDc6ro/TLNLH0WLVrk3cdjmgG7U62pqYmIiDDqd+3aJeNdBx2OeUNvU39Lqtjh/MCbcpUNzq1AEChDQlLFkNeNN3sgdHHBA/AvniqAPrgfddONFVEmgN6fVRTlHTt25OTkxMbGZmVl7d+/32htaGiQex06dCgiIsJ7r8zMzIEDBw4YMEDsK+pbW1tF/bvvvitqGhsbd+7cmZSU9Pnnn8tBvI9i4d3BONyRI0fM5/POO+/IWM0uLhTlmOvM41i62b1MM0ufVatWGX2UM2B3qkePHhWF+OvELv37929ra5PdDF0a066/JVX0fuHG4WDHOTd0bgWCQBkSkiqGvG682QOhiwsegH/xVAH0wf2om26siDJVzMvLW7hwobK1ubl53bp1gwYNMlqND+i9/PLLt9xyi3kv+dHC0tJSsZeof+utt8xx1ZQpU1544YXZs2c/+uijfx/9OvNRlLxPQx6ul+nDetu3b5eH62RqVl5eLupramrk5uuvv27e3ftlmln6LF68WPaxmwG7U62urhaF8+fPXx9Yoatj2vUnVfSdc27o3AoEgTIkJFUMed14swdCFxc8AP/iqQLog/tRN91YEXOi1NbWVl5eXlBQkJSUJH+Gz2g9ffr0nj17WlpaRJ/169eLDkbr/PnzGxoaLl68OHny5B/+8IfmvU6dOiUKu3fvFpWVlZXZ2dnmuKq4uDg9Pb1v377Hjx+XNcqjmCk7mF/C9OnTFy5ceOXKlZqamqysLEt8JgexS81Eh/j4+CeeeKK1tfXs2bOW3b1fppmlT0pKiuzjMAPKUxX1s2bNys/Pv3Tpkqf9S83i9d5wpK6PadefVNF3zrmhcysQBMqQkFQx5HXjR5SB0MUFD8C/eKoA+uB+1E03VkRGSDExMXFxcfHx8ZMmTVq9enV1dbW5tampqaKiIjMzU/SJioqaMmWK+avH8g8fixEWLVok/2CxOaV66qmnBg8eHBsbm5GRUVxcbI6r6uvrRX1OTo7cFJRHMVN2MB+usrJSDCj/CLL413FERMS1a9c6n5rt3Llz+PDhYndxlM2bN5vTN++XaWbp89WvftXoYzcDylP1tP8VmmXLliUmJopdxowZU1RUZD6Q1NUxlf1JFX3nnBs6twJBoAwJSRUBAAAAAF1WW1tbUlJihIY+sqRRXXXt2rXhw4e/9NJL1gY/KS0t9Uus05mX2Zk+Dvx1qmaBGBMWzjPs3AoEgTIkJFUEAAAAAHTB1q1bv/nNb44bN66srMza1l0+RmnilIYMGSJ/7M9fjh079vHHH4vCmTNn0tPTV65cae3RdZ15mZ3pYxGIUw3EmHDgnBs6twJBoAwJSRUBAAAAAB2rrq5evnz58OHDk5OTR4wY4cdI0dOtKM2QlJQ0ZMiQnTt3Wht8I16g/ArzwIEDCwoKjD+I7IvOvMzO9LEIxKkGYkw4cM4NnVuBIFCGhKSKAAAAAAAnW7duvfPOO4e0+8pXvjJhwgT/RooAnHND51YgCJQhIaliyOvGjygDoYsLHoB/8VQB9MH9qBuxIsaHE2WeKNx3331EikHGreESzrmhcysQBMqQkFQx5BUWFlqrgPDFBQ/Av3iqAPrgftTNihUrzHmilJaWtnHjRrFYoiyXjHKgy/PmzVPWUw6nsqej3NC5FQgCZUhIqhjyjGcQ4AZc8AD8i6cKoA/uR92IFamtrd20aVNGRsaYMWNuvfXWIUOGiP8VZT6rGEzcGi7hnBs6twJBoAwJSRVDHu8xcBUueAD+xVMF0Af3o27MK3L48OHvfve7t91225gxY1JTUwkWg4lbwyWcc0PnViAIlCEhqWLI4z0GrsIFD8C/eKoA+uB+1I33ihgfXUxOTk5LSyNYDA7vhUBYcs4NnVuBIFCGhKSKIY/f7oWrcMED8C+eKoA+uB9147Aihw8ffuihh8aNG0ewGAQOC4Fw4pwbOrcCQaAMCUkVAQAAAABdVltbW1JSUl1dbW0A0HXOuaFzKxAEypCQVBEAAAAAAKAnOeeGzq1AEChDQlJFAAAAAACAnuScGzq3AkGgDAlJFQEAAAAAAHqSc27o3AoEgTIkJFUMefx2L1yFCx6Af/FUAfTB/agbVkQTLIRLOOeGzq1AEChDQlLFkFdYWGitAsIXFzwA/+KpAuiD+1E3rIgmWAiXcM4NnVuBIFCGhKSKIY/3GLgKFzwA/+KpAuiD+1E3rIgmWAiXcM4NnVuBIFCGhKSKIY/3GLgKFzwA/+KpAuiD+1E3rIgmWAiXcM4NnVuBIFCGhKSKIY/3GLgKFzwA/+KpAuiD+1E3rIgmWAiXcM4NnVuBIFCGhKSKIY/f7u1Z7733nrhNrl69am3oog8++CAmJqa5uVkO2NTUZO2BdlzwAPyLpwqgD+5H3bAimmAhXMI5N3RuBYJAGRKSKoYnmUzFtBswYMA999zz0UcfWTv5VZhlYZ1/OR2mip0fSupqfwAAAABAqHPODZ1bgSBQhoSkiuHJnEzV1dUVFBSkp6dbO/lVN7KwlpYWa5X/WAbv6rE6/3JIFQEAAAAAPnLODZ1bgSBQhoSkiuHJkkwdPHgwMjLSaK2vry8oKEhISIiPj1+6dGljY6PRZKbsJkfevn372LFjo6Kipk6dWl5eXldXJ8q9rn868tlnn3Xe/cUXXxw9enS/fv2uXr1aVFSUmpoqdk9JSVH+Yshnn3320EMPJSUliZHHjx9/5MgRUXnx4sW5c+fGxcUNGjRo5cqVMjS0DP7OO+9YjqU8Je9DvP32294vx+z8+fN33313dHT0hAkTnn76aSNV9B5fOTPFxcVi9mJjY0U38Sqqqqo8piUzr12HkwMAAAAACAPOuaFzKxAEypCQVDE8mZOpS5cuLVmy5I477jBa8/Ly5syZc/ny5fr6+hkzZqxateqLPU2U3eTI+fn5tbW1zc3NixcvnjZtmlFv/oSdw+7z588X9VeuXDlz5ozY3Lt3r2gSNR9++KGxu2Hu3Ll33XXXuXPnRPnEiRNnz54VBTGgqG9oaKiurp44ceKaNWs8XoNbNj02p6Q8hPfLMcvNzTWOnpGRYaSKyvG9h3rttddOnjzpac9GRbeZM2eauxmFzkwOAAAAACAMOOeGzq1AEChDQlLFkKf87V6ZTMXHx8fGxopCWlra+fPnZVNNTU1ERERFRYXc3LVrV2Ji4hd7XmfXTY5cWVkp6w8cONCnTx+j3sjOnHc/ceKErL9w4UJkZOSGDRvq6upkjcWnn34q+h89etRcWVVVJSqPHTsmN7ds2SKfsJbBLZt2p6Q8hHcUaLAcfevWrb3aU0W78R2GEvbt2xcVFeVRpYodTo47KS94AOg2niqAPrgfdcOKaIKFcAnn3NC5FQgCZUhIqhjylF+MNZKpa9euvfPOO4MGDXr88cdl09GjR3u1B47SgAED+vfv39bWJprkt3QFh26WjExuXr161VLfyd2FHTt25OTkxMbGZmVl7d+/36iX5DgNDQ3myiNHjpgrDx06FBER4fHK7zp5SspDeJ+nwfvocgbsxvceSrzkzMzMgQMHij4y9m1tbfVOFWVPh8lxJ+UFDwDdxlMF0Af3o25YEU2wEC7hnBs6twJBoAwJSRVDnvI9xpJkbd68uX///hcuXBDl6upq0WR8dNGOXTdlcnf16tX333/fXN/J3Q3Nzc3r1q0bNGiQpV5+kNDy5V/LpwVffvll82cV7VJFu1NSHsLycszsPqtoN75lKPkJxNLSUvGSxeZbb70ld1emipLd5LiT8oIHgG7jqQLog/tRN6yIJlgIl3DODZ1bgSBQhoSkiiFP+R5jSaauXr06evToH/3oR3Jz1qxZ+fn5ly5d8rRnZHv27DF2NFN2UyZ3Ynz5I4Aff/xxl3Y/ffq0qG9paWlra1u/fn1SUpKxu2HevHk5OTkyrTN+VzE3NzcvL6+xsfHixYuTJ09evXq1x2tw73hOeUoe1SG8X46Z6GwcPTMzU86Ax2Z8y1CnTp0Sm7t37xblysrK7Oxsu1SxM5PjQsoLHgC6jacKoA/uR92wIppgIVzCOTd0bgWCQBkSkiqGPOV7jHeg9tJLL8XExNTU1Hja//THsmXLEhMTY2Njx4wZU1RU9MWeJspuyuROZmrLly+XX/7duHFjJ3evqKjIzMyMi4uLioqaMmWK8ku+9fX1xjjjx4+XP4BYVVU1e/ZssWNCQoI4rvzcn/LczJOgPCWPzSEsL8fs3Llzubm53n8D2m58y1BPPfXU4MGDRZ+MjIzi4mK7VLEzk+NCygseALqNpwqgD+5H3bAimmAhXMI5N3RuBYJAGRKSKoY8frsXrsIFD8C/eKoA+uB+1A0rogkWIqRVV1eXlJTU1tZaG7w454bOrUAQKENCUkUAAAAAAICAKCsrGzt27IIFCw4fPmxtM3HODZ1bgSBQhoSkigAAAAAAAIFSVlY2bNiw5OTk9PT0//iP/1B+dNE5N3RuBYJAGRKSKgIAAAAAAARQWVnZ6NGjU9rdeuut8+fPt3x00Tk3dG4FgkAZEpIqAgAAAAAABJYRLA5pN2zYMPNHF51zQ+dWIAiUISGpYsiTzyMAAAAAABByRo8evW/fviGOuaFzKxAEypCQVDHkFRYWWquA8MUFD8C/eKoA+uB+1A0rogkWImwcPHgwLS1NJokjRowYN27ctGnTNm3axGcVERKUISGpYsjjPQauwgUPwL94qgD64H7UDSuiCRYiPBiR4oQJE4YPH/7973+f31VEaFGGhKSKIY/3GLgKFzwA/+KpAuiD+1E3rIgmWIgwcPDgwaFDhyYnJ5s/nGjhnBs6twJBoAwJSRVDHu8xcBUueAD+xVMF0Af3o25YEU2wEKGurKxs7Nix3h9OtHDODZ1bgSBQhoSkiiHv97//vbUKCF9c8AD8i6cKoA/uR92wIppgIUJadXV1SUmJ8sOJFs65oXMrEATKkJBUEQAAAAAAoCc554bOrUAQKENCUkUAAAAAAICe5JwbOrcCQaAMCUkVAQAAAAAAepJzbujcCgSBMiQkVQQAAAAAAOhJzrmhc2sPeu+993r16tXU1PTBBx/ExMQ0NzcrO1y9etVSrxu78/cjPx7i3/7t3xISEsRo+/fvt7YFjDIkJFUMefx2L1yFCx6Af/FUAfTB/agbVkQTLIRLOOeGzq0GGeHFtBswYMA999zz0UcfWTv5lZEqWhuu6zBV7HAEHXTvJLu3V4eqq6sjIiKc/6R4IChDQlLFkFdYWGitAsIXFzwA/+KpAuiD+1E3rIgmWAiXcM4NnVsN5hirrq6uoKAgPT3d2smvOgzOeiRVbGlpsVb5xuEkHY7lsJcv/vCHP3RpWIcz7BJlSEiqGPJ4j4GrcMED8C+eKoA+uB91w4pogoVwCefc0LnVYImxDh48GBkZabTW19cXFBQkJCTEx8cvXbq0sbHRaDJs2LBh0qRJxubp06d79+595swZUS4uLh47dmxsbKzYfe7cuVVVVR7TEc2HPn/+/N133x0dHT1hwoSnn37aSBW9R6irq4uKiup1/fOVzz77rMf+PIuKilJTU0X/lJQU7/tCnsCLL744evTofv36iSPajXPu3Lnc3FzL6ZnP33Ig75P0PlZnXpr5EBcvXhTd4uLiBg0atHLlShn8yQ7bt28XQ4l9p06dWl5ebnqJf/PKK68Yw95yyy3OQxln+M4774jNbdu2jR8/XrzwL3/5y2LkV199VcyAGG3KlCmd+UyrMiQkVQx53vcSEMa44AH4F08VQB/cj7phRTTBQriEc27o3Gow51aXLl1asmTJHXfcYbTm5eXNmTPn8uXL9fX1M2bMWLVq1Rd7XvfXv/71pptuOnLkiNx8/PHHc3NzZfm11147efKkpz3GErvPnDnTY5Mqil3mzp3b0NBQXV2dkZEhY7sOR5BH8dic55kzZ0S3vXv3irJo+vDDD43+khxn/vz5ovXKlSt24wjZ2dkPPPBAY2OjOI1p06bJ0zNOQ3kgy0l6H6szL828KfoYUzRx4sQ1a9YYHfLz82tra5ubmxcvXixOT+5rZhnWYSjjDOXmggULxPqKkZcuXZqWlvatb33L2LzzzjtvOIaKMiQkVQx5vMfAVbjgAfgXTxVAH9yPumFFNMFCuIRzbujcapDhUXx8fGxsrCikpaWdP39eNtXU1ERERFRUVMjNXbt2JSYmfrGnyQMPPPDwww+LwrVr18QIJSUl1h4ez759+6KiojyqVLGqqkoUjh07Jntu3bq1l+ob0N4jyHq787xw4UJkZOSGDRvq6uquj3EDOc6JEyfkpt048vSM+m3btsnTM05DeSBlPmgcy8LupdlN0ZYtW+T6yg6VlZWy/sCBA3369JFlM/OwzkMZZ2gZ+e233xabxrUhNpUHslCGhKSKIY/f7oWrcMED8C+eKoA+uB91w4pogoVwCefc0LnVYORN165de+eddwYNGvT444/LpqNHj/ZqDxylAQMG9O/fv62tTTTJr+gKsufu3bsTExM///zzvXv3ip7ys3jCjh07MjMzBw4cKPaVqWVra6t3qnjkyBFRaGhokHsdOnSo1/VU0XkE2d/hPMXuOTk5YsesrCzvv33cyXEspye/Gmz5BrT3gezyQbkpd+nwpTlMUUREhPewctM7kDV369JQdiPbHchCGRKSKgIAAAAAAPQk59zQudVgCY82b97cv3//CxcueNr/cHAv08fTHLS2tqampu7YsWPRokXf+973ZKX8BF9paWlzc7PYfOutt2QOZRzRKNh9VtFuhPfff998zh2ep9h93bp1gwYNstRbXrvdOOI0epk+q7h9+3bLCzF6mg9kOUlL506+NLspevnll80fMLTL/gzmbl0aym5kuwNZKENCUkUAAAAAAICe5JwbOrcaLOHR1atXR48e/aMf/Uhuzpo1Kz8//9KlS572NGrPnj3GjhZr167Nzs6Ojo4+fPiwrDl16pQYeffu3aJcWVkpWmUO5Z0qig45OTl5eXnyhwszMzNlT7sR5O8Yfvzxx8bRled5+vRpUWhpaWlra1u/fn1SUpLRX/KOBZXjCNOnT1+4cOGVK1dqamqysrIsL0R5IMtJWo7VyZdm3is3N9eYosmTJ69evdp7WLuwz9Kt80PZjWx3IAtlSEiqCAAAAAAA0JOcc0PnVoN3svbSSy/FxMTU1NR42v/2yLJlyxITE2NjY8eMGVNUVPTFnjc6fvy4GOf22283Vz711FODBw8W+2ZkZBQXF8scSpkqKv/Ist0Ion758uXye8obN2702JxnRUVFZmZmXFyc/JvFHX4D2mMzjqc9+MvJyZGn96tf/SoiIuLatWvG7nYHMp+k97E689LMe1VVVc2ePVscJSEhQfSRH3J0zv4Mlm6dH8puZLsDWShDQlJFAAAAAACAnuScGzq3ottKS0uZ205ShoSkiiGP3+6Fq3DBA/AvniqAPrgfdcOKaIKFcAnnbMu5FV1y7Ngx+a3kM2fOpKenr1y50toDKsqQkFQx5BUWFlqrgPDFBQ/Av3iqAPrgftQNK6IJFsIlnHND51Z0SVlZ2fDhw6OjowcOHFhQUGD8AWU4U4aEpIohj/cYuAoXPAD/4qkC6IP7UTesiCZYCJdwzg2dW4EgUIaEpIohj/cYuAoXPAD/4qkC6IP7UTesiCZYCJdwzg2dW4EgUIaEpIohj/cYuAoXPAD/4qkC6IP7UTesiCZYCJdwzg2HaMZ6fnABZUhIqhjy+O1euAoXPAD/4qkC6IP7UTesiCZYCJdwjuqcW4NMq5NB0ChDQlJFAAAAAACAnuQc1Tm3BplWJ4OgUYaEpIoAAAAAAAA9yTmqc24NMq1OBkGjDAlJFQEAAAAAAHqSc1Tn3BpkWp0MgkYZEpIqAgAAAAAA9CTnqM65Nci0OhkEjTIkJFUMefx2L1yFCx6Af/FUAfTB/agbVkQTLIRLOEd1zq1BptXJIGiUISGpYsgrLCy0VgHhiwsegH/xVAH0wf2oG1ZEEyyESzhHdc6tQabVySBolCEhqWLI4z0GrsIFD8C/eKoA+uB+1A0rogkWwiWcozrnVm+1tbUlJSXV1dXWBn/o6skgPChDQlLFkMd7DFyFCx6Af/FUAfTB/agbVkQTLIRLOEd1zq1mhw8f/s53vjN27NiysjJrm590/mQQTpQhIaliyOM9Bq7CBQ/Av3iqAPrgftQNK6IJFsIlnKM651ZP+4cTn3vuualTpyYnJ996662BixQ9nTgZhCVlSEiqGPL47V64Chc8AP/iqQLog/tRN6yIJlgIl3CO6hxa5YcT09LSbrvtNtFtxIgRAY0UPY4ngzCmDAlJFQEAAAAAAHqSc1Tn3Wp8OHHkyJEpKSlD2gUhUvSoTgZuoAwJSRUBAAAAAAB6kiWqkymhtsynCpdQhoSkigAAAAAAAD3JEtU5J3eitba29j//8z+//OUvjxo1KjU1VYZ9wfmsItxJGRKSKgIAAAAAAPSkrqaKRtn4XcXhw4cTLCJwlCEhqWLI47d74Spc8AD8i6cKoA/uR92wIppgIVyi26miZHx0MQh/AxrupAwJSRVDXmFhobUKCF9c8AD8i6cKoA/uR92wIppgIVzCx1TRID+6OHbsWIJF+JcyJCRVDHm8x8BVuOAB+BdPFUAf3I+6YUU0wUK4hL9SRam2trakpKS6utraAHSXMiQkVQx5vMfAVbjgAfgXTxVAH9yPumFFNMFCuIR/U0XA75QhIaliyOM9Bq7CBQ/Av3iqAPrgftQNK6IJFsIlSBWhOWVISKoY8vjtXrgKFzwA/+KpAuiD+1E3rIgmWAiXIFWE5pQhIakiAAAAAABATyJVhOaUISGpIgAAAAAAQE8iVYTmlCEhqSIAAAAAAEBPIlWE5pQhIakiAAAAAABATyJVhOaUISGpYsjjt3vhKlzwAPyLpwqgD+5H3bAimmAhXIJUEZpThoSkiiGvsLDQWgWELy54AP7FUwXQB/ejblgRTbAQLkGqCM0pQ0JSxZDHewxchQsegH/xVAH0wf2oG1ZEEyyES5AqQnPKkJBUMeTxHgNX4YIH4F88VQB9cD/qhhXRBAvhEqSK0JwyJCRVDHm8x8BVuOAB+BdPFUAf3I+6YUU0wUK4BKkiNKcMCUkVQx6/3QtX4YIH4F88VQB9cD/qhhXRBAvhEqSK0JwyJOx+qlheXr4iXDz55JO/AgAAAAAA6AkJCQn7TSybFqLVuj865+zZs9Z4C53zK1VI2P1UccWKFb0AAAAAAACAUGCXcaFDypDQ11TxvvvuezKULVu2TLyKlStX/gcAAAAAAEBPSEhI+H8mlk0L0WrdHx2ZM2eOQ8aFDilDQl9TxSeffPKvoWznzp3iVezfv9/68gAAAAAAAIKC31UMNOeMCx1STiCpYsinivx2L1yFCx6Af/FUAfTB/agbVkQTLIRLkCoGmnPGhQ4pJ1CXVLFXuw0bNlgbAiwMUsXCwkJrFRC+uOAB+BdPFUAf3I+6YUU0wUK4BKlioDlnXOiQcgI1TRWDFjJ2I1WU5yY89thjd955pyj893//t9E6ZcoUUbNnzx7THlZyd++ymV29mezT4XvMunbWWpXOnJidRx99tHfv3hUVFR7TFN10000ZGRllZWXW3l46f5Jmf/7zn8VB16xZIzfFCMahb+yI8NHhBQ8AXcJTBdAH96NuWBFNsBAuQaoYaM4ZFzqknECn8EW5g8HlqWJpaWl5efmmTZtE+f7775dNx44dE5tDhw5ta2u7cacbyBFkubTdje1/Y+5jR/bp8D2mM0NJ5pPp/F5CZWVl3759v/GNb8hNua8YauXKlaIwevToG7srOB+upaXFWnWdOGi/fv3k34b/4x//KA7qPBRCXYcXPAB0CU8VQB/cj7phRTTBQrgEqWKgOWdc6JByAp3CF+UOhm6kim+88cbkyZMHDBjQu3fvuLi4O++88/XXX5dNMgmSMaIsm90wil/JvwH99ttvW1+ePXlKsnz58uWoqKj+/fvX1dWJzZ/85Ceiae3atbJ127ZtaWlpffv2FR2ysrI++OAD7xHM5RMnTkycODEmJubxxx8315t595HvMY2NjT/4wQ+Sk5P79OkzcuTIjRs3yv6yj0FWdvXEnnvuuWHDhkVGRoq1E/1lpdmPf/xj0fk3v/mN3DT2bWpq6tX+iUVZ36WTlOWf/vSn8fHx69atu+eee8RmeXm5aCorKxPlvLw8URYHld3kXsaOxibCDP9RBcC/eKoA+uB+1A0rogkWwiVIFQPNOeNCh5QT6BS+KHcwdCNVfPHFF++8884lS5YsW7YsMzNT7B4VFXX8+PG/3pgqPvTQQ3IzJyfnoXbWgfzk+9//vjjKP/3TP1lfmyN5bsbmwoULxebmzZuvXbt22223ifKf//xn2bRv3z4xe8XFxT/72c9uuummKVOmeI9gLn/ta18TZTE5Dz74oOUoBu8+8rd7CwoKRHnOnDli1fLy8kR5x44dnvaPH8pu5s8hdvXEYmJixowZ88ILLzzzzDP5+fmy0mzSpEmis/z6s+f6vjU1NVu3bhWFGTNmyPounaSsyc7Ofv755w8cOPDGG2+ITXExeK5fe/Jr5uKgojx16lS5l7GjsYkww49VA/AvniqAPrgfdcOKaIKFcAlSxUBzzrjQIeUEOoUvyh0M3UgVhVdeeeUnP/nJ8uXL//Ef/1GmP7/97W//6vWVZ8tmIHQvUvR4hVZvvvmm2Jw+ffrbb78tCpmZmUZTaWlpSkqK7C9ERkbKevMI5nJ0dLQo19fXX7582VxvZtcnLi5ObhoefPBB2SQ3vxii6yeWkZEhxl+wYMHPf/7zQ4cOyUozeVZXrlyRm8bIQmpq6l/+8hdZ36WTlDXyq81Senp6bGzspUuXBg8ePHLkyGvXrnnaP/8ouol6y47GJgAAAAAAmiNVDDTnjAsdUk6gU/ii3MHQjVTxO9/5jkx8zJ599tm/esWIlk2/63ak6PEKrdra2lJTUyMiIr7xjW+IeuNbvUJCQoJ8FXv27Ln55puNvcwjmMsym7t8+XJdXZ3lKAa7PgMGDOh1/ViS/LKwx+uEPV0/MXGs559//pFHHhk1apSofPXVV2W9QZ5VU1OT3JT7vvnmm/PnzxeFJUuWyPounaR3jfyy87333iv+9xe/+IWslF+yjomJMbp57wgAAAAAgM5IFQPNOeNCh5QT6BS+KHcwdCNV7N+/v9jl+9//flVV1Z/+9CeZ/ph/S9GIESMiIsTmM888c8P+fuJLpOhRhVbyVwV7tf+AoBjfqE9MTOzVnn89/PDD5r3syt7fbpb1ZnZ95A9ETp48edOmTZs3bxat8svCnutZnpjM3bt3y5quntjChQs3btz4u9/9Ljs7W1QWFRXJesPEiRNF/fHjx+WmsW9TU1Nqaqooy084dukkzScgtbS0JCcni8p+/fp9+umnslIcVI5pdPPeEQAAAAAAnZEqBppzxoUOKSfQKXxR7mDoRqo4YsQIscvw4cMLCgrGjBkj0x9lqjhs2DCxOWrUqO9+97v+/V1FHyNFjyq0MhLSb37zm+b6LVu2JCUlxcbGrl69Oi0tzdjLPIK5fOLEifT09OjoaNHfXG9m16e5uXnt2rW33XZbnz594uLiMjMzS0pKZNMvf/nL+Ph40fP222+XNV09sXvuuScxMbF3794333zz/Pnz5Z+mMVuzZk2v9i+zy03zvs8991yv9p/I9HTxJM2DGMT1JirFORg14qCi5rHHHjNqlDsCAAAAAKAtUsVAc8640CHlBDqFL8odDN1IFffs2XP77bf36dNnxIgRL730kkx/lKliaWnpqFGjIiMjZf0No/jA90jRcz20qqmpaWxstLb1BB1+u/eTTz7p27fvfffdZ23wqwMHDixatEhMvigYlffee684tPz5RbEiYl3kAn2xG8KLDhc8gHDCUwXQB/ejblgRTbAQLkGqGGjOGRc6pJxAp/BFuYOhG6liz/JLpOi5nir2uvHzcT2osLDQWtUTHn300d69ext/BjoQxJzHxcWZp10cThx0zZo1cnPdunXG6hh9EGY0ueABhA2eKoA+uB91w4pogoVwCVLFQHPOuNAh5QQ6hS/KHQyhlSr6K1IUjL80cvLkSWtbT+A9xnDq1CljdaxtCBdc8AD8i6cKoA/uR92wIppgIVyCVDHQnDMudEg5gb6misuWLdupPflHQvwSKWqI9xi4Chc8AP/iqQLog/tRN6yIJlgIlyBVDDTnjAsdUk6gr6liqAjXSNHDewxchgsegH/xVAH0wf2oG1ZEEyyES5AqBppzxoUOKSew+6mi/Gu8K1eu3K+9t99+23r2YYTf7oWrcMED8C+eKoA+uB91w4pogoVwCVLFQHPOuNAh5QR2P1V0bgUAAAAAAEBnkCoGGimWj5QTSKoIAAAAAADQk0gVA40Uy0fKCSRVBAAAAAAA6EmkioFGiuUj5QSSKgIAAAAAAPQkUsVAI8XykXICSRVDHr/dC1fhggfgXzxVAH1wP+qGFdEEC+ESpIqBRorlI+UEkiqGvMLCQmsVEL644AH4F08VQB/cj7phRTQR6IV47733xD/tr1692sl6BAipYqCRYvlIOYGkiiEv0O8xgFa44AH4F08VQB/cj7phRTTh40L867/+q/iX+wsvvGBtuM4uPbSrdwn58puamqwNAUOqGGikWD5STiCpYsjz8T0GCC1c8AD8i6cKoA/uR92wIprwZSHa2trS0tImTZp0xx13WNuus0sP7er9q6WlxVqlB1LF8EOK5SPlBJIqhjxf3mOAkMMFD8C/eKoA+uB+1A0roglfFmLXrl0xMTEfffRRRETEH//4R6P+/Pnzd999d3R09IQJE55++mkjPbSrN1iyNnPyWFRUlJqaGhUVlZKSYpxzfX19QUFBQkJCfHz80qVLGxsbjb1efPHF0aNH9+vXz3KI4uLisWPHxsbGil3mzp1bVVUl6z/77LOHHnooKSlJvKLx48cfOXLErvLixYtix7i4uEGDBq1cuVIGl3ZnLgvbt28XBxUnP3Xq1PLy8rq6OlEW9THtnn322b+fXCCRKgYaKZaPlBNIqhjy+O1euAoXPAD/4qkC6IP7UTesiCZ8WYg5c+YsWrRIFKZPn75y5UqjPjc3d+7cuQ0NDdXV1RkZGUYyaFdvsMvmzpw5Iwp79+4VlZcvX/7www9lh7y8PHEOoqa+vn7GjBmrVq0y9po/f76ov3LlyvWx/+611147efKkpz0cFLvMnDlT1osTu+uuu86dOyfKJ06cOHv2rF2l2Mt4FRMnTlyzZo3H/sxlIT8/v7a2trm5efHixdOmTfPuHwSkioFGiuUj5QSSKgIAAAAAEG7Onz/fp0+fN998U5Q3b9588803ywivqqpK/Fv+2LFjstvWrVtlvmZXf328v7HL5i5cuBAZGblhw4a6ujqjc01NTUREREVFhdzctWtXYmKisdeJEyeMnnb27dsXFRUlCp9++qnY5ejRo+ZWZaXlVWzZskUGcHZnLguVlZWy/sCBA2LSvPsHAalioJFi+Ug5gaSKAAAAAACEm3/5l39JTk5ubW0V5bq6uv79+//mN78R5SNHjoh/yzc0NMhuhw4dkvmaXf3fh2tnl82J8o4dO3JycmJjY7Oysvbv3y9qjh49KlrjrxswYIA4h7a2NufAToyTmZk5cOBA0V+MJnqKlyCHMs5NUlZ6v4qIiAiP/Zl3sj4ISBUDjRTLR8oJJFUEAAAAACCsyL/T0q9fv1uu69Onj/xur91nEu3qjTGF8vJyUVlTUyM3X3/9dUuf5ubmdevWDRo0SJSrq6tF6/nz541WySGwk595LC0tFeOIzbfeekuOLz+WaHyxWlJWWl7Fyy+/LAM4uzO3SxXff/99u5MMEFLFQCPF8pFyAkkVAQAAAAAIK//zP//Tu3fv999/v+q6N954Q/wTvry8XLTm5OTk5eU1NjZevHgxMzNT5mgO9Yampqb4+PgnnniitbX17NmzWVlZss/p06f37NnT0tLS1ta2fv36pKQk2X/WrFn5+fmXLl3ytOd9oo/HMVU8deqUaNq9e7coV1ZWZmdnG+cwb948cXoyozR+QlFZmZuba7yKyZMnr1692mN/5napovylyI8//vjvZxZ4pIqBRorlI+UEkiqGPF9+uxcIOVzwAPyLpwqgD+5H3bAimuhwIWpra0tKSqqrq82Vs2bNmjdvnrlGyMrKWrFihSicO3cuNzfX+28929Wb7dy5c/jw4aJPZmbm5s2bZZ+KigqxGRcXFxUVNWXKFPkNaE/7X25ZtmxZYmJibGzsmDFjioqKPI6povDUU08NHjxY9M/IyCguLjbOob6+3hhq/Pjx8ucUlZVVVVWzZ88WJ5OQkLB8+XL5sUePzZnbpYqiLPaV393euHGjbA0oUsVAI8XykXICSRVDXmFhobUKCF9c8AD8i6cKoA/uR92wIppwWIjDhw+vWLFi7NixZWVl1jaEGlLFQCPF8pFyAkkVQ57DewwQfrjgAfgXTxVAH9yPumFFNOG9ELW1tZs2bbrzzjtTUlKGDh36v//7v5YOCEWkioFGiuUj5QSSKoY87/cYIIxxwQPwL54qgD64H3XDimjCvBDyw4kjR47MyMgYOnTosGHDiBTDBqlioJFi+Ug5gaSKIY83e7gKFzwA/+KpAuiD+1E3rIgmxEIYH05MbzekHZFimCFVDDRSLB8pJ5BUMeR1+Nu9QDjhggfgXzxVAH1wP+qGFdHEhg0bRo8ePWTIkNTUVJknwiWsl4KJcyuUSLF8pJxAUkUAAAAAAPRVW1v75JNPjhs3zggWhw0b9qUvfYk/0hJOLEGhc27o3AolUiwfKSeQVBEAAAAAgBBw8ODBmTNnymxx6NChBIvhhFQx0EixfKScQFJFAAAAAABChvHRxeTk5LS0NILF8ECqGGikWD5STiCpIgAAAAAAoefgwYNz5swZO3YswWIYIFUMNFIsHyknkFQx5PEjynAVLngA/sVTBdAH96NuWBFNdLgQtbW1JSUl1dXV1gaEFFLFQCPF8pFyAkkVQ15hYaG1CghfXPAA/IunCqAP7kfdsCKaYCFcglQx0EixfKScQFLFkMd7DFyFCx6Af/FUAfTB/agbVkQTLIRLkCoGGimWj5QTSKoY8niPgatwwQPwL54qgD64H3XDimiChXAJUsVAI8XykXICSRVDHu8xcBUueAD+xVMF0Af3o25YEU2wEC5BqhhopFg+Uk4gqWLI6/C3e4FwwgUPwL94qgD64H7UDSuiCRbCJUgVA40Uy0fKCSRVBAAAAAAA6EmkioFGiuUj5QSSKgIAAAAAAPQkUsVAI8XykXICSRUBAAAAAAB6EqlioJFi+Ug5gaSKAAAAAAAAPYlUMdBIsXyknEBSxZDHb/fCVbjgAfgXTxVAH9yPumFFNMFC+MV7773Xq1evq1evdrLeTlf7dx6pYqCRYvlIOYGkiiGvsLDQWgWELy54AP7FUwXQB/ejblgRTdgthIy3mpqaLDWBCLx6nPeL7Sq7ybGrt9PV/p1HqhhopFg+Uk4gqWLIs3uPAcISFzwA/+KpAuiD+1E3rIgm7BbCO2jzPfBqaWmxVunB+8V2ld3k2NXb6Wr/ziNVDDRSLB8pJ5BUMeTZvccAYYkLHoB/8VQB9MH9qBtWRBN2C+EdtJkDr6KiotTU1KioqJSUFGOE+vr6goKChISE+Pj4pUuXNjY2Gnu9+OKLo0eP7tevnyUvKy4uHjt2bGxsrNhl7ty5VVVVsv6zzz576KGHkpKSYmJixo8ff+TIEbvKixcvih3j4uIGDRq0cuVKGVxaTt44c1nYvn27OKg4+alTp5aXl9fV1YmyqI9p9+yzz/795K6zO8nz58/ffffd0dHREyZMePrpp43JsatXzo9Df/8iVQw0UiwfKSeQVDHk2b3HAGGJCx6Af/FUAfTB/agbVkQTdgvhkCqeOXNGFPbu3SsqL1++/OGHH8oOeXl5c+bMETX19fUzZsxYtWqVsdf8+fNF/ZUrV4zRpNdee+3kyZOe9nBQ7DJz5kxZP3fu3LvuuuvcuXOifOLEibNnz9pVir1EfUNDQ3V19cSJE9esWePxOnlLqpifn19bW9vc3Lx48eJp06Z597ewO8nc3Fzj0BkZGUYaaFevnB+H/v5FqhhopFg+Uk4gqWLI47d74Spc8AD8i6cKoA/uR92wIpqwWwjvoM3I5i5cuBAZGblhw4a6ujqjtaamJiIioqKiQm7u2rUrMTHR2OvEiRNGTzv79u2LiooShU8//VTscvToUXOrsrKqqkpUHjt2TG5u2bJFxmHOqWJlZaWsP3DgQJ8+fbz7OzBO0nLorVu3ykPY1dvNj11/uelHpIqBRorlI+UEkioCAAAAABBi/vCHP4h/khvf0hUOHz4satra2kR5x44dOTk5sbGxWVlZ+/fvFzVHjx4VrfHXDRgwoH///qKzc2AnxsnMzBw4cKDoL0YTPVtbW+VQDQ0N5p7KyiNHjpgrDx06FBER4fFKCS2pYof1FsqT9D60HMqu3m5+7PrLTT8iVQw0UiwfKSeQVBEAAAAAgBBz4cKFXqbP0HlMnwQ0NDc3r1u3btCgQaJcXV0t+p8/f97cweMV8JnJzzyWlpaKccTmW2+9JQM1+bFE44vVkrLS8kG/l19+WZ5heXm5qK+pqZH1r7/+uhzZLlV8//33u3qSdp8xtKu3mx+7/jf28gNSxUAjxfKRcgJJFQEAAAAACD0zZsyYPXv2p59+KsonT56cOHHio48+KsqnT5/es2dPS0tLW1vb+vXrk5KSZP9Zs2bl5+dfunTJ0x6WiT4ex1Tx1KlTomn37t2iXFlZmZ2dbQRq8+bNy8nJkRmc8ROKysrc3Ny8vLzGxsaLFy9Onjx59erVolIcLj4+/oknnmhtbRXdsrKy5Mh2qaL8pciPP/7472dm4nCS4mSMQ2dmZnZYr5wfh/7+RaoYaKRYPlJOIKkiAAAAAACh5//+7/++/e1vDx48OCYmZtiwYT/5yU8+//xzUV9RUZGZmRkXFxcVFTVlyhT5DWhP+19uWbZsWWJiYmxs7JgxY4qKijyOqaLw1FNPifFF/4yMjOLiYiNQq6+vN4YaP368/DlFZWVVVdXs2bPFySQkJCxfvlx+olDYuXPn8OHDo6Ojxalu3rzZOVUUZbGv/G7yxo0bZavB7iTPnTuXm5vr/beb7eqV8+PQvxuqq6tLSkpqa2utDV5BoXNu6NwKJVIsHyknkFQx5Nn9di8QlrjgAfgXTxVAH9yPumFFNMFChJmysrJx48atWLHi8OHD5npSxUAjxfKRcgJJFUNeYWGhtQoIX1zwAPyLpwqgD+5H3bAimmAhws+ePXtuvfXWlJSU6dOnb9q0SX50kVQx0EixfKScQFLFkMd7DFyFCx6Af/FUAfTB/agbVkQTLERYevPNN4cOHTp69OicnJxRo0atWLGCVDHQSLF8pJxAUsWQx3sMXIULHoB/8VQB9MH9qBtWRBMsRLiSweKQIUNSUlKys7NFweGjixbOrVAixfKRcgJJFUMe7zFwFS54AP7FUwXQB/ejblgRTcybN2/IkCFyOcT/Ug6n8r//+7+npKQMuW7UqFHif0ePHr1v374hjrmhcyuUSLF8pJxAUsWQx2/3wlW44AH4F08VQB/cj7phRTTBQoSrsrKysWPHjhkzxpwq/vM///OlS5c8HeWGzq1QIsXykXICSRUBAAAAAACCR0aKI0aMGDJkSHJy8owZMyxBoXNu6NwKJVIsHyknkFQRAAAAAAAgSMrKym677bbk5GSHDyc654bOrVAixfKRcgJJFQEAAAAAAIJBfkrx61//+u7du831pIqBRorlI+UEkioCAAAAAAAEXHV1dUlJifwrzxakioFGiuUj5QSSKoY8frsXrsIFD8C/eKoA+uB+1A0rogkWwiVIFQONFMtHygkkVQx58i/TAy7BBQ/Av3iqAPrgftQNK6IJFsIlSBUDjRTLR8oJJFUMebzHwFW44AH4F08VQB/cj7phRTTBQrgEqWKgkWL5SDmBpIohj/cYuAoXPAD/4qkC6IP7UTesiCZYCJcgVQw0UiwfKSeQVDHk8R4DV+GCB+BfPFUAfXA/6oYV0QQL4RKkioFGiuUj5QSSKoY8frsXrsIFD8C/eKoA+uB+1A0rogkWwiVIFQONFMtHygkkVQQAAAAAAOhJpIqBRorlI+UEkioCAAAAAAD0JFLFQCPF8pFyAkkVAQAAAAAAehKpYqCRYvlIOYGkiuiO9957T6z+1atXP/jgg5iYmObmZmsPzcgTbmpqsjZ0JFReIAAAAAAgdJEqBhoplo+UE0iqGPK68du9MmKLaTdgwIB77rnno48+snZyZKSK1oZu6Wrk19X+nm7tAj1144IHAAc8VQB9cD/qhhXRBAvhEqSKgUaK5SPlBJIqhrzCwkJrVUfMEVtdXV1BQUF6erq1kyPnVLGlpcVa5airkV9X+3u6tQv01I0LHgAc8FQB9MH9qBtWRBMshEuQKgYaKZaPlBNIqhjyuvEeY4nYDh48GBkZabTW19cXFBQkJCTEx8cvXbq0sbFR1p8/f/7uu++Ojo6eMGHC008/LVNFYyhZePHFF0ePHt2vXz/RZDfOZ5999tBDDyUlJcXExIwfP/7tt9+Oiorqdf2zk88++6zoU1RUlJqaKupTUlIsL7Curs67/8WLF+fOnRsXFzdo0KCVK1d6x5rml2zX+dy5c7m5uc4vcPv27WPHjhUnMHXq1PLy8huOcf0ov/71r9PS0mJjY8WrNia5uLhY7CgqxWyIo1dVVcl65UE99quAblzwAOCApwqgD+5H3bAimmAhXIJUMdBIsXyknEBSxZDXjfcYc8R26dKlJUuW3HHHHUZrXl7enDlzLl++XF9fP2PGjFWrVsn63NzcuXPnNjQ0VFdXZ2RkKEO3+fPnix2vXLniMI4Y5K677jp37pwonzhx4uzZs5aU88yZM2Jz7969oix2//DDD2W9wfuDh2J849wmTpy4Zs0aU/e/Me9i1zk7O/uBBx5obGy8ePHitGnTlC8wPz+/tra2ubl58eLFos8Nx7h+lPvvv18MXlVVJQZ/5JFHZNNrr7128uRJT3umKU5g5syZsl55UI/97KEbFzwAOOCpAuiD+1E3rIgmWAiXIFUMNFIsHyknkFQx5HXjPUaGX/Hx8bGxsaKQlpZ2/vx52VRTUxMREVFRUSE3d+3alZiYKApVVVWi57Fjx2T91q1blaHbiRMnnMf59NNPRbejR4/KesmSEl64cCEyMnLDhg11dXXmbgZLf8u5bdmyxfsJa+xi11nWGye8bds25QusrKyUHQ4cONCnTx9ZNsg+3oNb7Nu3LyoqymN/ULvZg6dbFzwAOOCpAuiD+1E3rIgmWAiXIFUMNFIsHyknkFQx5HXjt3uNpOzatWvvvPPOoEGDHn/8cdl09OjRXu2BozRgwID+/fu3tbUdOXJE1Dc0NMhuhw4dUoZuRtJnN46sN8aRLPsKO3bsyMnJiY2NzcrK2r9//xdd21n6e59bRETEF73bGbvYdbbUi2lxfoFy0/LLkrLSe3BP+yvKzMwcOHCgmAoZ5ra2ttod1G72ZDeX68YFDwAOeKoA+uB+1A0rogkWwiVIFQONFMtHygkkVXQjS0C2efPm/v37X7hwQZSrq6tFk/HRRUMnP6tojGk3jvysouVLze+//755X0Nzc/O6desGDRpkqbf0t5zbyy+/7P2ENU7PrrN4+b1MHxvcvn278wt0SBXNg99yyy2e65++LC0tFa9IbL711ltyX7uD2s0eAAAAACAskSoGGimWj5QTSKroRpaA7OrVq6NHj/7Rj34kN2fNmpWfn3/p0iVPe2C3Z88eWZ+Tk5OXlyd/ATAzM9M5dHMYZ968eWIoGZnJ31WUP6T48ccfyw6nT58WnVtaWtra2tavX5+UlHR9yL+z9Pe0/+ajcW6TJ09evXq1qfvfmE/PrvP06dMXLlx45cqVmpqarKws5xfokCrOnz+/oaFBDv7DH/5Q1J86dUrU7969W5QrKyuzs7ONfZUH9djPHgAAAAAg/JAqBhoplo+UE0iq6EbeCeBLL70UExNTU1Pjaf8DKcuWLUtMTIyNjR0zZkxRUZHso/xrxXahm8M49fX1Rv348ePlbywuX75cftt348aNFRUVmZmZcXFxUVFRU6ZM8f4GtOfG/p723G327Nlil4SEBNEkPxJoZj49u86VlZU5OTnyBYrLOyIi4tq1a3Yv0CFVlH8DWsznokWLjL/d/NRTTw0ePFi85IyMjOLiYmNf5UE99rMHAAAAAAg/pIqBRorlI+UEkiqGv9ra2pKSkurqamsD7JWWlnbjMe0drXZJ9w4KAAAAAAh1pIqBRorlI+UEkiqGPLvf7m1qanryySfnzZs3bty4srIyazO8HDt2TH6r+syZM+np6StXrrT26Eg3UkXfD+o2dhc8AHQPTxVAH9yPumFFNMFCuASpYqCRYvlIOYGkiiGvsLDQUnP48OHZs2entBsxYgSRYieJiRo+fHh0dPTAgQMLCgosf6i6M7qRKvp+ULfxvuABwBc8VQB9cD/qhhXRBAvhEqSKgUaK5SPlBJIqhjzjPUZ+OHH8+PFD2s2dO3fChAlEiggz/EcVAP/iqQLog/tRN6yIJlgIlyBVDDRSLB8pJ5BUMeSJ9xjjw4kyTxRWrlxJpIiwxH9UAfAvniqAPrgfdcOKaIKFcAlSxUAjxfKRcgJJFUPeihUrRo4cKZ4pQ4cONVLFYcOGbdy4Ubz9iLJ8E6JMOTzK8+bNU9ZTpkyZcvfK4qmirKdMmXLwy9yPupX57y7KlINZHtJOluWmLCg5t0KJFMtHygkkVQx5v//972trazdt2vSVr3xl4sSJkyZNkg+jkSNH8llFhB9+rBqAf/FUAfTB/agbVkQTLIRLWIJC59zQuRVKpFg+Uk4gqWJYOXz4sPzoYmZm5tChQwkWAQAAAADQH6lioJFi+Ug5gaSKYcj46GJKSkpaWhrBIgAAAAAAOiNVDDRSLB8pJ5BUMZzJjy6OGzeOYBEAAAAAAG2RKgYaKZaPlBNIqhj+amtrS0pKqqurrQ0AAAAAAEADpIqBRorlI+UEkiqGPH67F67CBQ/Av3iqAPrgftQNK6IJFsIlSBUDjRTLR8oJJFUMecYfngfcgAsegH/xVAH0wf2oG1ZEEyyES5AqBhoplo+UE0iqGPJ4j4GrcMED8C+eKoA+uB91w4pogoVwCVLFQCPF8pFyAn1NFYWf//znYlP8L+UeKf/DP/yDsp4yZcqUKVOm3GFZ/FNNWU+ZMuXgl7kfKVNWlsW/+JT1lMOsPGTIEHN9bGysdx+jLFqV9ZSdy73sMy50SBkS9jJvWCh3MDi3Imj4f67gKlzwAPyLpwqgD+5H3bAimmAhXILPKgYaKZaPlBPo51RRRr/CY489ZmyaO/jIPKDd4Hb1Zp3pI6xrZ61V6cyJ2Xn00Ud79+5dUVHhMU3gTTfdlJGRUVZWZu3t5Tvf+U4nT9Lsz3/+szjomjVr5KYYwTj0jR0BvfBj1QD8i6cKoA/uR92wIppgIVyCVDHQlCkWOk85gU4RknIHg7JVxlKlpaXl5eXGprmDj8wDlra7sf1vOnPQzvTxdLqb58aT6fxeQmVlZd++fb/xjW/ITbmvGGrlypWiMHr06Bu7KzgfrqWlxVp1nThov379zp49K8p//OMfxUGdhwIAAAAAAIFAqhhoyhQLnaecQKcISbmDQdlqiaXMm7L8s5/9LD4+fvDgwf/1X/8lKhcvXiwq33zzTVE+d+5c7969J06cKMrbtm1LS0vr27dv//79s7KyPvjgA7sBZfnEiRNix5iYmMcff9xcb2bXp7Gx8Qc/+EFycnKfPn1Gjhy5ceNGWS/7GGRlV0/sueeeGzZsWGRk5IABA0R/WWn24x//WHT+zW9+IzeNfZuamnq1f2JR1nfpJGX5pz/9qZjqdevW3XPPPWJT5rxlZWWinJeXJ8rioLKb3MvY0dgEAAAAAABBQKoYaMoUC52nnECnCEm5g0HZaomlzJuyPG/evJ/97GeicNttt4nKAwcOiPLixYtF+Re/+IUob9iwQZT37dsnRi4uLhadb7rppilTptgNKMtf+9rXRHnZsmUPPvigud7Mrk9BQYEoz5kzR7yivLw8Ud6xY4en/eOHspv5c4hdPbGYmJgxY8a88MILzzzzTH5+vqw0mzRpkugsv/7sub5vTU3N1q1bRWHGjBmyvksnKWuys7Off/55McNvvPGG2HzooYdE04oVK0R5z549oiwOKspTp06Vexk7GpsAAAAAACAISBUDTZliofOUE+gUISl3MChbLbGUeVOWa2pqrl69KgoRERGyfuzYsTExMQ0NDenp6VFRUbW1tZ72sCwlJUXuIkRGRtoNKMvR0dGiXF9ff/nyZXO9mV2fuLg4uWl48MEHZZPc/GKIrp9YRkaGGH/BggU///nPDx06JCvN5FlduXJFbhojC6mpqX/5y19kfZdOUtbIrzZLYm5jY2MvXbo0ePDgkSNHXrt2zdP++cde1/90lHlHYxMAAAAAAAQBqWKgKVMsdJ5yAp0iJOUOBmWrJZYyb9qV169fL8qrV68W/7tkyRJZmZCQ0Kv9c4t79uy5+eablTuayzKbu3z5cl1dnbnezK7PgAEDel0/liS/LOzxejmerp+YONbzzz//yCOPjBo1SlS++uqrst4gz6qpqUluyn3ffPPN+fPn9zJNSJdO0rtGftn53nvvFf/7i1/8QlbKL1nHxMQY3bx3BHTDj1UD8C+eKoA+uB91w4pogoVwCVLFQFOmWOg85QQ6RUjKHQzKVkssZd60K3/66af9+vWLiIgQNQcPHpSViYmJvdrzr4cffthuR3PZ7tvNZnZ9RI0oT548edOmTZs3bxat8svCnutZ3jPPPLN7925Z09UTW7hw4caNG3/3u99lZ2eLyqKiIllvmDhxoqg/fvy43DT2bWpqSk1NFWX5CUeHk+zfv3+vG0/SfAJSS0tLcnKyqBRTLSZcVoqDyjGNbt47AropLCy0VgGAD3iqAPrgftQNK6IJFsIlSBUDTZliofOUE+gUISl3MChbLbGUedOuLNx///1ic9y4cUbNli1bkpKSYmNjV69enZaWptzRXD5x4kR6enp0dLT8zKN5cINdn+bm5rVr19522219+vSJi4vLzMwsKSmRTb/85S/j4+NFz9tvv13WdPXE7rnnnsTExN69e998883z58+vq6uT9YY1a9aIzr/97W/lpnnf5557TpRzcnI8jid53333WU7SPIjhySefFJXiHIwacVBR89hjjxk1yh0BrfAfVQD8i6cKoA/uR92wIppgIVyCVDHQlCkWOk85gU4RknIHg7JVxlI1NTWNjY3metj55JNP+vbte99991kbOq0z7zEHDhxYtGiRWBpRMCrvvfdecWj584tivcSqkSpCf5254AGg83iqAPrgftQNK6IJFsIlSBUDTZliofOUE+gUISl3MChbZSzV68ZPwMHZo48+2rt3b+PPQHdVZ95jxIrExcWZF0UcThx0zZo1cnPdunXG2hl9AA115oIHgM7jqQLog/tRN6yIJlgIlyBVDDRlioXOU06gU4Sk3MGgbDX+lsjJkyfN9Qgcv/x276lTp4y1s7YBOvHLBQ8ABp4qgD64H3XDimiChXAJUsVAU6ZY6DzlBPo5VQQAAAAAAECXkCoGGimWj5QTSKoIAAAAAADQk0gVA40Uy0fKCSRVBAAAAAAA6EmkioFGiuUj5QSSKgIAAAAAAPQkUsVAI8XykXICSRVDHr/dC1fhggfgXzxVAH1wP+qGFdEEC+ESpIqBRorlI+UEkiqGvMLCQmsVEL644AH4F08VQB/cj7phRTTBQrgEqWKgkWL5SDmBpIohj/cYuAoXPAD/4qkC6IP7UTesiCZYCJcgVQw0UiwfKSeQVDHk+f095oMPPoiJiWlubrY2OHrvvffE9dDU1GRt8Fn3zseBcap2I8sOV69etdR7sxsBgeP3Cx6Ay/FUAfTB/agbVkQTLIRLkCoGGimWj5QTSKoY8rrxHiNTs5iYmLi4uJtvvnny5Mlr1qyprq629uuKwKWKftfhqXY+VUTwdeOCBwAHPFUAfXA/6oYV0QQL4RKkioFGiuUj5QSSKoa8bvx2rzlWa21tPXr06JIlS5KSkk6dOmXt2mkdRnX66PBUSRV11o0LHgAc8FQB9MH9qBtWRBMshEuQKgYaKZaPlBNIquhGylht3rx5CxYssLQWFRWlpqZGRUWlpKTI/4tMtv76179OS0uLjY1dunSp7Gneq7i4eOzYsaI1Pj5+7ty5VVVVonLjxo0TJ040Dnfy5MnIyMhPPvlEeRQzY2RZ2L59uxhcdJ46dWp5ebnosGHDhkmTJhn9T58+3bt37zNnznhszsQyoDzn8+fP33333dHR0RMmTHj66aeVqaL3eZpHOHfuXG5urmUEu3M2syyHkWnaTbWZ7LNt27bx48eLQ3/5y18W47/66qviHMThpkyZ8tFHH8me9fX1BQUFCQkJYirEUI2NjbLe+0XZVSon02Pzwj32RwQAAAAAWJAqBhoplo+UE0iq6EbKVPGVV15JTEw0t545c0YU9u7dKyovX7784YcfGq33339/Q0NDVVXVxIkTH3nkEcuYr7322smTJ0Xh4sWLM2bMmDlzphwhJibm3XfflYdbu3btV7/6VVFQHsXMEgLm5+fX1tY2NzcvXrx42rRposNf//rXm2666ciRI7L/448/npubK8vKM1GmimKXuXPnihdVXV2dkZFhRGMG5XmaR8jOzn7ggQcaGxvFscSJyRHsztnMOVX0nmoz2WfBggViEsT4S5cuTUtL+9a3vmVs3nnnnbJnXl7enDlzxJnX19eLqVi1apXH5kUpKz02k+mxeeF2RwQAAAAAeCNVDDRSLB8pJ5BU0Y2UqWJZWVnv3r3NrRcuXIiMjNywYUNdXZ3RTbYeO3ZMbm7ZskU+zpRjCvv27YuKipLlBx988Hvf+56n/WvXKSkp27dvF2XlUcwsIWBlZaWsP3DgQJ8+fWT5gQceePjhh0Xh2rVraWlpJSUlxu4G40y8U8Wqqirzi9q6dasRjRmU52kZoaKiQtZv27ZNjuBwzgbnVNF7qs0s47/99tti8/z588amPFxNTU1ERIRxert27ZIJsvJFKSstjMm0e+F2RwQAAAAAeCNVDDRSLB8pJ5BU0Y2UCaD3ZxVFeceOHTk5ObGxsVlZWfv37zdaGxoa5F6HDh2KiIjw3iszM3PgwIEDBgwQ+4r61tZWUf/uu++KmsbGxp07dyYlJX3++edyEO+jmHmHgOZ6mf3t3r1bnLwYcO/evfHx8VeuXJF9lGfiPeCRI0csL8oY2cz7PO1GeOedd+QIDudssOtjN9VmdvtaNo8ePSoK8deJ2ejfv39bW5tH9aIcKr0n0+6FOxwRAAAAAGBBqhhopFg+Uk4gqWLI68Zv91qiKCkvL2/hwoXK1ubm5nXr1g0aNMhoNT5A9/LLL99yyy3mveQn3UpLS8Veov6tt94y51xTpkx54YUXZs+e/eijj/599OvMRzHzDgHN9XLk1tbW1NTUHTt2LFq0SH4c0nP9M3feZ+I9YGc+q2jwng35qnuZPrK3fft2y7FkvSX1k8rLy0VlTU2N3Hz99dfN+3pPtZnz+MZmdXV1L9NnGL0pJ99caTeZdi+8wyN2WzcueABwwFMF0Af3o25YEU2wEC5BqhhopFg+Uk4gqWLI8/7zJh0yR1FtbW3l5eUFBQVJSUnyV/OM1tOnT+/Zs6elpUX0Wb9+vehgtM6fP7+hoeHixYuTJ0/+4Q9/aN7r1KlTorB7925RWVlZmZ2dbc65iouL09PT+/bte/z4cVmjPIqZdwhorjdGXrt2rThWdHT04cOHZY3dmSgHzMnJycvLkz8OmJmZaR5ZUp6neYTp06cvXLjwypUrNTU1WVlZlmPJQZSpomiNj49/4oknWltbz549a9nXe6rNnMc3b86aNSs/P//SpUue/9/evUBJUd2JH+fpioAEBBwGBEGEsCJCAkHdHMUYN3GzJmBWV4wmYXdd4yPR/F0fkCCv8NIRgg9YRVcJKIoSFY2PE8HHRhQMSjCgjMDIIO+NI+/nUP/fmRsqxa1b1VXd1dO3ur+fM4dTXXXrVt17f/d294+enrpfW5a2OAGNMu4M6kwnoOFBV8xdFgEPACFYVQB7MB9tw4hYgoEoEWQV840sVo6MHUhWMfUyPsfU1NTMmTNny5Yt7h6VbGrevHnLli1btWp11lln3XrrrW4BN1G1evXqgQMHShn114S9v/Or/jCx1HDVVVepv+3rTW9NmjSpXbt2LVq0GDBgwIwZM7x5rp07d8r+QYMGqYfCeBUvYxLQ3e/WXFlZKQ/POOOMv50ZcCfGCoP+kLHLeJ/eGtavXy/tUjXI7GjYsOGRI0fC79m1YMGCrl27yrlyiZkzZ3rv09/VXuH1ex/u2LHjmmuuadu2rfRGjx49pkyZ4gQ0yrjTCehMJ6DhQVfMXcaAB4BYWFUAezAfbcOIWIKBKBFkFfONLFaOjB1IVjH1Qp5jlixZcsMNN/Tq1Wvx4sX6sWxpaay4jhw50rVr18cff1w/UFzmzp2b+yqfY1cXRCINDxcS8ACQBVYVwB7MR9swIpZgIEoEWcV8I4uVI2MHklVMPf9zTE1NzUMPPfQP//AP5eXlXbp0STCl6OSc6po3b54sf+q7+YrMqlWrVq5cKRtVVVVnnnnmjTfeqJeIKceurjeJNzycP+ABIBesKoA9mI+2YUQswUCUCLKK+UYWK0fGDiSrmHre7+5VH0487bTTvva1r3Xq1Ek2kk0pOrmlutq3by9r34IFC/QDRUG6Wv0Wc+vWrYcNG+b+WeSs5dLV9Snxhofjy6oBJItVBbAH89E2jIglGIgSQVYx38hi5cjYgWQVi4H74cQzzzyzT58+ZXXykVIEAAAAAACJI6uYb2SxcmTsQLKKqbdo0aLTTjtN1pSOHTuqfKLo3Lnz9OnTKyoqZFt9YJ5tttlmm2222WabbbbZZpttttm2c7usjtpWD9WGUfhRGJHFypGxA8kqFoNly5YNGTLEm1W87rrrevfuzWcVAQAAAACwn5YoDM8bhh+FEVmsHBk7kKxi8di/f/9dd93Vu3dvlVj83ve+R2IRAAAAAAD7kVXMN7JYOTJ2IFnF1PN/d6/70cXy8vJu3bqRWEQx8Qc8AOSCVQWwB/PRNoyIJRiIEkFWMd/IYuXI2IFkFVPP/doFjfro4qWXXtqrVy8SiygaQQEPANlhVQHswXy0DSNiCQaiRJBVzDeyWDkydiBZxdTL+BxTU1MzZ86cLVu26AeAFMoY8AAQC6sKYA/mo20YEUswECWCrGK+kcXKkbEDySqmHs8xKCkEPIBksaoA9mA+2oYRsQQDUSLIKuYbWawcGTuQrGLq8RyDkkLAA0gWqwpgD+ajbRgRSzAQJYKsYr6RxcqRsQPJKqYe392LkkLAA0gWqwpgD+ajbRgRSzAQJYKsYleCrhIAAC2jSURBVL6RxcqRsQPJKgIAAAAAABQSWcV8I4uVI2MHklUEAAAAAAAoJLKK+UYWK0fGDiSrCAAAAAAAUEhkFfONLFaOjB1IVhEAAAAAAKCQyCrmG1msHBk7kKxi6vHdvSgpBDyAZLGqAPZgPtqGEbEEA1EiyCrmG1msHBk7kKxi6lVUVOi7gOJFwANIFqsKYA/mo20YEUswECWCrGK+kcXKkbEDySqmHs8xKCkEPIBksaoA9mA+2ibxEXn//febN2++f/9+/UCo9957T9547tu3Tz+QH9ndZF4lPhD5YGG/pQ5ZxXwji5UjYweSVUy9VDzHAEkh4AEki1UFsAfz0TZZjIjKADZv3rxly5Zf+tKX+vbte/vtt2/ZskUvF0c9ZxUtlMVAII3IKuYbWawcGTuQrGLq8RyDkkLAA0gWqwpgD+ajbbIYEW8G8PDhw8uXL//hD3/Yvn37tWvX6kUjI6uYxUAgjcgq5htZrBwZO5CsYurx3b0oKQQ8gGSxqgD2YD7aJosRMWYAL7300iuuuEI7OmXKlI4dOzZr1qy8vFxlzdTRhx9+uEuXLi1atPjRj36kSnrPmjFjxpe//GU52qpVqyFDhmzevFl2Tp8+vU+fPu7l1qxZ07hx408//dR4FY2/gPdyGzZs+MY3vnHCCSf07t373nvvlf2HDh1SBZ555hm5EznxK1/5yooVK/R6fV2hHrqn+5vppZW5+OKL3TLGHnACblX279y5c9iwYW3atJHycq09e/a4V3HFrdNY3m1vxP6BH1nFfCOLlSNjB5JVBAAAAAAkwJhVfPbZZ9u2bes9WlVVJRuvvfaa7NyxY8ef/vQn9+hll122e/fuzZs39+nT55ZbbtHqfOGFF9asWSMbW7duvfDCCy+55BJVQ/PmzZcuXaouN3z48G9961uyYbyKl7GA93Lnn3/+5ZdfvmfPHrnc2WefrdJqqsCVV15ZU1Ozf//+q6++Wg5pNTu+rtCyiv5meoWUMfaAE3Crsv/73//+4MGDpXU7d+6U8j/96U+PXuRv4tZpLK9lFTP2D/zIKuYbWawcGTuQrCIAAAAAIAHGrOLixYsbNWrkPbpp06bGjRvff//9X3zxhVtMHV21apV6+OSTT6q8ibFOsWjRombNmqntf//3f7/22mudul+7Li8vf+aZZ2TbeBUvYwH3cps3b5aN1atXq/1PP/20SqupAuvXr1f733rrrSZNmrinu8Kziv5mekUp43h6IOhWt2/f3rBhQ3f/Sy+9pNK7ITLWeUxpT3ktq5ixf+BHVjHfyGLlyNiBZBUBAAAAAAkwZgD9n1WU7fnz5w8aNKhFixbnnHPO66+/7h7dvXu3Ouudd95p2LCh/6yBAwe2bt36xBNPlHNl/+HDh2X/0qVLZc+ePXsWLFjQvn37gwcPqkr8V9H4C7iX++CDD7z38+6776q0WlC6ULabH+WtRysW1EyvkDLGHgi61eXLl8tGq6PklOOPP762tlYVc8WqM6i8llX0N9y9HIKQVcw3slg5MnYgWUUAAAAAQAKMWcXvf//7Q4cONR7dv3//qFGjTjrpJPeo+wG9p5566uSTT/aepT5aOHfuXDlL9i9cuNCbrurXr99jjz32ve9977bbbvtr7Ud5r2Lkvw11uQaeD+s988wz6nIRs2YrVqyQ/du3b1cPX3zxRe/p/mZ6BZUJ6oGgW92yZYtsbNy48WjFBnHrDCpPVjF3ZBXzjSxWjowdSFYx9bL4EmUgvQh4AMliVQHswXy0TRYj4s0o1dbWrlixYtiwYe3bt1dfw+ceXbdu3e9///sDBw5ImbvvvlsKuEf/9V//dffu3Vu3bu3bt+/Pf/5z71lr166VjZdffll2rl+//vzzz/emq2bMmHHmmWc2bdq0srJS7TFexctYwNuE8847b+jQoXv37t2+ffs555yjpc9UJUFZMynQqlWrMWPGHD58uLq6Wjvd30wvrczpp5+uyoT0gPFWZf93v/vdK6+88i9/+YtT90vN0t5jrhS/zqDyZBVzR1Yx38hi5cjYgWQVU8/4t8yAYkXAA0gWqwpgD+ajbbIYEZVCat68ecuWLVu1anXWWWfdeuutW7Zs8R7dt2/f6tWrBw4cKGWaNWvWr18/768eqz98LDVcddVV6g8We7NUkyZNateuXYsWLQYMGDBjxgxvumrnzp2yf9CgQeqhMF7Fy1jAe7n169dLheqPIMv734YNGx45ciR61mzBggVdu3aV0+UqM2fO9Gbf/M300sp89atfdcsE9YDxVp26v0JzzTXXtG3bVk7p0aPHlClTvBdS4tZpLE9WMXdkFfONLFaOjB1IVjH1sniyB9KLgAeQLFYVwB7MR9tkHJGampo5c+a4ScMcadmouI4cOdK1a9fHH39cP5CQuXPnJpLHidJMrUzGgdAkdate+agTGrKK+UYWK0fGDiSrmHpxn2OAVCPgASSLVQWwB/PRNkEjcvjw4fvuu+/SSy/t1avX4sWL9cPZipJuCzFv3ryysjL1ZX9JWbVq1cqVK2WjqqrqzDPPvPHGG/US8UVpZhZZxXzcaj7qRAiyivlGFitHxg4kq5h6UZ5jgKJBwANIFqsKYA/mo238I/LRRx9dccUVnTp16tChQ7du3RJMKTq+VFos7du3LysrW7BggX4gN9JA9SvMrVu3HjZsmPsHkXMRpZlZZBXzcav5qBMhyCrmG1msHBk7kKxi6mXxJcpAehHwAJLFqgLYg/loG3dE1IcT+/btW1bn4osv7t27d7IpRYRgapQIsor5RhYrR8YOJKsIAAAAADBwP5yo8onixz/+MSlFIB/IKuYbWawcGTuQrCIAAAAAQLdo0aJu3bqVlZWVl5e7WcXOnTtPnz69oqJCttVv5rLNNtuJb6uHTrDwozAii5UjYweSVQQAAAAAGNTU1Dz00EPnnnvuGWec0bNnz7Kysg4dOnTv3p3PKgKJ0xKF4XnD8KMwIouVI2MHklUEAAAAAIRZsmTJ9ddf361bt379+nXs2JHEIpA4sor5RhYrR8YOJKuYenx3L0oKAQ8gWawqgD2Yj7bxj4j70cXy8vIuXbqQWKwf/oFAUSKrmG9ksXJk7ECyiqmnvnkBKBEEPIBksaoA9mA+2iZkRJYsWXLDDTf06tWLxGI9CBkIFBOyivlGFitHxg4kq5h6PMegpBDwAJLFqgLYg/lom4wjUlNTM2fOnC1btugHkKiMA4HiQFYx38hi5cjYgWQVU4/nGJQUAh5AslhVAHswH23DiFiCgSgRZBXzjSxWjowdmGtWcfDgwVNRUEOGDNF3AcWLgAeQLFYVwB7MR9swIpZgIEpEmzZtXvfQHmrkqH4+Mhk8eHBIjgsZTTUlCXPNKgIAAAAAAAD2C8pxISNjkjD7rGJ1dfU0AAAAAAAA5KZNmzZveGgPNXJUPx/RVFdX6+ktRGNMEmafVQQAAAAAAEDu+F5FWM6YJCSrCAAAAAAAUEhkFWE5Y5KQrCIAAAAAAEAhkVWE5YxJQrKKqff222/ru4DiRcADSBarCmAP5qNtGBFLMBAlgqwiLGdMEmbOKg4ePHgqLDZkyBB9F1C8CHgAyWJVAezBfLQNI2IJBqJEtGnT5nUP7aFGjurnA3k2ePDgbLKKAAAAAAAAAEpcjKxidXX1X//yNiw2ZMgQfRdQvAh4AMliVQHswXy0DSNiCQaiRLRp0+aNYHJUPwEohOrqam/mMCyriFSoqKjQdwHFi4AHkCxWFcAezEfbMCKWYCBKRPhXJYYfBQqFrGLq8d29KCkEPIBksaoA9mA+2oYRsQQDUSLC84bhR4FCIasIAAAAAABQSOF5w/CjQKGQVQQAAAAAACik8Lxh+FGgUMgqAgAAAAAAFFJ43jD8KFAoZBUBAAAAAAAKKTxvGH4UKBSyiqnHd/eipBDwAJLFqgLYg/loG0bEEgxEaWLckQpkFVOvoqJC3wUULwIeQLJYVQB7MB9tw4hYgoEoTYw7UoGsYuqx1qCkEPAAksWqAtiD+WgbRsQSDERpYtyRCmQVU4+1BiWFgAeQLFYVwB7MR9swIpZgIEoT445UIKuYeqw1KCkEPIBksaoA9mA+2oYRsQQDUZoYd6QCWcXU4ztcUVIIeADJYlUB7MF8tA0jYgkGojQx7kgFsooAAAAAAAAA4iGrCAAAAAAAACAesooAAAAAAAAA4iGrCAAAAAAAACCedGcVX3/99QYNGmzfvl0/kJwHH3zw1FNPbdSokVxIP5Yq9dBX9UC1oqamRj9QAuphBIl22KYehpKwt0opL/KFUhyR4/I2p+BNK/gN5CK7yRixyRGLwa8gXVeQiyJHjFriCtKlBbloPfO2sRTaW5Ty+yZKhYXXTTfdpBfKgT8E4776CffZZ5/JW80ZM2Zs3Lhx8+bN+mHH2bBhw3/+53+ecsopTZs2bdeu3b/8y78sXbpUL1TvjF1x4MABacKRI0e8O2OJNcnXrFlz2WWXtW3btnHjxieddNJ555338ssvq0PG24sol3OV3GsIQrQXhLEr6jnaYxUOZ2yOzQj7gjB2RT2HfXoXeW/Qnnjiid/61rdWrlypF0qPjO31MhbOPXK8Cj5lvM0JCmm1v2XLlnv27HF3rlq1SkVFxM6MIugGCmvZsmVyV+eee65+4FjGaMkoYjhlLJbd1V05np4UdRtKUqtNQbou40Vj8XZL69athw4dum3bNr1QvfPPVmNXJMLtgYYNG7Zq1WrAgAFjx47duXOnXs4n1i35W1Rw/luK1aJYvGHG7PNK/GnaeNuxeAPDHyRIhfrIKsoc3nxUlBUzOn8I5hLQfm+++abU+fnnn+sH6sh7qvbt23/3u9+VYtXV1X/84x+HDx/+T//0T3q5epePrnDiTPJ9+/Z16tTp4osvfvfdd+VN+wcffDBt2rQnnnhCHc3l9nI5V8m9hiBEe0HkoyucONHuxCwcLpfmHDp0SN8VLFbhEIR9QeSjK5w4kZzqRd4btMuWLbvooot69uypF8pZUlMso4zt9YpVOAu2TZmgkFb75T3VY4895u685ZZbOnfunGz/BN1AXMmG03XXXTdgwIBGjRqtWrVKP+aR72gJF+XqId0S5fQQITXHom4j36uNJkrbQxoY5fQcebvlnXfeOeOMM+TZRC9U7/yzNcGu0Drc2wOrV6+eO3duv379unfvnjG7GuuW/C0qOP8txWpRuJBOZva58vE0HeW2Q1rtHBsY/iCJIrx+1IP6yCr6w0Jexp111lnHHXfcl770pR/84AduFNbW1k6ePPm0005r2rRphw4dxowZ4/gq8Qau91CDY8keOV2eqNRZyrnnnvvTn/7Uu8epi8Jf/OIX8gZJLtqjR4+HH37YPeSv0+sf//Ef/ZPQbUtIteq2X3nlla9+9at/93d/N3DgQJnh8t6sf//+8lD+rays9Jb8/e9/f84558gheb173333eQ8Zu+XYu/7rbXvLq+1XX331K1/5ioyCXPHjjz9WxQ4cOHDzzTe3bdv2hBNOGDx4sLxLdKv11vDf//3f8nK8cePG5eXlU6ZMUee65CWClKyqqtL2K8fcXN3thbRFulFe6Kv7ueSSS2bPnu0eEvI+VvpWerhjx44jR448fPiwtwZjA4+9+F87J7w5EWmtcBHtDYo62h3f7XkFhahx9B1Tc0LarrZfeukleX8o9bzwwgshV/QXztiuKILaTtg3KOqwT90i76XdjAyTPNy3b59bIPyixsFyj0acj0HdG1Q+bnuDJqCxsNshDz74oLzZcC8qhg4dKoOitoPuzSu7KRMSHiENNy4mWm1azS61X1px3nnnqT0HDx6Utt95553upZ3gJqvTc5zgSvglEl+xxd69e1u1avW73/3um9/8pkw976GQyRi3yRkXIm8xY9MaHMt7lrdbYoV6UAQaazbeVVzeZjpxVptcFupjWp5Q13kvmrEbjSPupXXLvHnzpAkyB53gtSukQ5zgboxFuyt3j7qKsaud4Ev7O9w9xT3qvZZMzJ49e1533XXqYVA//G1g6oQXVlcJWn+Czorb0lj8Da+3Tmb2Kdk9TTuh9YfctrfVGSs3PnEHDZO/frc2FIThBXeCtLBw/eY3v1m4cGF1dfUbb7zRu3fvq666Su2/7bbbWrduPXfuXDn03nvvqf9D1ipRD/1ze/78+bK9evVq9XkZp+7zvTLVlyxZok6U0JcCf/rTn9RD1/XXX9+uXbsFCxasX79+5syZsuz+z//8jzrkr9P1f//3fw0bNpSp5d3pFVKtuu2zzz578eLFclfyNlhepQ0aNEhen6mHF154obdk9+7d/fWEdIvxtr3l1bZcSN4ZfvTRR3IncnVV7Cc/+Ym8OpeXm3K5Rx555OSTT/b3tryTlLZPnDjx008/lWGSe1PnumS/FJg0aZLx/w38txfSlp/97GfyQl81X97wyBLvHho1apQ8ActqIgMtT5mnnnrqiBEjvDUYG+i/esbmRKS1wkW0NyjqaPcW1vaHhKhx9B1Tc0Larrb79u0roSW3J2VCrqgVfv/99zO2K4qgthP2DYo67NO1yGu8N/PFF19cffXVvXr1co9mvKhxsNyjUeZjUPcGlXcrj97eoAloLOx2yOeffy5vFdzfZN+1a5e8p3rqqaec0HtzZT1lQsIjpOHGxUSrTavZpfZLPxx//PFr1qyRPb/97W+7deu2aNGi6OGX4wSPconEV2ynLjbknXBtbe28efNkOFQqRwmZjHGbnHEhcosFTYeQWPXOslihHhSB/pqT6nBvb8RabXJZqI1tz7HrvA3J2I3GEffy1iaef/55acj+/fud4LUrpENCujEW7a7cPXKVoK4OubS/w91q3aPazqlTp0ob1XZQPxhHJ6iwukrQ+mM8K4uWxuJveP10MrNPyfpp2gmtP+S2va3OWLlqo3c7ZJj89av9KJQG+o5EqfFu7iFhpJV59tlnZf+RI0d27twp4fXoo49qBbyx5T70v+H07nd95zvfufbaa9W2vADt37+/96hTt8o0bdpU5ra7R4r1PPoBaWOdiryQkkMS4vqBOlGqldVEPZQXdvLwrbfech82adJEZeJVSa2eL3/5y+6hkG7RbtvfV/LqWR2S9wxyRXlzuGPHDrlteY3unnXHHXf4q5LVs4HprbvXtGnT5N1IixYtvv71r99yyy1yinvIf3tBbZH7kXc43ub/13/9lzq0Z8+eZs2ayatb99ATTzzRpk0btR3UQPeQ9+pRmhOFqplod0zVFne0a7enhIRo0Og7puZkbLv7Uibkiv7CUdoVhaqWsHdM1RZ32KdokdeoAipcZaNHjx4qr+REm0TGwXKPRpmPxu4NKe/k1l53AjoBhdVONTqDBw92397Mnj37xBNP3LdvX/i9ubKeMt4bcB96Q93f8KDFxDm2Nq1mf5nLL79cvUWRlWTcuHHupcObrIrlOMGjXCLxFVucf/758j7NOfrxzKefflrtD5mMTvwmhy9E3mJBTXPHwr8zKMcXHuohEej4ag66q7hUtXFXm/CFuv67zt0pF43SjcYR93Jrk235V2Ly7LPP1so4nrsK6ZCQbozLe1fePXIVY1eHXzq8w/3XEi+//LLsPHDggHenE2F0vPyFjeuPxj0ri5bG4m94vjuZ2ecWdnJ4mnZC6w+5bbfVUSrXnrhDhsktFtSrqH/1kVVcunTpJ0ep4PvDH/5w4YUXtmvXTt6QHH/88VJGXiAuWbJENvzvSL1x5j7U5ra23/Xcc8+1atVq79698lqnQ4cOM2bM8B51js4u70V/97vfyR71P2bGOpXwaRml2q1bt6pD6uFf/vIX70OZe+62sR5v292S3m4xzm1vX2k3IFdUt11dXe2epS6nVSWDOGDAAOlYee8hLyWDPgMvY/riiy/Ky/RvfvObDRs2nDp1qtrvv72gtvhDwr0fCaoGx+YyVCDt2rXLrcHfQG/lbp0Rm5ORqplod0zVFne0a7enhIRo0Og7puZkbPvGjRvVoZAr+gtHaVcUqlrC3jFVW9xh76RnkdeoAlL/xx9/PH36dHmZO3/+fHUoykX9d+sd9Cjz0di9IeXdyqO31zgBgwqrnWp0nn76aTllT93fMPn2t789bNgwJ9O9ubKeMt4bcI69yaCG+yPH5a1Nq9lf5tVXX+3UqZPMiOOOO07u3L10eJONdxV3gke5ROIrtizRjRs3du9H3tTJKKttf5d6F4e4TQ5fiLzFgpqmChhj1e0WJ06oh0SgWz7xDlfVxl1twhfq+u86d6dcNEo3GkfcS+1XrZbnjv79+69evVodMt5VSIeEdKNbOCK3jdoeuYqxq8Mv7e9wL/+1xEsvvdTgaFbR2A/uibEW/KDBMp6VRUtj8Tc8353M7HMLOzk8TTuh9YfcttvqKJVrT9whw+SvHwVXH1lFbdGUmGvZsuWPfvSjxYsXV1ZWzpo1SwWi/wWN8sYbb3grWbhwoRu4/hDUAlrmvLzPnD179oIFC0444YQdO3Z4jzrRQlyrUwn/CHGUat0WaVfxPlTb/qVN6snYLca5rU1X7yEp719r1DOcvwcOHjz4wgsv3HDDDa1btx48eLB21G/s2LGybtbW1jqm2wtqiwoJf/PdW/3f//1fN5eheC/hb6C27YrbHCPtogrRHjIW2kO17R9u+6Ndu4QSEqJBo++YmpOx7e6hkCv6CzsR2hWFv1qHsPd1i3YV70O1ncaw11i+yHtp5950002dO3dWvwca5aL+uzUOenhV/u4NLx+rvTUBE9BY2N2pKpe2yNukJ554Qt45NGnSRH02LfzeXFlPmaDwcIIbHrSYuGWME8FfRpogoz9o0CCVXHPrD29y0F35H6ptY8zEuoRjipks3H777VJt46Ma1VG3FzIZHd/9ZGyysf+Dihmbpl3Cu9OtMFaoh0SgWz7xDteqjbjahC/U9d913tNjdaOxKnf/0qVL16xZI+uGuz/orkI6JKQb3cIRvf3221LVZ5995u5RHx7cu3evY+rq8EtrXaExHr3nnnvKy8ud4H5wT/R2acbC/kktgxVyVtyWxlLATmb2OTk8TTuh9RuvpZWPXrnWXuMw+etHwRUgq6gWFHeNu/vuu1UgBv0+y/vvvy8FPvroI/Vw2rRpWhCr+t96660Gnv84dQ0fPvyCCy6Q2f7DH/5QO+Qc/Zxz0IfDjZPEddFFF/n/ZpkqHKVa47TUHqptecOsDjl1rwhVPSHdYuwK70WDbuCLug8nP/nkk+5Z0nshPeAc/S0Y9WQQ4rnnnnO/M8V/e0FtUb+P423+rbfeqg7t2rXr+OOPf/zxx91DXkENdExX94rYHCPtogrRHjIW2kO1ncZo1y6hhIRo0Og7puaEtF27bsgVHV9hr6B2RWGslrAPijr/Q7WdxrDXpGWRd3znymvcxo0bP1H3B6yjXNQ4WO7RiPPR5XZvePlY7Q2agMbCjq/yf/u3f/vOd75z7733durUSb12D783r+ymTFB4OL57cxsetJg4oRPBWEb9hRb1i8Bu/eFNDror/0O1bYyZWJfwijgl/Q4dOlRWVjZx4sQPPfr27av+0E3IZHR895Oxycb+Dyrm8jYtSqzGCvWQCHR8NXtl3eGOr9qIq034Qm281bx2neM5PVY3qodunLiMTXCC7yqkQ0K6Ma4tW7bIs9hLL73k7pHJotJ8Xtkt2hr/0b11f63l+uuvd4L7wTGNTkhhdRXj+hNylitiS2MpYCcz+5Tsnqad0PrDb1s9jF65ux0yTI6vfhRcAbKKGzdulFktL1aqqqqeffbZU045xQ1KCa82bdrITK72fPf2gQMH2rZte+WVV0r5l19++bTTTnPLe+uXxUK25SXmtm3bvFdcu3Zto0aNmjRp8uabb7o7vW644Yb27du/8MILctGHH37Y/9Wh/gmpVFZWtmvXzv3T7PKyeOTIke6fVcpYrXFaag/V9umnn/7iiy9KPY888ojMLvUnk0K6xdgV3ouG3MBPfvITWdxluZfLSf/LC9AGvo9PL1my5L777pM3AJ988snVV1/dsWNH9WUQrj/84Q9XXHHF/PnzpYDUIzcvz5Ruz/hvL6QtN95448knnyw1yFnScOlw99Do0aMlWmR5+vTTT+VCEjbGPwHpPgzqnIzNiUi7qEK0h4yF9lBtpy7anaN1yr8feMi78ZAQNY6+Y2pOSNu1pjlxJkWUdkXhvweHsPd1i3YV70O1nbqwT9cir9HOdeq+TND9Vq+MFzUOlns0ynwM6t6g8v7Kw9sbMgH9hf2VL1q0SGbT3//930sNao8Tem9e2U2ZkPAIabhxMdFO8Q+Kv8zBgwe3131o0d2fS/hpD9V2UMxEv0RQzMTy3HPPych6PxomJk2adOqpp6raQiZj3CYb+99YLKhpUWI1bqgHRaC/5qC7ikur1om82oQs1AXpOu/p0btRPXTjxOXvFiXkrkI6JKQb45LR6dWrlyxfGzZskBuQapNatDXq6MqVKzdv3izLppzYr1+/7t27S587of3gH52QwuoqxvUn6KwsWhpXPXcys089dGX3NO2E1p/xtpWIlXu3Q4bJXz8KqwBZRSHrWocOHWRpu/DCC2W6ukEpr+omTJggr29kssn8HDdunCr/6quvyqtMCb5vfOMbElhuea3+X/3qV1KtvL1scPSPmisXXHCBLKnePV6HDh0aMWKEXK5p3Z85nzlzpnvIO2GMZFb8x3/8h5wrL9Rkil522WXLli1ThzJWa5yW2kO1Lc0fOHCgNF/WnWnTprn1BHWLY+oK70VDbkBe3N90000ygU844YR//ud/lgWiwdEPJ7tWrVolXdqyZUtpmtzYkqN/gNW1adMmWZHlOUPuTcp07dr15ptv9v5mov/2gtoiL/d//vOfn3TSSc2aNbv44otnz57tbeaDDz7Yp0+f4447rnnz5l/72tfcTg5poOO7esbmRKRd1EW0h4yF96HaTl20O0fr1Oyq+9aPoBANGn3H1JygtmtNU4KuqBWO0q4ojPfgEPbBUac9VNupC/t0LfIa7Vzn6K/cvnf0D86EXzRosPzVOgFVhXSvsbzjqzxje4MmoLGwVrlM0k6dOjXwfQ990L1pspsyQeER0vCgxcR7inFQMu7PMfy8D9V2UMw4kS8REjPRXXLJJRdddJG2c+3ateoOndDJGLfJxv43FgtpWsZYdWKGekgEajWH3FUs/huOuNqELNQF6Trv6dG7UT10q3X5b8YVdFchHeIEd2Nc8ix27bXXtm/fXpavLl26jB07Vn1fXkhXB106pI3O0aOiYcOGJ554Yv/+/ceMGeN9Dg3qB8c0OkGF1VWC1h/jWVm0NK567mRmn1vAld3TdHj94betRKxcOzFomPz1o7AML7iLT8+ePSdNmqTvTYOCT5jx48fLiq/vhcWI9qwR7elF2GeNsI+u4IMFoDSxUGvoENQbe4Itiy+yBOpNkWcVt23b9sADDzRr1sz9i0XpUv/vYZYvXz579uw1a9ZUVVXNnDmzefPmKX2vXoKI9riI9iJA2MdF2Get/gcLQGliodbQIag3dgbbhx9++OKLL+p7AWsUeVZR3gC0bdvW/bad1Kn/9zCykvbv318W0CZNmnTv3l2WUf5jJC2I9riI9iJA2MdF2Get/gcLQGliodbQIag3FgbbggULevbsafx1ZsASRZ5VLGKffPLJ/ffff3ediooK2ZY9eiGgWKiAl1C/6y4CHkACeBoF7MGzPAD4TZgwoUOHDtdcc41+ALAJWcX02bRp06hRYx566LGPPvqsuvoL+dmwYUdV1ZZZs+aMGzdOjuonAGkmIT127LhHHvlNZeUmFfDyI9uyR/YT8ADi4mkUsAfP8gDgt3///quvvrpLly6dO3d+99139cOATcgqpsz773/wy1+OXrt2m/vCy/uzaVPNr341fvny5fppQDpJMI8ZM66qars/2uVH9stRAh5AdDyNAvbgWR4A/LZu3fr1r3/9lFNOKSsr69+/v34YsAxZxTTZuHHjiBGj/K+6vD+bN+8aP348/7WLIiBhPHr0WH+Qaz9ShoAHEAVPo4A9eJYHAL8PP/ywZ8+e5eXlZWVl3bt3f/DBB/USgGXIKqbJ8OEjgz5e4f3ZvLlm7Nix+slA2owePWbduswBL2WkpH4yAPjwNArYg2f5+vHUU0/pu7K1e/fu+fN/O2HC5PHjJ40bN1H+lW3ZI/v1okgCHV6CduzY0bNnzw4dOpTVKS8vv+22Oxh3WI6sYmqsXPnR9OmP+l9sGX/mzHmisrJSrwJIDwngmTNn+WPb+CMlCXgA4XgaBezBs3y9qaio0HfFt3bt2jvvHDt+/N2vvfauNjqyR/bLUSmjn4Zs0eGlSY37zTff2qNHz65du5aVlXXu3HnixKmMOyxHVjE17rln2qpVG7TnlaCf9eu3Tp8+Xa8CSI/7738gesBLSSmvVwEAHjyNAvbgWb7e5JhVrK2tnTp12j333L9unfnrL9WPHJUyUlLK61UgDjq8NGnj/sEHn5x33gXdu59eVlbWp89ZjDssR1YxNUaNGu9/Rgn62bRpZ46vIYDCmjhxsj+wQ36kvF4FAHjwNArYg2f5epPLUrZ79+7bbx/x5pt/9I+I8UdKSnl+TzNrdHhpMo77mjVbr7rqx6ef3qNTp04LFixk3GEzsoqpceedMd4ObdiwI5fXEEDBjR8/yR/YIT9SXq8CADx4GgXswbN8vcl6Kautrb399hErVlT5hyPkR8rLWXyQKgt0eGkKH/dRoyZ06NDh8st/wLjDZmQVUyPW26HPPuPtENKN9xsAksXTKGAPnuXrTdZL2dSp90b/0Jz3R86Sc/XqkAkdXpoyjvusWU/36NHzz39ez7jDWmQVU2Py5KnRv4Dmk0828YVQSLVp0+6LHvBSUsrrVQCAB0+jgD14lq832WUV162rmjLlAf9YRPyRc6WGY6tEmHV0eElaF23cX3vtnccem+ffz7jDEmQVU2PZsg+j//HKRx+dzR/LQ6qtXr16xoyoAS8lpbxeBQB48DQK2INn+XqTXVZx1Kixa9du849FxB85V2rQK0UwOrw0RR/3Tz/93L+TcYclyCqmxqFDtbfe+oso6866ddtGjx6jnw+kzYgRd0YJeCkjJfWTAeBYPI0CVuFZvn5kkVXctWvXhAkV/rGI9SM1SD161TChw0sT446iQVYxTVavrrr99jv9q4n2c+edYzZt2qSfDKTNhg0bhw/PHPBSRkrqJwOAD0+jgD14lq8fWWQVn3vu+ddee9c/FrF+pAapR68aJnR4aWLcUTTIKqbMm2++K++Igv5rV/b/8pejly9frp8GpNN7771/xx1hAS9HpYx+GgAE4GkUsAfP8vUgi6zixImT/cORxY/Uo1cNEzq8NDHuKBpkFdOnsvLT224bef/9j3i/5Vq2H3jgkZEjR/PxChSZ6urP7rjDEPCyR/bLUf0EAAjF0yhgD57l8y2LrOKECckkO6QevWqY0OGliXFH0SCrmEqHDx9Zvnzl5MlTRo0aP3ToVWPGTLjnnl9//DHfK4+i9ec/f3zXXVNHj54gAS//yrbs0QsBQDQ8jQJW4Vk+f2666aaKmH72s//nz1xk8TN+/CT9bmAiHeXvvSx+6PB0YdxRNMgqpl5F/P+BBNKLgAeQLFYVwB7Mx8Rl0aV8hKqe0eGliXFH0SCrmHpZvFYA0ouAB5AsVhXAHszHxGXRpZMm3eXPXGTxI/XoVcOEDi9NjDuKBlnF1MvitQKQXgQ8gGSxqgD2YD4mLosuff755xcuzPVP00oNUo9eNUzo8NLEuKNokFVMvSxeKwDpRcADSBarCmAP5mPisujSXbt2TZxY4c9fxPqRGqQevWqY0OGliXFH0SCrmHpZvFYA0ouAB5AsVhXAHszHxGXXpWPGjFu7dps/hRHxR86VGvRKEYwOL02MO4oDWcXUy+61ApBSBDyAZLGqAPZgPiYuuy6tqqqaOvUBfxYj4o+cKzXolSIYHV6aGHcUB7KKqZfdawUgpQh4AMliVQHswXxMXNZdOm3avW+9tcyfyMj4I2fJuXp1yIQOL02MO4oAWUV7PfXUUxURXHrppfouE6lNvwBgEwIeQLJYVQB7MB8LpSLbrGJtbe3w4b9YsaLKn84I+ZHycpacq1eHTOjw0sS4owiQVUy9rF8rAGlEwANIFqsKYA/mY+Jy6dLdu3ePGPGL6B+kkpJSXs7SK0I0dHhpYtyRdmQVUy+X1wpA6hDwAJLFqgLYg/mYuBy7tLa29t577/v1r6evW7fdn91wf+SolJGSfHgqR3R4aWLckWpkFVMvx9cKQLoQ8ACSxaoC2IP5mLhEunTdunVjxoybNOmehQuXaGkO2SP75aiU0U9Dtujw0sS4I6XIKqZeIq8VgLQg4AEki1UFsAfzMXEJfgfl7t27n332ucmT75o06a4JEybLv7Ite/hNzDyhw0sT447UIauYerz8Qkkh4AEki1UFsAfzEQCAdCGrmHq8/EJJIeABJItVBbAH8xEl6Mknn6xIQoKfSwWA6Mgqpl4FL79QSgh4AMliVQHswXwEACBdyCqmHi+/UFIIeADJYlUB7MF8BAAgXcgqph4vv1BSCHgAyWJVAezBfAQAIF3IKqYeL79QUgh4AMliVQHswXwEACBdyCqmHi+/UFIIeADJYlUB7MF8BAAgXcgqph4vv1BSCHgAyWJVAezBfAQAIF3IKqYeL79QUgh4AMliVQHswXwEACBdyCqmHi+/UFIIeADJYlUB7MF8BAAgXcgqph4vv1BSCHgAyWJVAezBfAQAIF3IKqYeL79QUgh4AMliVQHswXwEACBdyCqmHi+/UFIIeADJYlUB7MF8BAAgXcgqph4vv1BSCHgAyWJVAezBfAQAIF3IKqbb3r17r7jiCvlXPwAUIwIeQLJYVQB7MB8BAEgdsoopVltbO3LkyJUrV8q/sq0fBooLAQ8gWawqgD2YjwAApBFZxRSrqKiorKyUDfmXXxhB0SPgASSLVQWwB/MRAIA0IquYVrNmzXr77bfdh7ItezzHgaJCwANIFqsKYA/mIwAAKUVWMZVeeeWV+fPnaztlj+zXdgJFgIAHkCxWFcAezEcAANKLrGL6LF++fPr06freOrJfjup7gTQj4AEki1UFsAfzEQCAVCOrmDIbNmwYN26cvtdDjkoZfS+QTgQ8gGSxqgD2YD4CAJB2ZBXTZMeOHSNGjDh48KB+wEOOShkpqR8A0oaAB5AsVhXAHsxHAACKAFnF1Ij+uirKqzTAcgQ8gGSxqgD2YD4CAFAcyCqmRqzfAcn4GyWA5Qh4AMliVQHswXwEAKA4kFVMhyy+rzrk268ByxHwAJLFqgLYg/kIAEDRIKuYAvPnz3/llVf0vRHIWXKuvhewGwEPIFmsKoA9mI8AABQTsoq2e/vtt2fNmqXvjUzOlRr0vYCtCHgAyWJVAezBfAQAoMiQVbRaZWVlRUWFvjcmqUHq0fcC9iHgASSLVQWwB/MRAIDiQ1bRXtu2bRs5cmRtba1+ICapQeqR2vQDgE0IeADJYlUB7MF8BACgKJFVtNejjz66d+9efW9WpB6pTd8L2ISAB5AsVhXAHsxHAACKEllFAAAAAAAAAPGQVQQAAAAAAAAQD1lFAAAAAAAAAPGQVQQAAAAAAAAQD1lFAAAAAAAAAPH8fxHstPIESAx1AAAAAElFTkSuQmCC;" vertex="1" parent="1">
                    <mxGeometry x="250" y="100" width="1735" height="939" as="geometry"/>
                </mxCell>
                <mxCell id="6" value="act Sign Up" style="shape=umlFrame;whiteSpace=wrap;html=1;rounded=0;shadow=0;comic=0;labelBackgroundColor=none;strokeWidth=1;fontFamily=Verdana;fontSize=10;align=center;" vertex="1" parent="1">
                    <mxGeometry x="190" y="50" width="1880" height="1080" as="geometry"/>
                </mxCell>
            </root>
        </mxGraphModel>
    </diagram>
</mxfile>